<svg xmlns="http://www.w3.org/2000/svg" xmlns:xlink="http://www.w3.org/1999/xlink" width="1920" zoomAndPan="magnify" viewBox="0 0 1440 809.999993" height="1080" preserveAspectRatio="xMidYMid meet" version="1.0"><defs><g/><clipPath id="75751de488"><path d="M 7.097656 346.066406 L 290 346.066406 L 290 468.203125 L 7.097656 468.203125 Z M 7.097656 346.066406 " clip-rule="nonzero"/></clipPath><clipPath id="0d16dd0d9e"><path d="M 24.453125 346.066406 L 272.25 346.066406 C 281.835938 346.066406 289.605469 353.835938 289.605469 363.421875 L 289.605469 450.851562 C 289.605469 460.433594 281.835938 468.203125 272.25 468.203125 L 24.453125 468.203125 C 14.867188 468.203125 7.097656 460.433594 7.097656 450.851562 L 7.097656 363.421875 C 7.097656 353.835938 14.867188 346.066406 24.453125 346.066406 Z M 24.453125 346.066406 " clip-rule="nonzero"/></clipPath><clipPath id="b40cbc37b9"><path d="M 293.667969 346.066406 L 575 346.066406 L 575 468.203125 L 293.667969 468.203125 Z M 293.667969 346.066406 " clip-rule="nonzero"/></clipPath><clipPath id="00383ad5f8"><path d="M 310.933594 346.066406 L 557.480469 346.066406 C 567.015625 346.066406 574.746094 353.796875 574.746094 363.332031 L 574.746094 450.9375 C 574.746094 460.472656 567.015625 468.203125 557.480469 468.203125 L 310.933594 468.203125 C 301.398438 468.203125 293.667969 460.472656 293.667969 450.9375 L 293.667969 363.332031 C 293.667969 353.796875 301.398438 346.066406 310.933594 346.066406 Z M 310.933594 346.066406 " clip-rule="nonzero"/></clipPath><clipPath id="21f122f101"><path d="M 865.703125 346.066406 L 1147 346.066406 L 1147 468.203125 L 865.703125 468.203125 Z M 865.703125 346.066406 " clip-rule="nonzero"/></clipPath><clipPath id="750fbc31d5"><path d="M 882.96875 346.066406 L 1129.476562 346.066406 C 1139.011719 346.066406 1146.742188 353.796875 1146.742188 363.332031 L 1146.742188 450.941406 C 1146.742188 460.476562 1139.011719 468.203125 1129.476562 468.203125 L 882.96875 468.203125 C 873.433594 468.203125 865.703125 460.476562 865.703125 450.941406 L 865.703125 363.332031 C 865.703125 353.796875 873.433594 346.066406 882.96875 346.066406 Z M 882.96875 346.066406 " clip-rule="nonzero"/></clipPath><clipPath id="485f8fc71c"><path d="M 578.808594 346.066406 L 861.730469 346.066406 L 861.730469 468.203125 L 578.808594 468.203125 Z M 578.808594 346.066406 " clip-rule="nonzero"/></clipPath><clipPath id="5d3cc00991"><path d="M 596.167969 346.066406 L 844 346.066406 C 853.585938 346.066406 861.355469 353.835938 861.355469 363.421875 L 861.355469 450.847656 C 861.355469 460.433594 853.585938 468.203125 844 468.203125 L 596.167969 468.203125 C 586.582031 468.203125 578.808594 460.433594 578.808594 450.847656 L 578.808594 363.421875 C 578.808594 353.835938 586.582031 346.066406 596.167969 346.066406 Z M 596.167969 346.066406 " clip-rule="nonzero"/></clipPath><clipPath id="5d0ad628f3"><path d="M 1151.195312 346.066406 L 1432.6875 346.066406 L 1432.6875 468.203125 L 1151.195312 468.203125 Z M 1151.195312 346.066406 " clip-rule="nonzero"/></clipPath><clipPath id="45a1115364"><path d="M 1168.460938 346.066406 L 1414.96875 346.066406 C 1424.503906 346.066406 1432.234375 353.796875 1432.234375 363.332031 L 1432.234375 450.941406 C 1432.234375 460.476562 1424.503906 468.203125 1414.96875 468.203125 L 1168.460938 468.203125 C 1158.925781 468.203125 1151.195312 460.476562 1151.195312 450.941406 L 1151.195312 363.332031 C 1151.195312 353.796875 1158.925781 346.066406 1168.460938 346.066406 Z M 1168.460938 346.066406 " clip-rule="nonzero"/></clipPath></defs><g clip-path="url(#75751de488)"><g clip-path="url(#0d16dd0d9e)"><path fill="#09ac06" d="M 7.097656 346.066406 L 289.542969 346.066406 L 289.542969 468.203125 L 7.097656 468.203125 Z M 7.097656 346.066406 " fill-opacity="1" fill-rule="nonzero"/></g></g><g fill="#f9f7f1" fill-opacity="1"><g transform="translate(56.284203, 424.31573)"><g><path d="M 50.171875 -42.71875 L 48.671875 -42.71875 C 48.296875 -45.789062 47.171875 -48.066406 45.296875 -49.546875 C 43.421875 -51.023438 40.582031 -51.765625 36.78125 -51.765625 L 19.578125 -51.765625 L 19.578125 -30.28125 L 33.046875 -30.28125 C 35.898438 -30.28125 37.894531 -30.796875 39.03125 -31.828125 C 40.175781 -32.859375 40.75 -34.484375 40.75 -36.703125 L 40.75 -37.96875 L 42.171875 -37.96875 L 42.171875 -19.421875 L 40.75 -19.421875 L 40.75 -20.375 C 40.75 -22.695312 40.191406 -24.398438 39.078125 -25.484375 C 37.960938 -26.566406 36.21875 -27.109375 33.84375 -27.109375 L 19.578125 -27.109375 L 19.578125 -7.921875 C 19.578125 -5.390625 20.210938 -3.671875 21.484375 -2.765625 C 22.753906 -1.867188 24.734375 -1.421875 27.421875 -1.421875 L 27.421875 0 L 3.40625 0 L 3.40625 -1.421875 L 3.890625 -1.421875 C 6.265625 -1.421875 8.046875 -1.910156 9.234375 -2.890625 C 10.421875 -3.867188 11.015625 -5.570312 11.015625 -8 L 11.015625 -46.84375 C 11.015625 -49.0625 10.40625 -50.644531 9.1875 -51.59375 C 7.976562 -52.550781 6.050781 -53.03125 3.40625 -53.03125 L 3.40625 -54.453125 L 49.625 -54.453125 Z M 50.171875 -42.71875 "/></g></g></g><g fill="#f9f7f1" fill-opacity="1"><g transform="translate(109.15413, 424.31573)"><g><path d="M 22.59375 -37.65625 C 25.707031 -37.65625 28.625 -36.820312 31.34375 -35.15625 C 34.070312 -33.488281 36.238281 -31.265625 37.84375 -28.484375 C 39.457031 -25.710938 40.265625 -22.742188 40.265625 -19.578125 C 40.265625 -15.878906 39.390625 -12.441406 37.640625 -9.265625 C 35.898438 -6.097656 33.5625 -3.578125 30.625 -1.703125 C 27.695312 0.171875 24.570312 1.109375 21.25 1.109375 C 18.070312 1.109375 15.125 0.273438 12.40625 -1.390625 C 9.6875 -3.054688 7.53125 -5.300781 5.9375 -8.125 C 4.351562 -10.945312 3.5625 -14.023438 3.5625 -17.359375 C 3.5625 -20.953125 4.429688 -24.304688 6.171875 -27.421875 C 7.921875 -30.546875 10.257812 -33.03125 13.1875 -34.875 C 16.125 -36.726562 19.257812 -37.65625 22.59375 -37.65625 Z M 10.703125 -20.53125 C 10.703125 -17.414062 11.191406 -14.414062 12.171875 -11.53125 C 13.148438 -8.65625 14.5625 -6.289062 16.40625 -4.4375 C 18.257812 -2.59375 20.476562 -1.671875 23.0625 -1.671875 C 26.070312 -1.671875 28.503906 -3.003906 30.359375 -5.671875 C 32.210938 -8.335938 33.140625 -11.863281 33.140625 -16.25 C 33.140625 -19.738281 32.609375 -22.894531 31.546875 -25.71875 C 30.492188 -28.550781 29.015625 -30.785156 27.109375 -32.421875 C 25.203125 -34.054688 23.035156 -34.875 20.609375 -34.875 C 17.597656 -34.875 15.191406 -33.578125 13.390625 -30.984375 C 11.597656 -28.398438 10.703125 -24.914062 10.703125 -20.53125 Z M 10.703125 -20.53125 "/></g></g></g><g fill="#f9f7f1" fill-opacity="1"><g transform="translate(152.908549, 424.31573)"><g><path d="M 22.59375 -37.65625 C 25.707031 -37.65625 28.625 -36.820312 31.34375 -35.15625 C 34.070312 -33.488281 36.238281 -31.265625 37.84375 -28.484375 C 39.457031 -25.710938 40.265625 -22.742188 40.265625 -19.578125 C 40.265625 -15.878906 39.390625 -12.441406 37.640625 -9.265625 C 35.898438 -6.097656 33.5625 -3.578125 30.625 -1.703125 C 27.695312 0.171875 24.570312 1.109375 21.25 1.109375 C 18.070312 1.109375 15.125 0.273438 12.40625 -1.390625 C 9.6875 -3.054688 7.53125 -5.300781 5.9375 -8.125 C 4.351562 -10.945312 3.5625 -14.023438 3.5625 -17.359375 C 3.5625 -20.953125 4.429688 -24.304688 6.171875 -27.421875 C 7.921875 -30.546875 10.257812 -33.03125 13.1875 -34.875 C 16.125 -36.726562 19.257812 -37.65625 22.59375 -37.65625 Z M 10.703125 -20.53125 C 10.703125 -17.414062 11.191406 -14.414062 12.171875 -11.53125 C 13.148438 -8.65625 14.5625 -6.289062 16.40625 -4.4375 C 18.257812 -2.59375 20.476562 -1.671875 23.0625 -1.671875 C 26.070312 -1.671875 28.503906 -3.003906 30.359375 -5.671875 C 32.210938 -8.335938 33.140625 -11.863281 33.140625 -16.25 C 33.140625 -19.738281 32.609375 -22.894531 31.546875 -25.71875 C 30.492188 -28.550781 29.015625 -30.785156 27.109375 -32.421875 C 25.203125 -34.054688 23.035156 -34.875 20.609375 -34.875 C 17.597656 -34.875 15.191406 -33.578125 13.390625 -30.984375 C 11.597656 -28.398438 10.703125 -24.914062 10.703125 -20.53125 Z M 10.703125 -20.53125 "/></g></g></g><g fill="#f9f7f1" fill-opacity="1"><g transform="translate(196.662974, 424.31573)"><g><path d="M 36.0625 -56.828125 L 36.0625 -10.546875 C 36.0625 -8.003906 36.335938 -6.335938 36.890625 -5.546875 C 37.453125 -4.753906 38.3125 -4.359375 39.46875 -4.359375 C 40 -4.359375 40.796875 -4.546875 41.859375 -4.921875 L 42.40625 -3.640625 L 29.5625 0.953125 L 29.5625 -4.28125 C 27.769531 -2.425781 26 -1.0625 24.25 -0.1875 C 22.507812 0.675781 20.582031 1.109375 18.46875 1.109375 C 15.613281 1.109375 12.96875 0.289062 10.53125 -1.34375 C 8.101562 -2.988281 6.160156 -5.207031 4.703125 -8 C 3.253906 -10.800781 2.53125 -13.816406 2.53125 -17.046875 C 2.53125 -20.691406 3.390625 -24.097656 5.109375 -27.265625 C 6.828125 -30.429688 9.113281 -32.953125 11.96875 -34.828125 C 14.820312 -36.710938 17.882812 -37.65625 21.15625 -37.65625 C 22.695312 -37.65625 24.125 -37.441406 25.4375 -37.015625 C 26.757812 -36.597656 28.132812 -35.882812 29.5625 -34.875 L 29.5625 -46.21875 C 29.5625 -49.539062 28.425781 -51.203125 26.15625 -51.203125 C 25.789062 -51.203125 25.445312 -51.160156 25.125 -51.078125 C 24.8125 -51.003906 24.414062 -50.863281 23.9375 -50.65625 L 23.296875 -52 L 34.71875 -56.828125 Z M 9.671875 -19.890625 C 9.671875 -16.828125 10.238281 -14.039062 11.375 -11.53125 C 12.507812 -9.019531 14.039062 -7.023438 15.96875 -5.546875 C 17.894531 -4.066406 20.023438 -3.328125 22.359375 -3.328125 C 25.210938 -3.328125 27.613281 -4.539062 29.5625 -6.96875 L 29.5625 -24.890625 C 29.5625 -27.585938 29.003906 -29.710938 27.890625 -31.265625 C 26.785156 -32.828125 25.519531 -33.910156 24.09375 -34.515625 C 22.664062 -35.128906 21.375 -35.4375 20.21875 -35.4375 C 18.363281 -35.4375 16.628906 -34.75 15.015625 -33.375 C 13.410156 -32 12.117188 -30.117188 11.140625 -27.734375 C 10.160156 -25.359375 9.671875 -22.742188 9.671875 -19.890625 Z M 9.671875 -19.890625 "/></g></g></g><g clip-path="url(#b40cbc37b9)"><g clip-path="url(#00383ad5f8)"><path fill="#9e7049" d="M 293.667969 346.066406 L 574.683594 346.066406 L 574.683594 468.203125 L 293.667969 468.203125 Z M 293.667969 346.066406 " fill-opacity="1" fill-rule="nonzero"/></g></g><g fill="#f9f7f1" fill-opacity="1"><g transform="translate(329.33862, 424.31573)"><g><path d="M 21.40625 -53.03125 C 18.175781 -52.925781 16.5625 -51.765625 16.5625 -49.546875 C 16.5625 -48.804688 16.691406 -48.007812 16.953125 -47.15625 C 17.222656 -46.3125 17.832031 -44.570312 18.78125 -41.9375 L 28.6875 -14.34375 L 28.859375 -14.34375 L 37.578125 -38.609375 L 34.484375 -46.6875 C 33.847656 -48.320312 33.273438 -49.550781 32.765625 -50.375 C 32.265625 -51.195312 31.59375 -51.816406 30.75 -52.234375 C 29.90625 -52.660156 28.71875 -52.925781 27.1875 -53.03125 L 27.1875 -54.453125 L 48.828125 -54.453125 L 48.828125 -53.03125 C 47.191406 -52.875 45.882812 -52.515625 44.90625 -51.953125 C 43.925781 -51.398438 43.4375 -50.460938 43.4375 -49.140625 C 43.4375 -47.503906 43.910156 -45.523438 44.859375 -43.203125 L 55.96875 -14.34375 L 66.421875 -43.828125 C 67.003906 -45.421875 67.375 -46.546875 67.53125 -47.203125 C 67.6875 -47.859375 67.765625 -48.582031 67.765625 -49.375 C 67.765625 -51.757812 65.863281 -52.976562 62.0625 -53.03125 L 62.0625 -54.453125 L 77.84375 -54.453125 L 77.84375 -53.03125 C 76.039062 -52.976562 74.582031 -52.238281 73.46875 -50.8125 C 72.363281 -49.382812 71.125 -46.710938 69.75 -42.796875 L 54.21875 1.109375 L 52.71875 1.109375 L 39.46875 -33.6875 L 26.796875 1.109375 L 25.53125 1.109375 L 8.328125 -45.578125 C 7.472656 -47.847656 6.71875 -49.484375 6.0625 -50.484375 C 5.40625 -51.492188 4.707031 -52.144531 3.96875 -52.4375 C 3.226562 -52.726562 2.09375 -52.925781 0.5625 -53.03125 L 0.5625 -54.453125 L 21.40625 -54.453125 Z M 21.40625 -53.03125 "/></g></g></g><g fill="#f9f7f1" fill-opacity="1"><g transform="translate(407.811228, 424.31573)"><g><path d="M 22.59375 -37.65625 C 25.707031 -37.65625 28.625 -36.820312 31.34375 -35.15625 C 34.070312 -33.488281 36.238281 -31.265625 37.84375 -28.484375 C 39.457031 -25.710938 40.265625 -22.742188 40.265625 -19.578125 C 40.265625 -15.878906 39.390625 -12.441406 37.640625 -9.265625 C 35.898438 -6.097656 33.5625 -3.578125 30.625 -1.703125 C 27.695312 0.171875 24.570312 1.109375 21.25 1.109375 C 18.070312 1.109375 15.125 0.273438 12.40625 -1.390625 C 9.6875 -3.054688 7.53125 -5.300781 5.9375 -8.125 C 4.351562 -10.945312 3.5625 -14.023438 3.5625 -17.359375 C 3.5625 -20.953125 4.429688 -24.304688 6.171875 -27.421875 C 7.921875 -30.546875 10.257812 -33.03125 13.1875 -34.875 C 16.125 -36.726562 19.257812 -37.65625 22.59375 -37.65625 Z M 10.703125 -20.53125 C 10.703125 -17.414062 11.191406 -14.414062 12.171875 -11.53125 C 13.148438 -8.65625 14.5625 -6.289062 16.40625 -4.4375 C 18.257812 -2.59375 20.476562 -1.671875 23.0625 -1.671875 C 26.070312 -1.671875 28.503906 -3.003906 30.359375 -5.671875 C 32.210938 -8.335938 33.140625 -11.863281 33.140625 -16.25 C 33.140625 -19.738281 32.609375 -22.894531 31.546875 -25.71875 C 30.492188 -28.550781 29.015625 -30.785156 27.109375 -32.421875 C 25.203125 -34.054688 23.035156 -34.875 20.609375 -34.875 C 17.597656 -34.875 15.191406 -33.578125 13.390625 -30.984375 C 11.597656 -28.398438 10.703125 -24.914062 10.703125 -20.53125 Z M 10.703125 -20.53125 "/></g></g></g><g fill="#f9f7f1" fill-opacity="1"><g transform="translate(451.565652, 424.31573)"><g><path d="M 22.59375 -37.65625 C 25.707031 -37.65625 28.625 -36.820312 31.34375 -35.15625 C 34.070312 -33.488281 36.238281 -31.265625 37.84375 -28.484375 C 39.457031 -25.710938 40.265625 -22.742188 40.265625 -19.578125 C 40.265625 -15.878906 39.390625 -12.441406 37.640625 -9.265625 C 35.898438 -6.097656 33.5625 -3.578125 30.625 -1.703125 C 27.695312 0.171875 24.570312 1.109375 21.25 1.109375 C 18.070312 1.109375 15.125 0.273438 12.40625 -1.390625 C 9.6875 -3.054688 7.53125 -5.300781 5.9375 -8.125 C 4.351562 -10.945312 3.5625 -14.023438 3.5625 -17.359375 C 3.5625 -20.953125 4.429688 -24.304688 6.171875 -27.421875 C 7.921875 -30.546875 10.257812 -33.03125 13.1875 -34.875 C 16.125 -36.726562 19.257812 -37.65625 22.59375 -37.65625 Z M 10.703125 -20.53125 C 10.703125 -17.414062 11.191406 -14.414062 12.171875 -11.53125 C 13.148438 -8.65625 14.5625 -6.289062 16.40625 -4.4375 C 18.257812 -2.59375 20.476562 -1.671875 23.0625 -1.671875 C 26.070312 -1.671875 28.503906 -3.003906 30.359375 -5.671875 C 32.210938 -8.335938 33.140625 -11.863281 33.140625 -16.25 C 33.140625 -19.738281 32.609375 -22.894531 31.546875 -25.71875 C 30.492188 -28.550781 29.015625 -30.785156 27.109375 -32.421875 C 25.203125 -34.054688 23.035156 -34.875 20.609375 -34.875 C 17.597656 -34.875 15.191406 -33.578125 13.390625 -30.984375 C 11.597656 -28.398438 10.703125 -24.914062 10.703125 -20.53125 Z M 10.703125 -20.53125 "/></g></g></g><g fill="#f9f7f1" fill-opacity="1"><g transform="translate(495.320086, 424.31573)"><g><path d="M 36.0625 -56.828125 L 36.0625 -10.546875 C 36.0625 -8.003906 36.335938 -6.335938 36.890625 -5.546875 C 37.453125 -4.753906 38.3125 -4.359375 39.46875 -4.359375 C 40 -4.359375 40.796875 -4.546875 41.859375 -4.921875 L 42.40625 -3.640625 L 29.5625 0.953125 L 29.5625 -4.28125 C 27.769531 -2.425781 26 -1.0625 24.25 -0.1875 C 22.507812 0.675781 20.582031 1.109375 18.46875 1.109375 C 15.613281 1.109375 12.96875 0.289062 10.53125 -1.34375 C 8.101562 -2.988281 6.160156 -5.207031 4.703125 -8 C 3.253906 -10.800781 2.53125 -13.816406 2.53125 -17.046875 C 2.53125 -20.691406 3.390625 -24.097656 5.109375 -27.265625 C 6.828125 -30.429688 9.113281 -32.953125 11.96875 -34.828125 C 14.820312 -36.710938 17.882812 -37.65625 21.15625 -37.65625 C 22.695312 -37.65625 24.125 -37.441406 25.4375 -37.015625 C 26.757812 -36.597656 28.132812 -35.882812 29.5625 -34.875 L 29.5625 -46.21875 C 29.5625 -49.539062 28.425781 -51.203125 26.15625 -51.203125 C 25.789062 -51.203125 25.445312 -51.160156 25.125 -51.078125 C 24.8125 -51.003906 24.414062 -50.863281 23.9375 -50.65625 L 23.296875 -52 L 34.71875 -56.828125 Z M 9.671875 -19.890625 C 9.671875 -16.828125 10.238281 -14.039062 11.375 -11.53125 C 12.507812 -9.019531 14.039062 -7.023438 15.96875 -5.546875 C 17.894531 -4.066406 20.023438 -3.328125 22.359375 -3.328125 C 25.210938 -3.328125 27.613281 -4.539062 29.5625 -6.96875 L 29.5625 -24.890625 C 29.5625 -27.585938 29.003906 -29.710938 27.890625 -31.265625 C 26.785156 -32.828125 25.519531 -33.910156 24.09375 -34.515625 C 22.664062 -35.128906 21.375 -35.4375 20.21875 -35.4375 C 18.363281 -35.4375 16.628906 -34.75 15.015625 -33.375 C 13.410156 -32 12.117188 -30.117188 11.140625 -27.734375 C 10.160156 -25.359375 9.671875 -22.742188 9.671875 -19.890625 Z M 9.671875 -19.890625 "/></g></g></g><g clip-path="url(#21f122f101)"><g clip-path="url(#750fbc31d5)"><path fill="#ba2124" d="M 865.703125 346.066406 L 1146.714844 346.066406 L 1146.714844 468.203125 L 865.703125 468.203125 Z M 865.703125 346.066406 " fill-opacity="1" fill-rule="nonzero"/></g></g><g fill="#f9f7f1" fill-opacity="1"><g transform="translate(910.032847, 424.31573)"><g><path d="M 19.96875 -55.640625 C 21.769531 -55.640625 23.332031 -55.46875 24.65625 -55.125 C 25.976562 -54.78125 27.320312 -54.316406 28.6875 -53.734375 C 29.375 -53.472656 30.046875 -53.238281 30.703125 -53.03125 C 31.367188 -52.820312 31.96875 -52.71875 32.5 -52.71875 C 33.769531 -52.71875 34.773438 -53.691406 35.515625 -55.640625 L 37.015625 -55.640625 L 37.015625 -37.578125 L 35.515625 -37.578125 C 35.242188 -40.367188 34.40625 -42.914062 33 -45.21875 C 31.601562 -47.519531 29.863281 -49.328125 27.78125 -50.640625 C 25.695312 -51.960938 23.460938 -52.625 21.078125 -52.625 C 18.492188 -52.625 16.273438 -51.84375 14.421875 -50.28125 C 12.578125 -48.726562 11.65625 -46.84375 11.65625 -44.625 C 11.65625 -42.039062 12.921875 -39.796875 15.453125 -37.890625 C 17.253906 -36.566406 19.765625 -34.984375 22.984375 -33.140625 C 25.835938 -31.390625 28.210938 -29.878906 30.109375 -28.609375 C 32.015625 -27.347656 33.789062 -25.976562 35.4375 -24.5 C 36.914062 -23.070312 38.085938 -21.429688 38.953125 -19.578125 C 39.828125 -17.722656 40.265625 -15.820312 40.265625 -13.875 C 40.265625 -11.175781 39.523438 -8.664062 38.046875 -6.34375 C 36.566406 -4.019531 34.546875 -2.179688 31.984375 -0.828125 C 29.421875 0.515625 26.609375 1.1875 23.546875 1.1875 C 21.585938 1.1875 19.851562 1.015625 18.34375 0.671875 C 16.84375 0.328125 15.273438 -0.132812 13.640625 -0.71875 C 11.835938 -1.351562 10.488281 -1.671875 9.59375 -1.671875 C 8.164062 -1.671875 7.082031 -0.71875 6.34375 1.1875 L 4.921875 1.1875 L 4.921875 -17.125 L 6.34375 -17.125 C 7.238281 -12.414062 9.019531 -8.6875 11.6875 -5.9375 C 14.351562 -3.195312 17.800781 -1.828125 22.03125 -1.828125 C 25.039062 -1.828125 27.523438 -2.644531 29.484375 -4.28125 C 31.441406 -5.914062 32.421875 -7.976562 32.421875 -10.46875 C 32.421875 -11.726562 32.179688 -12.882812 31.703125 -13.9375 C 31.234375 -15 30.441406 -16.140625 29.328125 -17.359375 C 28.328125 -18.410156 26.898438 -19.554688 25.046875 -20.796875 C 23.203125 -22.046875 20.742188 -23.59375 17.671875 -25.4375 C 15.085938 -27.03125 13.109375 -28.285156 11.734375 -29.203125 C 10.359375 -30.128906 9.328125 -30.9375 8.640625 -31.625 C 5.941406 -34.375 4.59375 -37.675781 4.59375 -41.53125 C 4.59375 -44.175781 5.265625 -46.566406 6.609375 -48.703125 C 7.960938 -50.847656 9.800781 -52.539062 12.125 -53.78125 C 14.445312 -55.019531 17.0625 -55.640625 19.96875 -55.640625 Z M 19.96875 -55.640625 "/></g></g></g><g fill="#f9f7f1" fill-opacity="1"><g transform="translate(953.787271, 424.31573)"><g><path d="M 13.15625 -48.4375 L 14.421875 -48.4375 L 14.421875 -36.78125 L 22.75 -36.78125 L 22.75 -34.328125 L 14.421875 -34.328125 L 14.421875 -8.796875 C 14.421875 -7.421875 14.816406 -6.191406 15.609375 -5.109375 C 16.398438 -4.023438 17.507812 -3.484375 18.9375 -3.484375 C 19.894531 -3.484375 20.742188 -3.707031 21.484375 -4.15625 C 22.222656 -4.601562 23.015625 -5.382812 23.859375 -6.5 L 25.4375 -6.5 C 24.070312 -3.957031 22.59375 -2.050781 21 -0.78125 C 19.414062 0.476562 17.566406 1.109375 15.453125 1.109375 C 13.128906 1.109375 11.289062 0.25 9.9375 -1.46875 C 8.59375 -3.1875 7.921875 -5.523438 7.921875 -8.484375 L 7.921875 -34.328125 L 2.296875 -34.328125 L 2.296875 -35.90625 C 4.992188 -37.019531 7.265625 -38.644531 9.109375 -40.78125 C 10.960938 -42.925781 12.3125 -45.476562 13.15625 -48.4375 Z M 13.15625 -48.4375 "/></g></g></g><g fill="#f9f7f1" fill-opacity="1"><g transform="translate(980.182605, 424.31573)"><g><path d="M 22.59375 -37.65625 C 25.707031 -37.65625 28.625 -36.820312 31.34375 -35.15625 C 34.070312 -33.488281 36.238281 -31.265625 37.84375 -28.484375 C 39.457031 -25.710938 40.265625 -22.742188 40.265625 -19.578125 C 40.265625 -15.878906 39.390625 -12.441406 37.640625 -9.265625 C 35.898438 -6.097656 33.5625 -3.578125 30.625 -1.703125 C 27.695312 0.171875 24.570312 1.109375 21.25 1.109375 C 18.070312 1.109375 15.125 0.273438 12.40625 -1.390625 C 9.6875 -3.054688 7.53125 -5.300781 5.9375 -8.125 C 4.351562 -10.945312 3.5625 -14.023438 3.5625 -17.359375 C 3.5625 -20.953125 4.429688 -24.304688 6.171875 -27.421875 C 7.921875 -30.546875 10.257812 -33.03125 13.1875 -34.875 C 16.125 -36.726562 19.257812 -37.65625 22.59375 -37.65625 Z M 10.703125 -20.53125 C 10.703125 -17.414062 11.191406 -14.414062 12.171875 -11.53125 C 13.148438 -8.65625 14.5625 -6.289062 16.40625 -4.4375 C 18.257812 -2.59375 20.476562 -1.671875 23.0625 -1.671875 C 26.070312 -1.671875 28.503906 -3.003906 30.359375 -5.671875 C 32.210938 -8.335938 33.140625 -11.863281 33.140625 -16.25 C 33.140625 -19.738281 32.609375 -22.894531 31.546875 -25.71875 C 30.492188 -28.550781 29.015625 -30.785156 27.109375 -32.421875 C 25.203125 -34.054688 23.035156 -34.875 20.609375 -34.875 C 17.597656 -34.875 15.191406 -33.578125 13.390625 -30.984375 C 11.597656 -28.398438 10.703125 -24.914062 10.703125 -20.53125 Z M 10.703125 -20.53125 "/></g></g></g><g fill="#f9f7f1" fill-opacity="1"><g transform="translate(1023.937029, 424.31573)"><g><path d="M 14.1875 -29.890625 C 16.9375 -32.847656 19.179688 -34.878906 20.921875 -35.984375 C 22.671875 -37.097656 24.601562 -37.65625 26.71875 -37.65625 C 29.039062 -37.65625 30.914062 -37.03125 32.34375 -35.78125 C 33.769531 -34.539062 34.800781 -33.019531 35.4375 -31.21875 C 36.070312 -29.425781 36.390625 -27.660156 36.390625 -25.921875 L 36.390625 -8.40625 C 36.390625 -5.707031 36.8125 -3.894531 37.65625 -2.96875 C 38.5 -2.039062 39.953125 -1.523438 42.015625 -1.421875 L 42.015625 0 L 23.46875 0 L 23.46875 -1.421875 C 25.15625 -1.421875 26.445312 -1.601562 27.34375 -1.96875 C 28.238281 -2.34375 28.882812 -3.019531 29.28125 -4 C 29.6875 -4.976562 29.890625 -6.445312 29.890625 -8.40625 L 29.890625 -26.234375 C 29.890625 -27.921875 29.332031 -29.460938 28.21875 -30.859375 C 27.101562 -32.265625 25.570312 -32.96875 23.625 -32.96875 C 21.976562 -32.96875 20.414062 -32.53125 18.9375 -31.65625 C 17.457031 -30.789062 15.875 -29.457031 14.1875 -27.65625 L 14.1875 -8.40625 C 14.1875 -5.65625 14.632812 -3.816406 15.53125 -2.890625 C 16.4375 -1.960938 18 -1.472656 20.21875 -1.421875 L 20.21875 0 L 1.984375 0 L 1.984375 -1.421875 C 3.617188 -1.585938 4.832031 -1.878906 5.625 -2.296875 C 6.414062 -2.722656 6.957031 -3.382812 7.25 -4.28125 C 7.539062 -5.175781 7.6875 -6.472656 7.6875 -8.171875 L 7.6875 -27.90625 C 7.6875 -29.113281 7.421875 -30.164062 6.890625 -31.0625 C 6.367188 -31.96875 5.523438 -32.421875 4.359375 -32.421875 C 3.828125 -32.421875 3.335938 -32.328125 2.890625 -32.140625 C 2.441406 -31.953125 2.140625 -31.832031 1.984375 -31.78125 L 1.421875 -33.296875 L 12.84375 -37.65625 L 14.1875 -37.65625 Z M 14.1875 -29.890625 "/></g></g></g><g fill="#f9f7f1" fill-opacity="1"><g transform="translate(1067.691453, 424.31573)"><g><path d="M 18.625 -37.65625 C 22.75 -37.65625 26.09375 -36.28125 28.65625 -33.53125 C 31.21875 -30.78125 32.5 -27.210938 32.5 -22.828125 L 7.609375 -22.828125 L 7.609375 -21.796875 C 7.609375 -18.992188 8.160156 -16.3125 9.265625 -13.75 C 10.378906 -11.1875 11.941406 -9.113281 13.953125 -7.53125 C 15.960938 -5.945312 18.234375 -5.15625 20.765625 -5.15625 C 25.785156 -5.15625 29.300781 -7.953125 31.3125 -13.546875 L 32.5 -12.921875 C 31.65625 -8.585938 29.910156 -5.164062 27.265625 -2.65625 C 24.617188 -0.144531 21.445312 1.109375 17.75 1.109375 C 15.007812 1.109375 12.460938 0.394531 10.109375 -1.03125 C 7.753906 -2.457031 5.847656 -4.597656 4.390625 -7.453125 C 2.941406 -10.304688 2.21875 -13.765625 2.21875 -17.828125 C 2.21875 -21.742188 2.90625 -25.207031 4.28125 -28.21875 C 5.65625 -31.226562 7.582031 -33.550781 10.0625 -35.1875 C 12.550781 -36.832031 15.40625 -37.65625 18.625 -37.65625 Z M 16.40625 -34.875 C 14.1875 -34.875 12.269531 -34 10.65625 -32.25 C 9.050781 -30.507812 8.085938 -28.1875 7.765625 -25.28125 L 24.328125 -25.28125 C 24.222656 -28.132812 23.5 -30.445312 22.15625 -32.21875 C 20.8125 -33.988281 18.894531 -34.875 16.40625 -34.875 Z M 16.40625 -34.875 "/></g></g></g><g clip-path="url(#485f8fc71c)"><g clip-path="url(#5d3cc00991)"><path fill="#4682b4" d="M 578.808594 346.066406 L 861.253906 346.066406 L 861.253906 468.203125 L 578.808594 468.203125 Z M 578.808594 346.066406 " fill-opacity="1" fill-rule="nonzero"/></g></g><g fill="#f9f7f1" fill-opacity="1"><g transform="translate(619.733067, 424.31573)"><g><path d="M 39.390625 -12.84375 L 58.5 -54.453125 L 75.0625 -54.453125 L 75.0625 -53.03125 L 74.515625 -53.03125 C 71.972656 -53.03125 70.09375 -52.578125 68.875 -51.671875 C 67.664062 -50.773438 67.0625 -49.0625 67.0625 -46.53125 L 67.0625 -7.84375 C 67.0625 -5.519531 67.640625 -3.867188 68.796875 -2.890625 C 69.960938 -1.910156 71.921875 -1.421875 74.671875 -1.421875 L 75.0625 -1.421875 L 75.0625 0 L 50.484375 0 L 50.484375 -1.421875 L 51.203125 -1.421875 C 53.691406 -1.421875 55.53125 -1.910156 56.71875 -2.890625 C 57.90625 -3.867188 58.5 -5.570312 58.5 -8 L 58.5 -45.65625 L 58.34375 -45.65625 L 37.40625 0 L 35.984375 0 L 15.0625 -45.65625 L 14.90625 -45.65625 L 14.90625 -7.921875 C 14.90625 -5.390625 15.484375 -3.6875 16.640625 -2.8125 C 17.804688 -1.9375 19.765625 -1.472656 22.515625 -1.421875 L 22.515625 0 L 3.40625 0 L 3.40625 -1.421875 L 3.890625 -1.421875 C 6.421875 -1.421875 8.289062 -1.882812 9.5 -2.8125 C 10.71875 -3.738281 11.328125 -5.46875 11.328125 -8 L 11.328125 -45.1875 C 11.328125 -47.664062 10.691406 -49.523438 9.421875 -50.765625 C 8.160156 -52.003906 6.15625 -52.757812 3.40625 -53.03125 L 3.40625 -54.453125 L 20.046875 -54.453125 Z M 39.390625 -12.84375 "/></g></g></g><g fill="#f9f7f1" fill-opacity="1"><g transform="translate(698.205675, 424.31573)"><g><path d="M 18.625 -37.65625 C 22.75 -37.65625 26.09375 -36.28125 28.65625 -33.53125 C 31.21875 -30.78125 32.5 -27.210938 32.5 -22.828125 L 7.609375 -22.828125 L 7.609375 -21.796875 C 7.609375 -18.992188 8.160156 -16.3125 9.265625 -13.75 C 10.378906 -11.1875 11.941406 -9.113281 13.953125 -7.53125 C 15.960938 -5.945312 18.234375 -5.15625 20.765625 -5.15625 C 25.785156 -5.15625 29.300781 -7.953125 31.3125 -13.546875 L 32.5 -12.921875 C 31.65625 -8.585938 29.910156 -5.164062 27.265625 -2.65625 C 24.617188 -0.144531 21.445312 1.109375 17.75 1.109375 C 15.007812 1.109375 12.460938 0.394531 10.109375 -1.03125 C 7.753906 -2.457031 5.847656 -4.597656 4.390625 -7.453125 C 2.941406 -10.304688 2.21875 -13.765625 2.21875 -17.828125 C 2.21875 -21.742188 2.90625 -25.207031 4.28125 -28.21875 C 5.65625 -31.226562 7.582031 -33.550781 10.0625 -35.1875 C 12.550781 -36.832031 15.40625 -37.65625 18.625 -37.65625 Z M 16.40625 -34.875 C 14.1875 -34.875 12.269531 -34 10.65625 -32.25 C 9.050781 -30.507812 8.085938 -28.1875 7.765625 -25.28125 L 24.328125 -25.28125 C 24.222656 -28.132812 23.5 -30.445312 22.15625 -32.21875 C 20.8125 -33.988281 18.894531 -34.875 16.40625 -34.875 Z M 16.40625 -34.875 "/></g></g></g><g fill="#f9f7f1" fill-opacity="1"><g transform="translate(732.923857, 424.31573)"><g><path d="M 13.15625 -48.4375 L 14.421875 -48.4375 L 14.421875 -36.78125 L 22.75 -36.78125 L 22.75 -34.328125 L 14.421875 -34.328125 L 14.421875 -8.796875 C 14.421875 -7.421875 14.816406 -6.191406 15.609375 -5.109375 C 16.398438 -4.023438 17.507812 -3.484375 18.9375 -3.484375 C 19.894531 -3.484375 20.742188 -3.707031 21.484375 -4.15625 C 22.222656 -4.601562 23.015625 -5.382812 23.859375 -6.5 L 25.4375 -6.5 C 24.070312 -3.957031 22.59375 -2.050781 21 -0.78125 C 19.414062 0.476562 17.566406 1.109375 15.453125 1.109375 C 13.128906 1.109375 11.289062 0.25 9.9375 -1.46875 C 8.59375 -3.1875 7.921875 -5.523438 7.921875 -8.484375 L 7.921875 -34.328125 L 2.296875 -34.328125 L 2.296875 -35.90625 C 4.992188 -37.019531 7.265625 -38.644531 9.109375 -40.78125 C 10.960938 -42.925781 12.3125 -45.476562 13.15625 -48.4375 Z M 13.15625 -48.4375 "/></g></g></g><g fill="#f9f7f1" fill-opacity="1"><g transform="translate(759.31919, 424.31573)"><g><path d="M 18.9375 -37.65625 C 26.863281 -37.65625 30.828125 -34.484375 30.828125 -28.140625 L 30.828125 -7.140625 C 30.828125 -5.710938 31.039062 -4.769531 31.46875 -4.3125 C 31.894531 -3.863281 32.453125 -3.640625 33.140625 -3.640625 C 33.929688 -3.640625 34.671875 -3.863281 35.359375 -4.3125 C 36.046875 -4.769531 37.046875 -5.628906 38.359375 -6.890625 L 38.359375 -4.921875 C 36.359375 -2.640625 34.707031 -1.0625 33.40625 -0.1875 C 32.113281 0.675781 30.78125 1.109375 29.40625 1.109375 C 27.875 1.109375 26.644531 0.566406 25.71875 -0.515625 C 24.789062 -1.597656 24.328125 -3.195312 24.328125 -5.3125 C 22.003906 -3.09375 19.851562 -1.46875 17.875 -0.4375 C 15.894531 0.59375 13.742188 1.109375 11.421875 1.109375 C 9.085938 1.109375 7.128906 0.238281 5.546875 -1.5 C 3.960938 -3.25 3.171875 -5.363281 3.171875 -7.84375 C 3.171875 -12.070312 5.414062 -15.347656 9.90625 -17.671875 C 14.1875 -19.941406 18.992188 -22.03125 24.328125 -23.9375 L 24.328125 -26.15625 C 24.328125 -28.269531 24.179688 -29.960938 23.890625 -31.234375 C 23.609375 -32.503906 22.953125 -33.519531 21.921875 -34.28125 C 20.890625 -35.050781 19.316406 -35.4375 17.203125 -35.4375 C 15.140625 -35.4375 13.601562 -34.929688 12.59375 -33.921875 C 11.59375 -32.921875 11.09375 -31.679688 11.09375 -30.203125 L 11.171875 -28.140625 C 11.171875 -27.242188 10.878906 -26.503906 10.296875 -25.921875 C 9.722656 -25.335938 8.984375 -25.046875 8.078125 -25.046875 C 7.078125 -25.046875 6.257812 -25.335938 5.625 -25.921875 C 4.988281 -26.503906 4.671875 -27.320312 4.671875 -28.375 C 4.671875 -31.019531 5.910156 -33.226562 8.390625 -35 C 10.878906 -36.769531 14.394531 -37.65625 18.9375 -37.65625 Z M 9.90625 -9.90625 C 9.90625 -8.113281 10.472656 -6.582031 11.609375 -5.3125 C 12.742188 -4.039062 14.160156 -3.40625 15.859375 -3.40625 C 18.546875 -3.40625 21.367188 -4.726562 24.328125 -7.375 L 24.328125 -21.796875 C 20.628906 -20.265625 17.773438 -18.929688 15.765625 -17.796875 C 13.765625 -16.660156 12.285156 -15.484375 11.328125 -14.265625 C 10.378906 -13.046875 9.90625 -11.59375 9.90625 -9.90625 Z M 9.90625 -9.90625 "/></g></g></g><g fill="#f9f7f1" fill-opacity="1"><g transform="translate(798.951808, 424.31573)"><g><path d="M 14.34375 -56.828125 L 14.34375 -8.328125 C 14.34375 -5.679688 14.722656 -3.867188 15.484375 -2.890625 C 16.253906 -1.910156 17.644531 -1.421875 19.65625 -1.421875 L 19.65625 0 L 1.828125 0 L 1.828125 -1.421875 C 3.304688 -1.421875 4.46875 -1.578125 5.3125 -1.890625 C 6.15625 -2.210938 6.785156 -2.875 7.203125 -3.875 C 7.628906 -4.882812 7.84375 -6.367188 7.84375 -8.328125 L 7.84375 -45.8125 C 7.84375 -49.351562 6.601562 -51.125 4.125 -51.125 C 3.4375 -51.125 2.828125 -50.992188 2.296875 -50.734375 L 1.828125 -52.078125 L 12.921875 -56.828125 Z M 14.34375 -56.828125 "/></g></g></g><g clip-path="url(#5d0ad628f3)"><g clip-path="url(#45a1115364)"><path fill="#fdd000" d="M 1151.195312 346.066406 L 1432.210938 346.066406 L 1432.210938 468.203125 L 1151.195312 468.203125 Z M 1151.195312 346.066406 " fill-opacity="1" fill-rule="nonzero"/></g></g><g fill="#3d3d3d" fill-opacity="1"><g transform="translate(1204.602001, 424.31573)"><g><path d="M 34.71875 -55.640625 C 37.570312 -55.640625 40.066406 -55.375 42.203125 -54.84375 C 44.347656 -54.320312 46.503906 -53.640625 48.671875 -52.796875 C 50.203125 -52.210938 51.125 -51.921875 51.4375 -51.921875 C 52.070312 -51.921875 52.628906 -52.238281 53.109375 -52.875 C 53.585938 -53.507812 53.878906 -54.429688 53.984375 -55.640625 L 55.484375 -55.640625 L 56.90625 -38.28125 L 55.484375 -38.28125 C 54.742188 -41.289062 53.316406 -43.878906 51.203125 -46.046875 C 49.085938 -48.210938 46.628906 -49.847656 43.828125 -50.953125 C 41.023438 -52.066406 38.171875 -52.625 35.265625 -52.625 C 31.304688 -52.625 27.660156 -51.632812 24.328125 -49.65625 C 21.003906 -47.675781 18.335938 -44.769531 16.328125 -40.9375 C 14.316406 -37.101562 13.3125 -32.519531 13.3125 -27.1875 C 13.3125 -22.269531 14.351562 -17.882812 16.4375 -14.03125 C 18.53125 -10.175781 21.359375 -7.175781 24.921875 -5.03125 C 28.492188 -2.894531 32.367188 -1.828125 36.546875 -1.828125 C 38.765625 -1.828125 40.820312 -2.128906 42.71875 -2.734375 C 44.625 -3.335938 46.632812 -4.351562 48.75 -5.78125 L 48.75 -21.484375 C 48.75 -23.804688 48.140625 -25.429688 46.921875 -26.359375 C 45.710938 -27.285156 43.785156 -27.773438 41.140625 -27.828125 L 41.140625 -29.25 L 64.515625 -29.25 L 64.515625 -27.828125 C 62.566406 -27.660156 61.101562 -27.363281 60.125 -26.9375 C 59.144531 -26.519531 58.429688 -25.78125 57.984375 -24.71875 C 57.535156 -23.664062 57.3125 -22.082031 57.3125 -19.96875 L 57.3125 -4.515625 C 53.445312 -2.398438 50.007812 -0.921875 47 -0.078125 C 43.988281 0.765625 40.289062 1.1875 35.90625 1.1875 C 29.039062 1.1875 23.148438 -0.128906 18.234375 -2.765625 C 13.316406 -5.410156 9.613281 -8.78125 7.125 -12.875 C 4.644531 -16.976562 3.40625 -21.195312 3.40625 -25.53125 C 3.40625 -31.019531 4.789062 -36.0625 7.5625 -40.65625 C 10.34375 -45.257812 14.125 -48.90625 18.90625 -51.59375 C 23.6875 -54.289062 28.957031 -55.640625 34.71875 -55.640625 Z M 34.71875 -55.640625 "/></g></g></g><g fill="#3d3d3d" fill-opacity="1"><g transform="translate(1269.8373, 424.31573)"><g><path d="M 22.59375 -37.65625 C 25.707031 -37.65625 28.625 -36.820312 31.34375 -35.15625 C 34.070312 -33.488281 36.238281 -31.265625 37.84375 -28.484375 C 39.457031 -25.710938 40.265625 -22.742188 40.265625 -19.578125 C 40.265625 -15.878906 39.390625 -12.441406 37.640625 -9.265625 C 35.898438 -6.097656 33.5625 -3.578125 30.625 -1.703125 C 27.695312 0.171875 24.570312 1.109375 21.25 1.109375 C 18.070312 1.109375 15.125 0.273438 12.40625 -1.390625 C 9.6875 -3.054688 7.53125 -5.300781 5.9375 -8.125 C 4.351562 -10.945312 3.5625 -14.023438 3.5625 -17.359375 C 3.5625 -20.953125 4.429688 -24.304688 6.171875 -27.421875 C 7.921875 -30.546875 10.257812 -33.03125 13.1875 -34.875 C 16.125 -36.726562 19.257812 -37.65625 22.59375 -37.65625 Z M 10.703125 -20.53125 C 10.703125 -17.414062 11.191406 -14.414062 12.171875 -11.53125 C 13.148438 -8.65625 14.5625 -6.289062 16.40625 -4.4375 C 18.257812 -2.59375 20.476562 -1.671875 23.0625 -1.671875 C 26.070312 -1.671875 28.503906 -3.003906 30.359375 -5.671875 C 32.210938 -8.335938 33.140625 -11.863281 33.140625 -16.25 C 33.140625 -19.738281 32.609375 -22.894531 31.546875 -25.71875 C 30.492188 -28.550781 29.015625 -30.785156 27.109375 -32.421875 C 25.203125 -34.054688 23.035156 -34.875 20.609375 -34.875 C 17.597656 -34.875 15.191406 -33.578125 13.390625 -30.984375 C 11.597656 -28.398438 10.703125 -24.914062 10.703125 -20.53125 Z M 10.703125 -20.53125 "/></g></g></g><g fill="#3d3d3d" fill-opacity="1"><g transform="translate(1313.59172, 424.31573)"><g><path d="M 14.34375 -56.828125 L 14.34375 -8.328125 C 14.34375 -5.679688 14.722656 -3.867188 15.484375 -2.890625 C 16.253906 -1.910156 17.644531 -1.421875 19.65625 -1.421875 L 19.65625 0 L 1.828125 0 L 1.828125 -1.421875 C 3.304688 -1.421875 4.46875 -1.578125 5.3125 -1.890625 C 6.15625 -2.210938 6.785156 -2.875 7.203125 -3.875 C 7.628906 -4.882812 7.84375 -6.367188 7.84375 -8.328125 L 7.84375 -45.8125 C 7.84375 -49.351562 6.601562 -51.125 4.125 -51.125 C 3.4375 -51.125 2.828125 -50.992188 2.296875 -50.734375 L 1.828125 -52.078125 L 12.921875 -56.828125 Z M 14.34375 -56.828125 "/></g></g></g><g fill="#3d3d3d" fill-opacity="1"><g transform="translate(1335.072599, 424.31573)"><g><path d="M 36.0625 -56.828125 L 36.0625 -10.546875 C 36.0625 -8.003906 36.335938 -6.335938 36.890625 -5.546875 C 37.453125 -4.753906 38.3125 -4.359375 39.46875 -4.359375 C 40 -4.359375 40.796875 -4.546875 41.859375 -4.921875 L 42.40625 -3.640625 L 29.5625 0.953125 L 29.5625 -4.28125 C 27.769531 -2.425781 26 -1.0625 24.25 -0.1875 C 22.507812 0.675781 20.582031 1.109375 18.46875 1.109375 C 15.613281 1.109375 12.96875 0.289062 10.53125 -1.34375 C 8.101562 -2.988281 6.160156 -5.207031 4.703125 -8 C 3.253906 -10.800781 2.53125 -13.816406 2.53125 -17.046875 C 2.53125 -20.691406 3.390625 -24.097656 5.109375 -27.265625 C 6.828125 -30.429688 9.113281 -32.953125 11.96875 -34.828125 C 14.820312 -36.710938 17.882812 -37.65625 21.15625 -37.65625 C 22.695312 -37.65625 24.125 -37.441406 25.4375 -37.015625 C 26.757812 -36.597656 28.132812 -35.882812 29.5625 -34.875 L 29.5625 -46.21875 C 29.5625 -49.539062 28.425781 -51.203125 26.15625 -51.203125 C 25.789062 -51.203125 25.445312 -51.160156 25.125 -51.078125 C 24.8125 -51.003906 24.414062 -50.863281 23.9375 -50.65625 L 23.296875 -52 L 34.71875 -56.828125 Z M 9.671875 -19.890625 C 9.671875 -16.828125 10.238281 -14.039062 11.375 -11.53125 C 12.507812 -9.019531 14.039062 -7.023438 15.96875 -5.546875 C 17.894531 -4.066406 20.023438 -3.328125 22.359375 -3.328125 C 25.210938 -3.328125 27.613281 -4.539062 29.5625 -6.96875 L 29.5625 -24.890625 C 29.5625 -27.585938 29.003906 -29.710938 27.890625 -31.265625 C 26.785156 -32.828125 25.519531 -33.910156 24.09375 -34.515625 C 22.664062 -35.128906 21.375 -35.4375 20.21875 -35.4375 C 18.363281 -35.4375 16.628906 -34.75 15.015625 -33.375 C 13.410156 -32 12.117188 -30.117188 11.140625 -27.734375 C 10.160156 -25.359375 9.671875 -22.742188 9.671875 -19.890625 Z M 9.671875 -19.890625 "/></g></g></g><g fill="#000000" fill-opacity="1"><g transform="translate(935.208007, 342.813237)"><g><path d="M 0.203125 -0.40625 C 0.242188 -0.40625 0.273438 -0.390625 0.296875 -0.359375 C 0.328125 -0.335938 0.34375 -0.296875 0.34375 -0.234375 L 0.078125 -0.234375 C 0.078125 -0.203125 0.0820312 -0.171875 0.09375 -0.140625 C 0.113281 -0.117188 0.132812 -0.0976562 0.15625 -0.078125 C 0.175781 -0.0546875 0.203125 -0.046875 0.234375 -0.046875 C 0.285156 -0.046875 0.316406 -0.078125 0.328125 -0.140625 L 0.34375 -0.140625 C 0.332031 -0.0859375 0.3125 -0.046875 0.28125 -0.015625 C 0.257812 0.00390625 0.226562 0.015625 0.1875 0.015625 C 0.15625 0.015625 0.125 0.00390625 0.09375 -0.015625 C 0.0703125 -0.0351562 0.0546875 -0.0546875 0.046875 -0.078125 C 0.0351562 -0.109375 0.03125 -0.144531 0.03125 -0.1875 C 0.03125 -0.226562 0.0351562 -0.265625 0.046875 -0.296875 C 0.0546875 -0.328125 0.0703125 -0.351562 0.09375 -0.375 C 0.125 -0.394531 0.160156 -0.40625 0.203125 -0.40625 Z M 0.171875 -0.375 C 0.148438 -0.375 0.128906 -0.363281 0.109375 -0.34375 C 0.0976562 -0.332031 0.0859375 -0.304688 0.078125 -0.265625 L 0.265625 -0.265625 C 0.265625 -0.304688 0.253906 -0.332031 0.234375 -0.34375 C 0.222656 -0.363281 0.203125 -0.375 0.171875 -0.375 Z M 0.171875 -0.375 "/></g></g></g></svg>