<svg xmlns="http://www.w3.org/2000/svg" xmlns:xlink="http://www.w3.org/1999/xlink" width="7500" zoomAndPan="magnify" viewBox="0 0 5625 749.999995" height="1000" preserveAspectRatio="xMidYMid meet" version="1.0"><defs><g/><clipPath id="d02a004743"><path d="M 0 0 L 1122 0 L 1122 750 L 0 750 Z M 0 0 " clip-rule="nonzero"/></clipPath><clipPath id="9cdb80da75"><path d="M 1025.042969 0 L 96.296875 0 L 0 96.296875 L 0 653.703125 L 96.296875 750 L 1025.042969 750 L 1121.339844 653.703125 L 1121.339844 96.296875 Z M 1025.042969 0 " clip-rule="nonzero"/></clipPath><clipPath id="50ffd74f26"><path d="M 1124.933594 0 L 2247 0 L 2247 747.183594 L 1124.933594 747.183594 Z M 1124.933594 0 " clip-rule="nonzero"/></clipPath><clipPath id="c1cd86f485"><path d="M 2150.132812 -2.816406 L 1221.230469 -2.816406 L 1124.933594 93.480469 L 1124.933594 650.890625 L 1221.230469 747.183594 L 2150.132812 747.183594 L 2246.429688 650.890625 L 2246.429688 93.480469 Z M 2150.132812 -2.816406 " clip-rule="nonzero"/></clipPath><clipPath id="ec0c890f39"><path d="M 3378.496094 0 L 4500 0 L 4500 747.183594 L 3378.496094 747.183594 Z M 3378.496094 0 " clip-rule="nonzero"/></clipPath><clipPath id="e1bb98b63a"><path d="M 4403.539062 -2.816406 L 3474.792969 -2.816406 L 3378.496094 93.480469 L 3378.496094 650.890625 L 3474.792969 747.183594 L 4403.539062 747.183594 L 4499.835938 650.890625 L 4499.835938 93.480469 Z M 4403.539062 -2.816406 " clip-rule="nonzero"/></clipPath><clipPath id="fa4fa0d69e"><path d="M 2251.753906 12 L 3373.824219 12 L 3373.824219 750 L 2251.753906 750 Z M 2251.753906 12 " clip-rule="nonzero"/></clipPath><clipPath id="39806ab9bb"><path d="M 3276.949219 12 L 2348.046875 12 L 2251.753906 108.296875 L 2251.753906 665.703125 L 2348.046875 762 L 3276.949219 762 L 3373.246094 665.703125 L 3373.246094 108.296875 Z M 3276.949219 12 " clip-rule="nonzero"/></clipPath><clipPath id="229fdceff4"><path d="M 4505.085938 0 L 5625 0 L 5625 747.183594 L 4505.085938 747.183594 Z M 4505.085938 0 " clip-rule="nonzero"/></clipPath><clipPath id="cb85d18b1e"><path d="M 5530.128906 -2.816406 L 4601.382812 -2.816406 L 4505.085938 93.480469 L 4505.085938 650.890625 L 4601.382812 747.183594 L 5530.128906 747.183594 L 5626.425781 650.890625 L 5626.425781 93.480469 Z M 5530.128906 -2.816406 " clip-rule="nonzero"/></clipPath></defs><g clip-path="url(#d02a004743)"><g clip-path="url(#9cdb80da75)"><path fill="#09ac06" d="M 0 0 L 1122.070312 0 L 1122.070312 750 L 0 750 Z M 0 0 " fill-opacity="1" fill-rule="nonzero"/></g></g><g fill="#f9f7f1" fill-opacity="1"><g transform="translate(212.203135, 439.499999)"><g><path d="M 189.90625 -161.703125 L 184.203125 -161.703125 C 182.796875 -173.296875 178.539062 -181.894531 171.4375 -187.5 C 164.34375 -193.101562 153.597656 -195.90625 139.203125 -195.90625 L 74.09375 -195.90625 L 74.09375 -114.59375 L 125.09375 -114.59375 C 135.894531 -114.59375 143.445312 -116.539062 147.75 -120.4375 C 152.050781 -124.34375 154.203125 -130.5 154.203125 -138.90625 L 154.203125 -143.703125 L 159.59375 -143.703125 L 159.59375 -73.5 L 154.203125 -73.5 L 154.203125 -77.09375 C 154.203125 -85.894531 152.097656 -92.34375 147.890625 -96.4375 C 143.691406 -100.539062 137.09375 -102.59375 128.09375 -102.59375 L 74.09375 -102.59375 L 74.09375 -30 C 74.09375 -20.394531 76.492188 -13.894531 81.296875 -10.5 C 86.097656 -7.101562 93.597656 -5.40625 103.796875 -5.40625 L 103.796875 0 L 12.90625 0 L 12.90625 -5.40625 L 14.703125 -5.40625 C 23.703125 -5.40625 30.453125 -7.253906 34.953125 -10.953125 C 39.453125 -14.648438 41.703125 -21.097656 41.703125 -30.296875 L 41.703125 -177.296875 C 41.703125 -185.703125 39.398438 -191.703125 34.796875 -195.296875 C 30.203125 -198.898438 22.90625 -200.703125 12.90625 -200.703125 L 12.90625 -206.09375 L 187.796875 -206.09375 Z M 189.90625 -161.703125 "/></g></g></g><g fill="#f9f7f1" fill-opacity="1"><g transform="translate(412.302795, 439.499999)"><g><path d="M 85.5 -142.5 C 97.300781 -142.5 108.347656 -139.347656 118.640625 -133.046875 C 128.941406 -126.742188 137.144531 -118.34375 143.25 -107.84375 C 149.351562 -97.34375 152.40625 -86.09375 152.40625 -74.09375 C 152.40625 -60.09375 149.101562 -47.09375 142.5 -35.09375 C 135.894531 -23.09375 127.039062 -13.539062 115.9375 -6.4375 C 104.84375 0.65625 93 4.203125 80.40625 4.203125 C 68.40625 4.203125 57.253906 1.050781 46.953125 -5.25 C 36.648438 -11.550781 28.5 -20.050781 22.5 -30.75 C 16.5 -41.445312 13.5 -53.097656 13.5 -65.703125 C 13.5 -79.296875 16.796875 -91.992188 23.390625 -103.796875 C 29.992188 -115.597656 38.84375 -125 49.9375 -132 C 61.039062 -139 72.894531 -142.5 85.5 -142.5 Z M 40.5 -77.703125 C 40.5 -65.898438 42.347656 -54.546875 46.046875 -43.640625 C 49.742188 -32.742188 55.09375 -23.796875 62.09375 -16.796875 C 69.09375 -9.796875 77.492188 -6.296875 87.296875 -6.296875 C 98.703125 -6.296875 107.90625 -11.34375 114.90625 -21.4375 C 121.90625 -31.539062 125.40625 -44.894531 125.40625 -61.5 C 125.40625 -74.695312 123.40625 -86.644531 119.40625 -97.34375 C 115.40625 -108.050781 109.800781 -116.503906 102.59375 -122.703125 C 95.394531 -128.898438 87.195312 -132 78 -132 C 66.601562 -132 57.503906 -127.097656 50.703125 -117.296875 C 43.898438 -107.492188 40.5 -94.296875 40.5 -77.703125 Z M 40.5 -77.703125 "/></g></g></g><g fill="#f9f7f1" fill-opacity="1"><g transform="translate(577.902502, 439.499999)"><g><path d="M 85.5 -142.5 C 97.300781 -142.5 108.347656 -139.347656 118.640625 -133.046875 C 128.941406 -126.742188 137.144531 -118.34375 143.25 -107.84375 C 149.351562 -97.34375 152.40625 -86.09375 152.40625 -74.09375 C 152.40625 -60.09375 149.101562 -47.09375 142.5 -35.09375 C 135.894531 -23.09375 127.039062 -13.539062 115.9375 -6.4375 C 104.84375 0.65625 93 4.203125 80.40625 4.203125 C 68.40625 4.203125 57.253906 1.050781 46.953125 -5.25 C 36.648438 -11.550781 28.5 -20.050781 22.5 -30.75 C 16.5 -41.445312 13.5 -53.097656 13.5 -65.703125 C 13.5 -79.296875 16.796875 -91.992188 23.390625 -103.796875 C 29.992188 -115.597656 38.84375 -125 49.9375 -132 C 61.039062 -139 72.894531 -142.5 85.5 -142.5 Z M 40.5 -77.703125 C 40.5 -65.898438 42.347656 -54.546875 46.046875 -43.640625 C 49.742188 -32.742188 55.09375 -23.796875 62.09375 -16.796875 C 69.09375 -9.796875 77.492188 -6.296875 87.296875 -6.296875 C 98.703125 -6.296875 107.90625 -11.34375 114.90625 -21.4375 C 121.90625 -31.539062 125.40625 -44.894531 125.40625 -61.5 C 125.40625 -74.695312 123.40625 -86.644531 119.40625 -97.34375 C 115.40625 -108.050781 109.800781 -116.503906 102.59375 -122.703125 C 95.394531 -128.898438 87.195312 -132 78 -132 C 66.601562 -132 57.503906 -127.097656 50.703125 -117.296875 C 43.898438 -107.492188 40.5 -94.296875 40.5 -77.703125 Z M 40.5 -77.703125 "/></g></g></g><g fill="#f9f7f1" fill-opacity="1"><g transform="translate(743.502209, 439.499999)"><g><path d="M 136.5 -215.09375 L 136.5 -39.90625 C 136.5 -30.300781 137.546875 -24 139.640625 -21 C 141.742188 -18 145 -16.5 149.40625 -16.5 C 151.40625 -16.5 154.40625 -17.195312 158.40625 -18.59375 L 160.5 -13.796875 L 111.90625 3.59375 L 111.90625 -16.203125 C 105.101562 -9.203125 98.398438 -4.050781 91.796875 -0.75 C 85.203125 2.550781 77.90625 4.203125 69.90625 4.203125 C 59.101562 4.203125 49.097656 1.101562 39.890625 -5.09375 C 30.691406 -11.300781 23.34375 -19.703125 17.84375 -30.296875 C 12.34375 -40.898438 9.59375 -52.300781 9.59375 -64.5 C 9.59375 -78.300781 12.84375 -91.203125 19.34375 -103.203125 C 25.84375 -115.203125 34.492188 -124.75 45.296875 -131.84375 C 56.097656 -138.945312 67.695312 -142.5 80.09375 -142.5 C 85.894531 -142.5 91.296875 -141.695312 96.296875 -140.09375 C 101.296875 -138.5 106.5 -135.800781 111.90625 -132 L 111.90625 -174.90625 C 111.90625 -187.5 107.601562 -193.796875 99 -193.796875 C 97.601562 -193.796875 96.300781 -193.644531 95.09375 -193.34375 C 93.894531 -193.050781 92.394531 -192.503906 90.59375 -191.703125 L 88.203125 -196.796875 L 131.40625 -215.09375 Z M 36.59375 -75.296875 C 36.59375 -63.703125 38.742188 -53.15625 43.046875 -43.65625 C 47.347656 -34.15625 53.148438 -26.601562 60.453125 -21 C 67.753906 -15.394531 75.800781 -12.59375 84.59375 -12.59375 C 95.394531 -12.59375 104.5 -17.195312 111.90625 -26.40625 L 111.90625 -94.203125 C 111.90625 -104.398438 109.800781 -112.445312 105.59375 -118.34375 C 101.394531 -124.25 96.59375 -128.347656 91.1875 -130.640625 C 85.789062 -132.941406 80.894531 -134.09375 76.5 -134.09375 C 69.5 -134.09375 62.945312 -131.492188 56.84375 -126.296875 C 50.75 -121.097656 45.847656 -114 42.140625 -105 C 38.441406 -96 36.59375 -86.097656 36.59375 -75.296875 Z M 36.59375 -75.296875 "/></g></g></g><g clip-path="url(#50ffd74f26)"><g clip-path="url(#c1cd86f485)"><path fill="#9e7049" d="M 1124.933594 -2.816406 L 2247.003906 -2.816406 L 2247.003906 747.183594 L 1124.933594 747.183594 Z M 1124.933594 -2.816406 " fill-opacity="1" fill-rule="nonzero"/></g></g><g fill="#f9f7f1" fill-opacity="1"><g transform="translate(1288.763402, 436.685341)"><g><path d="M 81 -200.703125 C 68.800781 -200.296875 62.703125 -195.894531 62.703125 -187.5 C 62.703125 -184.695312 63.203125 -181.695312 64.203125 -178.5 C 65.203125 -175.300781 67.5 -168.703125 71.09375 -158.703125 L 108.59375 -54.296875 L 109.203125 -54.296875 L 142.203125 -146.09375 L 130.5 -176.703125 C 128.101562 -182.898438 125.953125 -187.546875 124.046875 -190.640625 C 122.148438 -193.742188 119.597656 -196.09375 116.390625 -197.6875 C 113.191406 -199.289062 108.695312 -200.296875 102.90625 -200.703125 L 102.90625 -206.09375 L 184.796875 -206.09375 L 184.796875 -200.703125 C 178.597656 -200.097656 173.648438 -198.742188 169.953125 -196.640625 C 166.253906 -194.546875 164.40625 -191 164.40625 -186 C 164.40625 -179.800781 166.203125 -172.300781 169.796875 -163.5 L 211.796875 -54.296875 L 251.40625 -165.90625 C 253.601562 -171.90625 255 -176.15625 255.59375 -178.65625 C 256.195312 -181.15625 256.5 -183.90625 256.5 -186.90625 C 256.5 -195.90625 249.300781 -200.503906 234.90625 -200.703125 L 234.90625 -206.09375 L 294.59375 -206.09375 L 294.59375 -200.703125 C 287.800781 -200.503906 282.300781 -197.703125 278.09375 -192.296875 C 273.894531 -186.898438 269.195312 -176.800781 264 -162 L 205.203125 4.203125 L 199.5 4.203125 L 149.40625 -127.5 L 101.40625 4.203125 L 96.59375 4.203125 L 31.5 -172.5 C 28.300781 -181.101562 25.453125 -187.300781 22.953125 -191.09375 C 20.453125 -194.894531 17.800781 -197.34375 15 -198.4375 C 12.195312 -199.539062 7.894531 -200.296875 2.09375 -200.703125 L 2.09375 -206.09375 L 81 -206.09375 Z M 81 -200.703125 "/></g></g></g><g fill="#f9f7f1" fill-opacity="1"><g transform="translate(1585.762885, 436.685341)"><g><path d="M 85.5 -142.5 C 97.300781 -142.5 108.347656 -139.347656 118.640625 -133.046875 C 128.941406 -126.742188 137.144531 -118.34375 143.25 -107.84375 C 149.351562 -97.34375 152.40625 -86.09375 152.40625 -74.09375 C 152.40625 -60.09375 149.101562 -47.09375 142.5 -35.09375 C 135.894531 -23.09375 127.039062 -13.539062 115.9375 -6.4375 C 104.84375 0.65625 93 4.203125 80.40625 4.203125 C 68.40625 4.203125 57.253906 1.050781 46.953125 -5.25 C 36.648438 -11.550781 28.5 -20.050781 22.5 -30.75 C 16.5 -41.445312 13.5 -53.097656 13.5 -65.703125 C 13.5 -79.296875 16.796875 -91.992188 23.390625 -103.796875 C 29.992188 -115.597656 38.84375 -125 49.9375 -132 C 61.039062 -139 72.894531 -142.5 85.5 -142.5 Z M 40.5 -77.703125 C 40.5 -65.898438 42.347656 -54.546875 46.046875 -43.640625 C 49.742188 -32.742188 55.09375 -23.796875 62.09375 -16.796875 C 69.09375 -9.796875 77.492188 -6.296875 87.296875 -6.296875 C 98.703125 -6.296875 107.90625 -11.34375 114.90625 -21.4375 C 121.90625 -31.539062 125.40625 -44.894531 125.40625 -61.5 C 125.40625 -74.695312 123.40625 -86.644531 119.40625 -97.34375 C 115.40625 -108.050781 109.800781 -116.503906 102.59375 -122.703125 C 95.394531 -128.898438 87.195312 -132 78 -132 C 66.601562 -132 57.503906 -127.097656 50.703125 -117.296875 C 43.898438 -107.492188 40.5 -94.296875 40.5 -77.703125 Z M 40.5 -77.703125 "/></g></g></g><g fill="#f9f7f1" fill-opacity="1"><g transform="translate(1751.362592, 436.685341)"><g><path d="M 85.5 -142.5 C 97.300781 -142.5 108.347656 -139.347656 118.640625 -133.046875 C 128.941406 -126.742188 137.144531 -118.34375 143.25 -107.84375 C 149.351562 -97.34375 152.40625 -86.09375 152.40625 -74.09375 C 152.40625 -60.09375 149.101562 -47.09375 142.5 -35.09375 C 135.894531 -23.09375 127.039062 -13.539062 115.9375 -6.4375 C 104.84375 0.65625 93 4.203125 80.40625 4.203125 C 68.40625 4.203125 57.253906 1.050781 46.953125 -5.25 C 36.648438 -11.550781 28.5 -20.050781 22.5 -30.75 C 16.5 -41.445312 13.5 -53.097656 13.5 -65.703125 C 13.5 -79.296875 16.796875 -91.992188 23.390625 -103.796875 C 29.992188 -115.597656 38.84375 -125 49.9375 -132 C 61.039062 -139 72.894531 -142.5 85.5 -142.5 Z M 40.5 -77.703125 C 40.5 -65.898438 42.347656 -54.546875 46.046875 -43.640625 C 49.742188 -32.742188 55.09375 -23.796875 62.09375 -16.796875 C 69.09375 -9.796875 77.492188 -6.296875 87.296875 -6.296875 C 98.703125 -6.296875 107.90625 -11.34375 114.90625 -21.4375 C 121.90625 -31.539062 125.40625 -44.894531 125.40625 -61.5 C 125.40625 -74.695312 123.40625 -86.644531 119.40625 -97.34375 C 115.40625 -108.050781 109.800781 -116.503906 102.59375 -122.703125 C 95.394531 -128.898438 87.195312 -132 78 -132 C 66.601562 -132 57.503906 -127.097656 50.703125 -117.296875 C 43.898438 -107.492188 40.5 -94.296875 40.5 -77.703125 Z M 40.5 -77.703125 "/></g></g></g><g fill="#f9f7f1" fill-opacity="1"><g transform="translate(1916.962299, 436.685341)"><g><path d="M 136.5 -215.09375 L 136.5 -39.90625 C 136.5 -30.300781 137.546875 -24 139.640625 -21 C 141.742188 -18 145 -16.5 149.40625 -16.5 C 151.40625 -16.5 154.40625 -17.195312 158.40625 -18.59375 L 160.5 -13.796875 L 111.90625 3.59375 L 111.90625 -16.203125 C 105.101562 -9.203125 98.398438 -4.050781 91.796875 -0.75 C 85.203125 2.550781 77.90625 4.203125 69.90625 4.203125 C 59.101562 4.203125 49.097656 1.101562 39.890625 -5.09375 C 30.691406 -11.300781 23.34375 -19.703125 17.84375 -30.296875 C 12.34375 -40.898438 9.59375 -52.300781 9.59375 -64.5 C 9.59375 -78.300781 12.84375 -91.203125 19.34375 -103.203125 C 25.84375 -115.203125 34.492188 -124.75 45.296875 -131.84375 C 56.097656 -138.945312 67.695312 -142.5 80.09375 -142.5 C 85.894531 -142.5 91.296875 -141.695312 96.296875 -140.09375 C 101.296875 -138.5 106.5 -135.800781 111.90625 -132 L 111.90625 -174.90625 C 111.90625 -187.5 107.601562 -193.796875 99 -193.796875 C 97.601562 -193.796875 96.300781 -193.644531 95.09375 -193.34375 C 93.894531 -193.050781 92.394531 -192.503906 90.59375 -191.703125 L 88.203125 -196.796875 L 131.40625 -215.09375 Z M 36.59375 -75.296875 C 36.59375 -63.703125 38.742188 -53.15625 43.046875 -43.65625 C 47.347656 -34.15625 53.148438 -26.601562 60.453125 -21 C 67.753906 -15.394531 75.800781 -12.59375 84.59375 -12.59375 C 95.394531 -12.59375 104.5 -17.195312 111.90625 -26.40625 L 111.90625 -94.203125 C 111.90625 -104.398438 109.800781 -112.445312 105.59375 -118.34375 C 101.394531 -124.25 96.59375 -128.347656 91.1875 -130.640625 C 85.789062 -132.941406 80.894531 -134.09375 76.5 -134.09375 C 69.5 -134.09375 62.945312 -131.492188 56.84375 -126.296875 C 50.75 -121.097656 45.847656 -114 42.140625 -105 C 38.441406 -96 36.59375 -86.097656 36.59375 -75.296875 Z M 36.59375 -75.296875 "/></g></g></g><g clip-path="url(#ec0c890f39)"><g clip-path="url(#e1bb98b63a)"><path fill="#ba2124" d="M 3378.496094 -2.816406 L 4500.566406 -2.816406 L 4500.566406 747.183594 L 3378.496094 747.183594 Z M 3378.496094 -2.816406 " fill-opacity="1" fill-rule="nonzero"/></g></g><g fill="#f9f7f1" fill-opacity="1"><g transform="translate(3575.091164, 436.685341)"><g><path d="M 75.59375 -210.59375 C 82.394531 -210.59375 88.296875 -209.941406 93.296875 -208.640625 C 98.296875 -207.347656 103.394531 -205.601562 108.59375 -203.40625 C 111.195312 -202.40625 113.75 -201.503906 116.25 -200.703125 C 118.75 -199.898438 121 -199.5 123 -199.5 C 127.800781 -199.5 131.601562 -203.195312 134.40625 -210.59375 L 140.09375 -210.59375 L 140.09375 -142.203125 L 134.40625 -142.203125 C 133.40625 -152.796875 130.253906 -162.441406 124.953125 -171.140625 C 119.648438 -179.847656 113.046875 -186.703125 105.140625 -191.703125 C 97.242188 -196.703125 88.796875 -199.203125 79.796875 -199.203125 C 69.992188 -199.203125 61.59375 -196.25 54.59375 -190.34375 C 47.59375 -184.445312 44.09375 -177.300781 44.09375 -168.90625 C 44.09375 -159.101562 48.894531 -150.601562 58.5 -143.40625 C 65.300781 -138.40625 74.800781 -132.40625 87 -125.40625 C 97.800781 -118.800781 106.800781 -113.097656 114 -108.296875 C 121.195312 -103.492188 127.894531 -98.296875 134.09375 -92.703125 C 139.695312 -87.296875 144.148438 -81.09375 147.453125 -74.09375 C 150.753906 -67.09375 152.40625 -59.894531 152.40625 -52.5 C 152.40625 -42.300781 149.601562 -32.800781 144 -24 C 138.394531 -15.195312 130.742188 -8.242188 121.046875 -3.140625 C 111.347656 1.953125 100.695312 4.5 89.09375 4.5 C 81.695312 4.5 75.148438 3.847656 69.453125 2.546875 C 63.753906 1.242188 57.800781 -0.503906 51.59375 -2.703125 C 44.800781 -5.097656 39.703125 -6.296875 36.296875 -6.296875 C 30.898438 -6.296875 26.800781 -2.695312 24 4.5 L 18.59375 4.5 L 18.59375 -64.796875 L 24 -64.796875 C 27.394531 -46.992188 34.144531 -32.894531 44.25 -22.5 C 54.351562 -12.101562 67.40625 -6.90625 83.40625 -6.90625 C 94.800781 -6.90625 104.195312 -10.003906 111.59375 -16.203125 C 119 -22.398438 122.703125 -30.195312 122.703125 -39.59375 C 122.703125 -44.394531 121.800781 -48.796875 120 -52.796875 C 118.195312 -56.796875 115.195312 -61.097656 111 -65.703125 C 107.195312 -69.703125 101.796875 -74.050781 94.796875 -78.75 C 87.796875 -83.445312 78.5 -89.296875 66.90625 -96.296875 C 57.101562 -102.296875 49.597656 -107.046875 44.390625 -110.546875 C 39.191406 -114.046875 35.296875 -117.097656 32.703125 -119.703125 C 22.503906 -130.097656 17.40625 -142.597656 17.40625 -157.203125 C 17.40625 -167.203125 19.953125 -176.25 25.046875 -184.34375 C 30.148438 -192.445312 37.097656 -198.847656 45.890625 -203.546875 C 54.691406 -208.242188 64.59375 -210.59375 75.59375 -210.59375 Z M 75.59375 -210.59375 "/></g></g></g><g fill="#f9f7f1" fill-opacity="1"><g transform="translate(3740.690886, 436.685341)"><g><path d="M 49.796875 -183.296875 L 54.59375 -183.296875 L 54.59375 -139.203125 L 86.09375 -139.203125 L 86.09375 -129.90625 L 54.59375 -129.90625 L 54.59375 -33.296875 C 54.59375 -28.097656 56.09375 -23.445312 59.09375 -19.34375 C 62.09375 -15.25 66.296875 -13.203125 71.703125 -13.203125 C 75.296875 -13.203125 78.492188 -14.050781 81.296875 -15.75 C 84.097656 -17.445312 87.097656 -20.394531 90.296875 -24.59375 L 96.296875 -24.59375 C 91.097656 -15 85.5 -7.800781 79.5 -3 C 73.5 1.800781 66.5 4.203125 58.5 4.203125 C 49.695312 4.203125 42.742188 0.953125 37.640625 -5.546875 C 32.546875 -12.046875 30 -20.894531 30 -32.09375 L 30 -129.90625 L 8.703125 -129.90625 L 8.703125 -135.90625 C 18.898438 -140.101562 27.5 -146.25 34.5 -154.34375 C 41.5 -162.445312 46.597656 -172.097656 49.796875 -183.296875 Z M 49.796875 -183.296875 "/></g></g></g><g fill="#f9f7f1" fill-opacity="1"><g transform="translate(3840.590718, 436.685341)"><g><path d="M 85.5 -142.5 C 97.300781 -142.5 108.347656 -139.347656 118.640625 -133.046875 C 128.941406 -126.742188 137.144531 -118.34375 143.25 -107.84375 C 149.351562 -97.34375 152.40625 -86.09375 152.40625 -74.09375 C 152.40625 -60.09375 149.101562 -47.09375 142.5 -35.09375 C 135.894531 -23.09375 127.039062 -13.539062 115.9375 -6.4375 C 104.84375 0.65625 93 4.203125 80.40625 4.203125 C 68.40625 4.203125 57.253906 1.050781 46.953125 -5.25 C 36.648438 -11.550781 28.5 -20.050781 22.5 -30.75 C 16.5 -41.445312 13.5 -53.097656 13.5 -65.703125 C 13.5 -79.296875 16.796875 -91.992188 23.390625 -103.796875 C 29.992188 -115.597656 38.84375 -125 49.9375 -132 C 61.039062 -139 72.894531 -142.5 85.5 -142.5 Z M 40.5 -77.703125 C 40.5 -65.898438 42.347656 -54.546875 46.046875 -43.640625 C 49.742188 -32.742188 55.09375 -23.796875 62.09375 -16.796875 C 69.09375 -9.796875 77.492188 -6.296875 87.296875 -6.296875 C 98.703125 -6.296875 107.90625 -11.34375 114.90625 -21.4375 C 121.90625 -31.539062 125.40625 -44.894531 125.40625 -61.5 C 125.40625 -74.695312 123.40625 -86.644531 119.40625 -97.34375 C 115.40625 -108.050781 109.800781 -116.503906 102.59375 -122.703125 C 95.394531 -128.898438 87.195312 -132 78 -132 C 66.601562 -132 57.503906 -127.097656 50.703125 -117.296875 C 43.898438 -107.492188 40.5 -94.296875 40.5 -77.703125 Z M 40.5 -77.703125 "/></g></g></g><g fill="#f9f7f1" fill-opacity="1"><g transform="translate(4006.190447, 436.685341)"><g><path d="M 53.703125 -113.09375 C 64.097656 -124.300781 72.59375 -132.003906 79.1875 -136.203125 C 85.789062 -140.398438 93.09375 -142.5 101.09375 -142.5 C 109.894531 -142.5 116.992188 -140.148438 122.390625 -135.453125 C 127.796875 -130.753906 131.695312 -125.003906 134.09375 -118.203125 C 136.5 -111.398438 137.703125 -104.695312 137.703125 -98.09375 L 137.703125 -31.796875 C 137.703125 -21.597656 139.300781 -14.75 142.5 -11.25 C 145.695312 -7.75 151.195312 -5.800781 159 -5.40625 L 159 0 L 88.796875 0 L 88.796875 -5.40625 C 95.203125 -5.40625 100.101562 -6.101562 103.5 -7.5 C 106.894531 -8.894531 109.34375 -11.441406 110.84375 -15.140625 C 112.34375 -18.847656 113.09375 -24.398438 113.09375 -31.796875 L 113.09375 -99.296875 C 113.09375 -105.703125 110.992188 -111.550781 106.796875 -116.84375 C 102.597656 -122.144531 96.800781 -124.796875 89.40625 -124.796875 C 83.195312 -124.796875 77.289062 -123.144531 71.6875 -119.84375 C 66.09375 -116.550781 60.097656 -111.503906 53.703125 -104.703125 L 53.703125 -31.796875 C 53.703125 -21.398438 55.398438 -14.453125 58.796875 -10.953125 C 62.203125 -7.453125 68.101562 -5.601562 76.5 -5.40625 L 76.5 0 L 7.5 0 L 7.5 -5.40625 C 13.695312 -6 18.296875 -7.09375 21.296875 -8.6875 C 24.296875 -10.289062 26.34375 -12.789062 27.4375 -16.1875 C 28.539062 -19.59375 29.09375 -24.5 29.09375 -30.90625 L 29.09375 -105.59375 C 29.09375 -110.195312 28.09375 -114.195312 26.09375 -117.59375 C 24.09375 -121 20.894531 -122.703125 16.5 -122.703125 C 14.5 -122.703125 12.648438 -122.347656 10.953125 -121.640625 C 9.253906 -120.941406 8.101562 -120.492188 7.5 -120.296875 L 5.40625 -126 L 48.59375 -142.5 L 53.703125 -142.5 Z M 53.703125 -113.09375 "/></g></g></g><g fill="#f9f7f1" fill-opacity="1"><g transform="translate(4171.790154, 436.685341)"><g><path d="M 70.5 -142.5 C 86.101562 -142.5 98.753906 -137.296875 108.453125 -126.890625 C 118.148438 -116.492188 123 -103 123 -86.40625 L 28.796875 -86.40625 L 28.796875 -82.5 C 28.796875 -71.894531 30.894531 -61.742188 35.09375 -52.046875 C 39.300781 -42.347656 45.203125 -34.5 52.796875 -28.5 C 60.398438 -22.5 69 -19.5 78.59375 -19.5 C 97.59375 -19.5 110.894531 -30.097656 118.5 -51.296875 L 123 -48.90625 C 119.800781 -32.5 113.203125 -19.546875 103.203125 -10.046875 C 93.203125 -0.546875 81.203125 4.203125 67.203125 4.203125 C 56.796875 4.203125 47.144531 1.503906 38.25 -3.890625 C 29.351562 -9.296875 22.15625 -17.398438 16.65625 -28.203125 C 11.15625 -39.003906 8.40625 -52.101562 8.40625 -67.5 C 8.40625 -82.300781 11.003906 -95.398438 16.203125 -106.796875 C 21.398438 -118.203125 28.695312 -127.003906 38.09375 -133.203125 C 47.5 -139.398438 58.300781 -142.5 70.5 -142.5 Z M 62.09375 -132 C 53.695312 -132 46.445312 -128.695312 40.34375 -122.09375 C 34.25 -115.5 30.601562 -106.703125 29.40625 -95.703125 L 92.09375 -95.703125 C 91.695312 -106.503906 88.945312 -115.253906 83.84375 -121.953125 C 78.75 -128.648438 71.5 -132 62.09375 -132 Z M 62.09375 -132 "/></g></g></g><g clip-path="url(#fa4fa0d69e)"><g clip-path="url(#39806ab9bb)"><path fill="#4682b4" d="M 2251.753906 12 L 3373.824219 12 L 3373.824219 762 L 2251.753906 762 Z M 2251.753906 12 " fill-opacity="1" fill-rule="nonzero"/></g></g><g fill="#f9f7f1" fill-opacity="1"><g transform="translate(2432.678118, 451.499998)"><g><path d="M 149.09375 -48.59375 L 221.40625 -206.09375 L 284.09375 -206.09375 L 284.09375 -200.703125 L 282 -200.703125 C 272.394531 -200.703125 265.289062 -199 260.6875 -195.59375 C 256.09375 -192.195312 253.796875 -185.695312 253.796875 -176.09375 L 253.796875 -29.703125 C 253.796875 -20.898438 255.992188 -14.648438 260.390625 -10.953125 C 264.796875 -7.253906 272.195312 -5.40625 282.59375 -5.40625 L 284.09375 -5.40625 L 284.09375 0 L 191.09375 0 L 191.09375 -5.40625 L 193.796875 -5.40625 C 203.203125 -5.40625 210.15625 -7.253906 214.65625 -10.953125 C 219.15625 -14.648438 221.40625 -21.097656 221.40625 -30.296875 L 221.40625 -172.796875 L 220.796875 -172.796875 L 141.59375 0 L 136.203125 0 L 57 -172.796875 L 56.40625 -172.796875 L 56.40625 -30 C 56.40625 -20.394531 58.601562 -13.941406 63 -10.640625 C 67.394531 -7.347656 74.796875 -5.601562 85.203125 -5.40625 L 85.203125 0 L 12.90625 0 L 12.90625 -5.40625 L 14.703125 -5.40625 C 24.296875 -5.40625 31.394531 -7.15625 36 -10.65625 C 40.601562 -14.15625 42.90625 -20.703125 42.90625 -30.296875 L 42.90625 -171 C 42.90625 -180.394531 40.503906 -187.441406 35.703125 -192.140625 C 30.898438 -196.847656 23.300781 -199.703125 12.90625 -200.703125 L 12.90625 -206.09375 L 75.90625 -206.09375 Z M 149.09375 -48.59375 "/></g></g></g><g fill="#f9f7f1" fill-opacity="1"><g transform="translate(2729.677601, 451.499998)"><g><path d="M 70.5 -142.5 C 86.101562 -142.5 98.753906 -137.296875 108.453125 -126.890625 C 118.148438 -116.492188 123 -103 123 -86.40625 L 28.796875 -86.40625 L 28.796875 -82.5 C 28.796875 -71.894531 30.894531 -61.742188 35.09375 -52.046875 C 39.300781 -42.347656 45.203125 -34.5 52.796875 -28.5 C 60.398438 -22.5 69 -19.5 78.59375 -19.5 C 97.59375 -19.5 110.894531 -30.097656 118.5 -51.296875 L 123 -48.90625 C 119.800781 -32.5 113.203125 -19.546875 103.203125 -10.046875 C 93.203125 -0.546875 81.203125 4.203125 67.203125 4.203125 C 56.796875 4.203125 47.144531 1.503906 38.25 -3.890625 C 29.351562 -9.296875 22.15625 -17.398438 16.65625 -28.203125 C 11.15625 -39.003906 8.40625 -52.101562 8.40625 -67.5 C 8.40625 -82.300781 11.003906 -95.398438 16.203125 -106.796875 C 21.398438 -118.203125 28.695312 -127.003906 38.09375 -133.203125 C 47.5 -139.398438 58.300781 -142.5 70.5 -142.5 Z M 62.09375 -132 C 53.695312 -132 46.445312 -128.695312 40.34375 -122.09375 C 34.25 -115.5 30.601562 -106.703125 29.40625 -95.703125 L 92.09375 -95.703125 C 91.695312 -106.503906 88.945312 -115.253906 83.84375 -121.953125 C 78.75 -128.648438 71.5 -132 62.09375 -132 Z M 62.09375 -132 "/></g></g></g><g fill="#f9f7f1" fill-opacity="1"><g transform="translate(2861.077377, 451.499998)"><g><path d="M 49.796875 -183.296875 L 54.59375 -183.296875 L 54.59375 -139.203125 L 86.09375 -139.203125 L 86.09375 -129.90625 L 54.59375 -129.90625 L 54.59375 -33.296875 C 54.59375 -28.097656 56.09375 -23.445312 59.09375 -19.34375 C 62.09375 -15.25 66.296875 -13.203125 71.703125 -13.203125 C 75.296875 -13.203125 78.492188 -14.050781 81.296875 -15.75 C 84.097656 -17.445312 87.097656 -20.394531 90.296875 -24.59375 L 96.296875 -24.59375 C 91.097656 -15 85.5 -7.800781 79.5 -3 C 73.5 1.800781 66.5 4.203125 58.5 4.203125 C 49.695312 4.203125 42.742188 0.953125 37.640625 -5.546875 C 32.546875 -12.046875 30 -20.894531 30 -32.09375 L 30 -129.90625 L 8.703125 -129.90625 L 8.703125 -135.90625 C 18.898438 -140.101562 27.5 -146.25 34.5 -154.34375 C 41.5 -162.445312 46.597656 -172.097656 49.796875 -183.296875 Z M 49.796875 -183.296875 "/></g></g></g><g fill="#f9f7f1" fill-opacity="1"><g transform="translate(2960.977199, 451.499998)"><g><path d="M 71.703125 -142.5 C 101.703125 -142.5 116.703125 -130.5 116.703125 -106.5 L 116.703125 -27 C 116.703125 -21.601562 117.5 -18.050781 119.09375 -16.34375 C 120.695312 -14.644531 122.800781 -13.796875 125.40625 -13.796875 C 128.40625 -13.796875 131.203125 -14.644531 133.796875 -16.34375 C 136.398438 -18.050781 140.203125 -21.300781 145.203125 -26.09375 L 145.203125 -18.59375 C 137.597656 -10 131.34375 -4.050781 126.4375 -0.75 C 121.539062 2.550781 116.492188 4.203125 111.296875 4.203125 C 105.492188 4.203125 100.84375 2.15625 97.34375 -1.9375 C 93.84375 -6.039062 92.09375 -12.09375 92.09375 -20.09375 C 83.300781 -11.695312 75.15625 -5.546875 67.65625 -1.640625 C 60.15625 2.253906 52.003906 4.203125 43.203125 4.203125 C 34.398438 4.203125 27 0.90625 21 -5.6875 C 15 -12.289062 12 -20.296875 12 -29.703125 C 12 -45.703125 20.5 -58.101562 37.5 -66.90625 C 53.695312 -75.5 71.894531 -83.394531 92.09375 -90.59375 L 92.09375 -99 C 92.09375 -107 91.539062 -113.398438 90.4375 -118.203125 C 89.34375 -123.003906 86.84375 -126.851562 82.9375 -129.75 C 79.039062 -132.644531 73.09375 -134.09375 65.09375 -134.09375 C 57.300781 -134.09375 51.503906 -132.191406 47.703125 -128.390625 C 43.898438 -124.597656 42 -119.898438 42 -114.296875 L 42.296875 -106.5 C 42.296875 -103.101562 41.195312 -100.300781 39 -98.09375 C 36.800781 -95.894531 34 -94.796875 30.59375 -94.796875 C 26.800781 -94.796875 23.703125 -95.894531 21.296875 -98.09375 C 18.898438 -100.300781 17.703125 -103.40625 17.703125 -107.40625 C 17.703125 -117.40625 22.398438 -125.753906 31.796875 -132.453125 C 41.203125 -139.148438 54.503906 -142.5 71.703125 -142.5 Z M 37.5 -37.5 C 37.5 -30.695312 39.648438 -24.894531 43.953125 -20.09375 C 48.253906 -15.300781 53.601562 -12.90625 60 -12.90625 C 70.195312 -12.90625 80.894531 -17.90625 92.09375 -27.90625 L 92.09375 -82.5 C 78.09375 -76.695312 67.289062 -71.644531 59.6875 -67.34375 C 52.09375 -63.050781 46.492188 -58.601562 42.890625 -54 C 39.296875 -49.394531 37.5 -43.894531 37.5 -37.5 Z M 37.5 -37.5 "/></g></g></g><g fill="#f9f7f1" fill-opacity="1"><g transform="translate(3110.976914, 451.499998)"><g><path d="M 54.296875 -215.09375 L 54.296875 -31.5 C 54.296875 -21.5 55.742188 -14.648438 58.640625 -10.953125 C 61.546875 -7.253906 66.800781 -5.40625 74.40625 -5.40625 L 74.40625 0 L 6.90625 0 L 6.90625 -5.40625 C 12.5 -5.40625 16.894531 -6.003906 20.09375 -7.203125 C 23.300781 -8.398438 25.703125 -10.898438 27.296875 -14.703125 C 28.898438 -18.503906 29.703125 -24.101562 29.703125 -31.5 L 29.703125 -173.40625 C 29.703125 -186.800781 25 -193.5 15.59375 -193.5 C 13 -193.5 10.703125 -193 8.703125 -192 L 6.90625 -197.09375 L 48.90625 -215.09375 Z M 54.296875 -215.09375 "/></g></g></g><g clip-path="url(#229fdceff4)"><g clip-path="url(#cb85d18b1e)"><path fill="#fdd000" d="M 4505.085938 -2.816406 L 5627.15625 -2.816406 L 5627.15625 747.183594 L 4505.085938 747.183594 Z M 4505.085938 -2.816406 " fill-opacity="1" fill-rule="nonzero"/></g></g><g fill="#3d3d3d" fill-opacity="1"><g transform="translate(4736.039234, 436.685341)"><g><path d="M 131.40625 -210.59375 C 142.195312 -210.59375 151.644531 -209.59375 159.75 -207.59375 C 167.851562 -205.59375 176.003906 -202.992188 184.203125 -199.796875 C 190.003906 -197.597656 193.503906 -196.5 194.703125 -196.5 C 197.097656 -196.5 199.195312 -197.695312 201 -200.09375 C 202.800781 -202.5 203.898438 -206 204.296875 -210.59375 L 210 -210.59375 L 215.40625 -144.90625 L 210 -144.90625 C 207.195312 -156.300781 201.796875 -166.097656 193.796875 -174.296875 C 185.796875 -182.492188 176.492188 -188.691406 165.890625 -192.890625 C 155.296875 -197.097656 144.5 -199.203125 133.5 -199.203125 C 118.5 -199.203125 104.695312 -195.453125 92.09375 -187.953125 C 79.5 -180.453125 69.398438 -169.453125 61.796875 -154.953125 C 54.203125 -140.453125 50.40625 -123.101562 50.40625 -102.90625 C 50.40625 -84.300781 54.351562 -67.695312 62.25 -53.09375 C 70.144531 -38.5 80.84375 -27.148438 94.34375 -19.046875 C 107.84375 -10.953125 122.492188 -6.90625 138.296875 -6.90625 C 146.703125 -6.90625 154.503906 -8.050781 161.703125 -10.34375 C 168.898438 -12.644531 176.5 -16.5 184.5 -21.90625 L 184.5 -81.296875 C 184.5 -90.097656 182.195312 -96.25 177.59375 -99.75 C 173 -103.25 165.703125 -105.097656 155.703125 -105.296875 L 155.703125 -110.703125 L 244.203125 -110.703125 L 244.203125 -105.296875 C 236.796875 -104.703125 231.242188 -103.601562 227.546875 -102 C 223.847656 -100.394531 221.148438 -97.59375 219.453125 -93.59375 C 217.753906 -89.59375 216.90625 -83.59375 216.90625 -75.59375 L 216.90625 -17.09375 C 202.300781 -9.09375 189.296875 -3.492188 177.890625 -0.296875 C 166.492188 2.898438 152.5 4.5 135.90625 4.5 C 109.90625 4.5 87.601562 -0.5 69 -10.5 C 50.394531 -20.5 36.394531 -33.25 27 -48.75 C 17.601562 -64.25 12.90625 -80.195312 12.90625 -96.59375 C 12.90625 -117.394531 18.15625 -136.492188 28.65625 -153.890625 C 39.15625 -171.296875 53.453125 -185.097656 71.546875 -195.296875 C 89.648438 -205.492188 109.601562 -210.59375 131.40625 -210.59375 Z M 131.40625 -210.59375 "/></g></g></g><g fill="#3d3d3d" fill-opacity="1"><g transform="translate(4982.938772, 436.685341)"><g><path d="M 85.5 -142.5 C 97.300781 -142.5 108.347656 -139.347656 118.640625 -133.046875 C 128.941406 -126.742188 137.144531 -118.34375 143.25 -107.84375 C 149.351562 -97.34375 152.40625 -86.09375 152.40625 -74.09375 C 152.40625 -60.09375 149.101562 -47.09375 142.5 -35.09375 C 135.894531 -23.09375 127.039062 -13.539062 115.9375 -6.4375 C 104.84375 0.65625 93 4.203125 80.40625 4.203125 C 68.40625 4.203125 57.253906 1.050781 46.953125 -5.25 C 36.648438 -11.550781 28.5 -20.050781 22.5 -30.75 C 16.5 -41.445312 13.5 -53.097656 13.5 -65.703125 C 13.5 -79.296875 16.796875 -91.992188 23.390625 -103.796875 C 29.992188 -115.597656 38.84375 -125 49.9375 -132 C 61.039062 -139 72.894531 -142.5 85.5 -142.5 Z M 40.5 -77.703125 C 40.5 -65.898438 42.347656 -54.546875 46.046875 -43.640625 C 49.742188 -32.742188 55.09375 -23.796875 62.09375 -16.796875 C 69.09375 -9.796875 77.492188 -6.296875 87.296875 -6.296875 C 98.703125 -6.296875 107.90625 -11.34375 114.90625 -21.4375 C 121.90625 -31.539062 125.40625 -44.894531 125.40625 -61.5 C 125.40625 -74.695312 123.40625 -86.644531 119.40625 -97.34375 C 115.40625 -108.050781 109.800781 -116.503906 102.59375 -122.703125 C 95.394531 -128.898438 87.195312 -132 78 -132 C 66.601562 -132 57.503906 -127.097656 50.703125 -117.296875 C 43.898438 -107.492188 40.5 -94.296875 40.5 -77.703125 Z M 40.5 -77.703125 "/></g></g></g><g fill="#3d3d3d" fill-opacity="1"><g transform="translate(5148.538479, 436.685341)"><g><path d="M 54.296875 -215.09375 L 54.296875 -31.5 C 54.296875 -21.5 55.742188 -14.648438 58.640625 -10.953125 C 61.546875 -7.253906 66.800781 -5.40625 74.40625 -5.40625 L 74.40625 0 L 6.90625 0 L 6.90625 -5.40625 C 12.5 -5.40625 16.894531 -6.003906 20.09375 -7.203125 C 23.300781 -8.398438 25.703125 -10.898438 27.296875 -14.703125 C 28.898438 -18.503906 29.703125 -24.101562 29.703125 -31.5 L 29.703125 -173.40625 C 29.703125 -186.800781 25 -193.5 15.59375 -193.5 C 13 -193.5 10.703125 -193 8.703125 -192 L 6.90625 -197.09375 L 48.90625 -215.09375 Z M 54.296875 -215.09375 "/></g></g></g><g fill="#3d3d3d" fill-opacity="1"><g transform="translate(5229.83831, 436.685341)"><g><path d="M 136.5 -215.09375 L 136.5 -39.90625 C 136.5 -30.300781 137.546875 -24 139.640625 -21 C 141.742188 -18 145 -16.5 149.40625 -16.5 C 151.40625 -16.5 154.40625 -17.195312 158.40625 -18.59375 L 160.5 -13.796875 L 111.90625 3.59375 L 111.90625 -16.203125 C 105.101562 -9.203125 98.398438 -4.050781 91.796875 -0.75 C 85.203125 2.550781 77.90625 4.203125 69.90625 4.203125 C 59.101562 4.203125 49.097656 1.101562 39.890625 -5.09375 C 30.691406 -11.300781 23.34375 -19.703125 17.84375 -30.296875 C 12.34375 -40.898438 9.59375 -52.300781 9.59375 -64.5 C 9.59375 -78.300781 12.84375 -91.203125 19.34375 -103.203125 C 25.84375 -115.203125 34.492188 -124.75 45.296875 -131.84375 C 56.097656 -138.945312 67.695312 -142.5 80.09375 -142.5 C 85.894531 -142.5 91.296875 -141.695312 96.296875 -140.09375 C 101.296875 -138.5 106.5 -135.800781 111.90625 -132 L 111.90625 -174.90625 C 111.90625 -187.5 107.601562 -193.796875 99 -193.796875 C 97.601562 -193.796875 96.300781 -193.644531 95.09375 -193.34375 C 93.894531 -193.050781 92.394531 -192.503906 90.59375 -191.703125 L 88.203125 -196.796875 L 131.40625 -215.09375 Z M 36.59375 -75.296875 C 36.59375 -63.703125 38.742188 -53.15625 43.046875 -43.65625 C 47.347656 -34.15625 53.148438 -26.601562 60.453125 -21 C 67.753906 -15.394531 75.800781 -12.59375 84.59375 -12.59375 C 95.394531 -12.59375 104.5 -17.195312 111.90625 -26.40625 L 111.90625 -94.203125 C 111.90625 -104.398438 109.800781 -112.445312 105.59375 -118.34375 C 101.394531 -124.25 96.59375 -128.347656 91.1875 -130.640625 C 85.789062 -132.941406 80.894531 -134.09375 76.5 -134.09375 C 69.5 -134.09375 62.945312 -131.492188 56.84375 -126.296875 C 50.75 -121.097656 45.847656 -114 42.140625 -105 C 38.441406 -96 36.59375 -86.097656 36.59375 -75.296875 Z M 36.59375 -75.296875 "/></g></g></g></svg>