<?xml version="1.0" encoding="UTF-8" standalone="no"?>
<svg
   width="19170.146"
   zoomAndPan="magnify"
   viewBox="0 0 14377.61 1269.1687"
   height="1692.225"
   preserveAspectRatio="xMidYMid"
   version="1.0"
   id="svg89"
   xmlns="http://www.w3.org/2000/svg"
   xmlns:svg="http://www.w3.org/2000/svg">
  <defs
     id="defs10">
    <clipPath
       id="d16632765f">
      <path
         d="M 2.890625,43.121094 H 2853 V 1275.3477 H 2.890625 Z m 0,0"
         clip-rule="nonzero"
         id="path1" />
    </clipPath>
    <clipPath
       id="4af1377781">
      <path
         d="M 178.32422,43.121094 H 2677.6133 c 46.5273,0 91.1523,18.484375 124.0508,51.382812 32.8984,32.902344 51.3828,77.523434 51.3828,124.050784 V 1099.918 c 0,46.5273 -18.4844,91.1484 -51.3828,124.0468 -32.8985,32.8985 -77.5235,51.3829 -124.0508,51.3829 H 178.32422 c -46.52735,0 -91.148439,-18.4844 -124.050782,-51.3829 C 21.375,1191.0664 2.890625,1146.4453 2.890625,1099.918 V 218.55469 C 2.890625,172.02734 21.375,127.40625 54.273438,94.503906 87.175781,61.605469 131.79687,43.121094 178.32422,43.121094 Z m 0,0"
         clip-rule="nonzero"
         id="path2" />
    </clipPath>
    <clipPath
       id="01321371ac">
      <path
         d="M 2894.0352,43.121094 H 5730 V 1275.3477 H 2894.0352 Z m 0,0"
         clip-rule="nonzero"
         id="path3" />
    </clipPath>
    <clipPath
       id="706f554323">
      <path
         d="m 3067.9688,43.121094 h 2487.871 c 96.0586,0 173.9297,77.871096 173.9297,173.933596 v 884.35941 c 0,96.0625 -77.8711,173.9336 -173.9297,173.9336 h -2487.871 c -96.0586,0 -173.9336,-77.8711 -173.9336,-173.9336 V 217.05469 c 0,-96.0625 77.875,-173.933596 173.9336,-173.933596 z m 0,0"
         clip-rule="nonzero"
         id="path4" />
    </clipPath>
    <clipPath
       id="93a7060faf">
      <path
         d="M 8665.1563,43.121094 H 11501 V 1275.3477 H 8665.1563 Z m 0,0"
         clip-rule="nonzero"
         id="path5" />
    </clipPath>
    <clipPath
       id="1e950aa0f0">
      <path
         d="m 8665.1563,217.05469 v 884.35941 c 0,46.1328 18.3242,90.3711 50.9414,122.9882 32.6211,32.6211 76.8593,50.9454 122.9882,50.9454 h 2487.4771 c 46.128,0 90.367,-18.3243 122.988,-50.9454 32.617,-32.6171 50.941,-76.8554 50.941,-122.9882 V 217.05469 c 0,-46.12891 -18.324,-90.3711 -50.941,-122.988284 -32.621,-32.621094 -76.86,-50.945312 -122.988,-50.945312 H 8839.0859 c -46.1289,0 -90.3671,18.324218 -122.9882,50.945312 -32.6172,32.617184 -50.9414,76.859374 -50.9414,122.988284 z m 0,0"
         clip-rule="evenodd"
         id="path6" />
    </clipPath>
    <clipPath
       id="c6dd59feb6">
      <path
         d="M 5770.7617,43.121094 H 8621 V 1275.3477 H 5770.7617 Z m 0,0"
         clip-rule="nonzero"
         id="path7" />
    </clipPath>
    <clipPath
       id="8fdb1a8813">
      <path
         d="M 5770.7617,218.55469 V 1099.918 c 0,96.8867 78.543,175.4297 175.4297,175.4297 h 2499.6914 c 96.8867,0 175.4297,-78.543 175.4297,-175.4297 V 218.55469 c 0,-96.89063 -78.543,-175.433596 -175.4297,-175.433596 H 5946.1914 c -96.8867,0 -175.4297,78.542966 -175.4297,175.433596 z m 0,0"
         clip-rule="evenodd"
         id="path8" />
    </clipPath>
    <clipPath
       id="f0675d5a22">
      <path
         d="M 11545.422,43.121094 H 14381 V 1275.3477 h -2835.578 z m 0,0"
         clip-rule="nonzero"
         id="path9" />
    </clipPath>
    <clipPath
       id="39774f4ae9">
      <path
         d="m 11545.422,217.05469 v 884.35941 c 0,46.1328 18.324,90.3711 50.941,122.9882 32.621,32.6211 76.86,50.9454 122.989,50.9454 h 2487.476 c 46.129,0 90.367,-18.3243 122.988,-50.9454 32.618,-32.6171 50.942,-76.8554 50.942,-122.9882 V 217.05469 c 0,-46.12891 -18.324,-90.3711 -50.942,-122.988284 -32.621,-32.621094 -76.859,-50.945312 -122.988,-50.945312 h -2487.476 c -46.129,0 -90.368,18.324218 -122.989,50.945312 -32.617,32.617184 -50.941,76.859374 -50.941,122.988284 z m 0,0"
         clip-rule="evenodd"
         id="path10" />
    </clipPath>
  </defs>
  <g
     clip-path="url(#d16632765f)"
     id="g12"
     transform="translate(-2.890625,-6.178959)">
    <g
       clip-path="url(#4af1377781)"
       id="g11">
      <path
         fill="#09ac06"
         d="M 2.890625,43.121094 H 2852.4141 V 1275.3477 H 2.890625 Z m 0,0"
         fill-opacity="1"
         fill-rule="nonzero"
         id="path11" />
    </g>
  </g>
  <g
     fill="#f9f7f1"
     fill-opacity="1"
     id="g15"
     transform="translate(-2.890625,-6.178959)">
    <g
       transform="translate(499.12769,832.5629)"
       id="g14">
      <g
         id="g13">
        <path
           d="m 506.20312,-431.03125 h -15.1875 c -3.74218,-30.91406 -15.07421,-53.83594 -34,-68.76562 -18.92968,-14.9375 -47.57812,-22.40625 -85.95312,-22.40625 H 197.51562 v 216.71875 h 135.95313 c 28.78906,0 48.91406,-5.19532 60.375,-15.59375 11.46875,-10.39454 17.20312,-26.78516 17.20312,-49.17188 v -12.79687 h 14.39063 v 187.125 h -14.39063 v -9.59375 c 0,-23.45704 -5.60156,-40.64844 -16.79687,-51.57813 C 383.05078,-268.03125 365.45703,-273.5 341.46875,-273.5 H 197.51562 v 193.53125 c 0,25.59375 6.39454,42.921875 19.1875,51.984375 12.80079,9.0625 32.79688,13.59375 59.98438,13.59375 V 0 H 34.390625 V -14.390625 H 39.1875 c 23.988281,0 41.976562,-4.929687 53.96875,-14.796875 12,-9.863281 18,-27.054688 18,-51.578125 V -472.60937 c 0,-22.39454 -6.13281,-38.39063 -18.390625,-47.98438 -12.261719,-9.59375 -31.71875,-14.39062 -58.375,-14.39062 v -14.40625 H 500.60937 Z m 0,0"
           id="path12" />
      </g>
    </g>
  </g>
  <g
     fill="#f9f7f1"
     fill-opacity="1"
     id="g18"
     transform="translate(-2.890625,-6.178959)">
    <g
       transform="translate(1032.5195,832.5629)"
       id="g17">
      <g
         id="g16">
        <path
           d="m 227.90625,-379.84375 c 31.45703,0 60.91016,8.39844 88.35937,25.1875 27.45704,16.79297 49.31641,39.18359 65.57813,67.17188 16.25781,27.99218 24.39062,57.98046 24.39062,89.96875 0,37.3125 -8.79687,71.96484 -26.39062,103.95312 -17.58594,31.992188 -41.17188,57.449219 -70.76563,76.375 -29.58593,18.925781 -61.17187,28.390625 -94.76562,28.390625 -31.99219,0 -61.71484,-8.398437 -89.17187,-25.1875 C 97.691406,-30.785156 75.96875,-53.445312 59.96875,-81.96875 43.976562,-110.48828 35.984375,-141.53906 35.984375,-175.125 c 0,-36.25781 8.796875,-70.11328 26.390625,-101.5625 17.59375,-31.45703 41.17969,-56.51562 70.76562,-75.17187 29.59375,-18.65625 61.17969,-27.98438 94.76563,-27.98438 z M 107.95313,-207.125 c 0,31.46094 4.92968,61.71875 14.79687,90.78125 9.86328,29.054688 24.125,52.90625 42.78125,71.5625 18.66406,18.65625 41.05469,27.984375 67.17187,27.984375 30.39454,0 54.92188,-13.457031 73.57813,-40.375 18.65625,-26.925781 27.98437,-62.515625 27.98437,-106.765625 0,-35.1875 -5.33593,-67.03906 -16,-95.5625 -10.65625,-28.51953 -25.58593,-51.03906 -44.78125,-67.5625 -19.1875,-16.53125 -41.04296,-24.79687 -65.5625,-24.79687 -30.38671,0 -54.64843,13.0625 -72.78125,39.1875 -18.12499,26.11718 -27.18749,61.29687 -27.18749,105.54687 z m 0,0"
           id="path15" />
      </g>
    </g>
  </g>
  <g
     fill="#f9f7f1"
     fill-opacity="1"
     id="g21"
     transform="translate(-2.890625,-6.178959)">
    <g
       transform="translate(1473.9472,832.5629)"
       id="g20">
      <g
         id="g19">
        <path
           d="m 227.90625,-379.84375 c 31.45703,0 60.91016,8.39844 88.35937,25.1875 27.45704,16.79297 49.31641,39.18359 65.57813,67.17188 16.25781,27.99218 24.39062,57.98046 24.39062,89.96875 0,37.3125 -8.79687,71.96484 -26.39062,103.95312 -17.58594,31.992188 -41.17188,57.449219 -70.76563,76.375 -29.58593,18.925781 -61.17187,28.390625 -94.76562,28.390625 -31.99219,0 -61.71484,-8.398437 -89.17187,-25.1875 C 97.691406,-30.785156 75.96875,-53.445312 59.96875,-81.96875 43.976562,-110.48828 35.984375,-141.53906 35.984375,-175.125 c 0,-36.25781 8.796875,-70.11328 26.390625,-101.5625 17.59375,-31.45703 41.17969,-56.51562 70.76562,-75.17187 29.59375,-18.65625 61.17969,-27.98438 94.76563,-27.98438 z M 107.95313,-207.125 c 0,31.46094 4.92968,61.71875 14.79687,90.78125 9.86328,29.054688 24.125,52.90625 42.78125,71.5625 18.66406,18.65625 41.05469,27.984375 67.17187,27.984375 30.39454,0 54.92188,-13.457031 73.57813,-40.375 18.65625,-26.925781 27.98437,-62.515625 27.98437,-106.765625 0,-35.1875 -5.33593,-67.03906 -16,-95.5625 -10.65625,-28.51953 -25.58593,-51.03906 -44.78125,-67.5625 -19.1875,-16.53125 -41.04296,-24.79687 -65.5625,-24.79687 -30.38671,0 -54.64843,13.0625 -72.78125,39.1875 -18.12499,26.11718 -27.18749,61.29687 -27.18749,105.54687 z m 0,0"
           id="path18" />
      </g>
    </g>
  </g>
  <g
     fill="#f9f7f1"
     fill-opacity="1"
     id="g24"
     transform="translate(-2.890625,-6.178959)">
    <g
       transform="translate(1915.3749,832.5629)"
       id="g23">
      <g
         id="g22">
        <path
           d="m 363.85937,-573.375 v 467.01562 c 0,25.593755 2.79688,42.39063 8.39063,50.39063 5.60156,7.992188 14.26953,11.984375 26,11.984375 5.32031,0 13.31641,-1.863281 23.98437,-5.59375 l 5.59375,12.796875 -129.54687,46.375 V -43.1875 c -18.125,18.667969 -35.98438,32.402344 -53.57813,41.203125 -17.59375,8.789063 -37.05468,13.1875 -58.375,13.1875 -28.79296,0 -55.44921,-8.265625 -79.96874,-24.796875 C 81.835938,-30.125 62.242188,-52.515625 47.578125,-80.765625 32.921875,-109.02344 25.59375,-139.41406 25.59375,-171.9375 c 0,-36.78125 8.660156,-71.16406 25.984375,-103.15625 17.320313,-31.98828 40.378906,-57.44141 69.171875,-76.35937 28.78906,-18.92579 59.71094,-28.39063 92.76562,-28.39063 15.45704,0 29.84766,2.13281 43.17188,6.39063 13.33203,4.26171 27.19531,11.46093 41.59375,21.59375 v -114.35938 c 0,-33.58203 -11.46484,-50.375 -34.39063,-50.375 -3.73046,0 -7.19531,0.40234 -10.39062,1.20313 -3.19922,0.79296 -7.19922,2.25781 -12,4.39062 l -6.39063,-13.59375 115.15625,-48.78125 z M 97.5625,-200.71875 c 0,30.91797 5.72656,59.03906 17.1875,84.35937 11.46875,25.324224 26.92969,45.449224 46.39062,60.375005 19.45704,14.929687 40.91407,22.390625 64.375,22.390625 28.78125,0 53.03516,-12.257812 72.76563,-36.78125 v -180.73437 c 0,-27.1875 -5.60156,-48.64063 -16.79688,-64.35938 -11.1875,-15.72656 -23.98046,-26.65625 -38.375,-32.78125 -14.39843,-6.13281 -27.46093,-9.20312 -39.1875,-9.20312 -18.65625,0 -36.11718,6.93359 -52.375,20.79687 -16.26171,13.85547 -29.32421,32.77734 -39.18749,56.76563 -9.86719,23.99218 -14.79688,50.38281 -14.79688,79.17187 z m 0,0"
           id="path21" />
      </g>
    </g>
  </g>
  <g
     clip-path="url(#01321371ac)"
     id="g26"
     transform="translate(-2.890625,-6.178959)">
    <g
       clip-path="url(#706f554323)"
       id="g25">
      <path
         fill="#9e7049"
         d="m 2894.0352,43.121094 h 2835.082 V 1275.3477 h -2835.082 z m 0,0"
         fill-opacity="1"
         fill-rule="nonzero"
         id="path24" />
    </g>
  </g>
  <g
     fill="#f9f7f1"
     fill-opacity="1"
     id="g29"
     transform="translate(-2.890625,-6.178959)">
    <g
       transform="translate(3253.907,832.5629)"
       id="g28">
      <g
         id="g27">
        <path
           d="m 215.92187,-534.98437 c -32.52343,1.0625 -48.78125,12.79296 -48.78125,35.1875 0,7.46093 1.32813,15.45312 3.98438,23.98437 2.66406,8.53125 8.80078,26.125 18.40625,52.78125 L 289.48437,-144.75 h 1.60938 l 87.95312,-244.70312 -31.1875,-81.5625 c -6.39843,-16.53125 -12.125,-28.92579 -17.1875,-37.1875 -5.0625,-8.25782 -11.85937,-14.51954 -20.39062,-18.78125 -8.53125,-4.26954 -20.52734,-6.9375 -35.98438,-8 v -14.40625 h 218.3125 v 14.40625 c -16.53125,1.59375 -29.73046,5.19531 -39.59375,10.79687 -9.85546,5.59375 -14.78125,15.05469 -14.78125,28.375 0,16.53125 4.79688,36.52734 14.39063,59.98438 L 564.57812,-144.75 670.14062,-442.23437 c 5.86329,-15.98829 9.59375,-27.3125 11.1875,-33.96875 1.60157,-6.66407 2.40625,-14 2.40625,-22 0,-23.98829 -19.19531,-36.25 -57.57812,-36.78125 v -14.40625 h 159.14062 v 14.40625 c -18.125,0.53125 -32.78906,7.99609 -43.98437,22.39062 -11.19922,14.38672 -23.73047,41.30859 -37.59375,80.76563 L 546.98437,11.203125 h -15.1875 L 398.25,-339.85937 270.29687,11.203125 H 257.5 L 83.96875,-459.8125 c -8.53125,-22.92578 -16.132812,-39.45312 -22.796875,-49.57812 -6.65625,-10.13282 -13.71875,-16.66407 -21.1875,-19.59375 -7.46875,-2.9375 -18.933594,-4.9375 -34.390625,-6 v -14.40625 h 210.32812 z m 0,0"
           id="path26" />
      </g>
    </g>
  </g>
  <g
     fill="#f9f7f1"
     fill-opacity="1"
     id="g32"
     transform="translate(-2.890625,-6.178959)">
    <g
       transform="translate(4045.5981,832.5629)"
       id="g31">
      <g
         id="g30">
        <path
           d="m 227.90625,-379.84375 c 31.45703,0 60.91016,8.39844 88.35937,25.1875 27.45704,16.79297 49.31641,39.18359 65.57813,67.17188 16.25781,27.99218 24.39062,57.98046 24.39062,89.96875 0,37.3125 -8.79687,71.96484 -26.39062,103.95312 -17.58594,31.992188 -41.17188,57.449219 -70.76563,76.375 -29.58593,18.925781 -61.17187,28.390625 -94.76562,28.390625 -31.99219,0 -61.71484,-8.398437 -89.17187,-25.1875 C 97.691406,-30.785156 75.96875,-53.445312 59.96875,-81.96875 43.976562,-110.48828 35.984375,-141.53906 35.984375,-175.125 c 0,-36.25781 8.796875,-70.11328 26.390625,-101.5625 17.59375,-31.45703 41.17969,-56.51562 70.76562,-75.17187 29.59375,-18.65625 61.17969,-27.98438 94.76563,-27.98438 z M 107.95313,-207.125 c 0,31.46094 4.92968,61.71875 14.79687,90.78125 9.86328,29.054688 24.125,52.90625 42.78125,71.5625 18.66406,18.65625 41.05469,27.984375 67.17187,27.984375 30.39454,0 54.92188,-13.457031 73.57813,-40.375 18.65625,-26.925781 27.98437,-62.515625 27.98437,-106.765625 0,-35.1875 -5.33593,-67.03906 -16,-95.5625 -10.65625,-28.51953 -25.58593,-51.03906 -44.78125,-67.5625 -19.1875,-16.53125 -41.04296,-24.79687 -65.5625,-24.79687 -30.38671,0 -54.64843,13.0625 -72.78125,39.1875 -18.12499,26.11718 -27.18749,61.29687 -27.18749,105.54687 z m 0,0"
           id="path29" />
      </g>
    </g>
  </g>
  <g
     fill="#f9f7f1"
     fill-opacity="1"
     id="g35"
     transform="translate(-2.890625,-6.178959)">
    <g
       transform="translate(4487.0258,832.5629)"
       id="g34">
      <g
         id="g33">
        <path
           d="m 227.90625,-379.84375 c 31.45703,0 60.91016,8.39844 88.35937,25.1875 27.45704,16.79297 49.31641,39.18359 65.57813,67.17188 16.25781,27.99218 24.39062,57.98046 24.39062,89.96875 0,37.3125 -8.79687,71.96484 -26.39062,103.95312 -17.58594,31.992188 -41.17188,57.449219 -70.76563,76.375 -29.58593,18.925781 -61.17187,28.390625 -94.76562,28.390625 -31.99219,0 -61.71484,-8.398437 -89.17187,-25.1875 C 97.691406,-30.785156 75.96875,-53.445312 59.96875,-81.96875 43.976562,-110.48828 35.984375,-141.53906 35.984375,-175.125 c 0,-36.25781 8.796875,-70.11328 26.390625,-101.5625 17.59375,-31.45703 41.17969,-56.51562 70.76562,-75.17187 29.59375,-18.65625 61.17969,-27.98438 94.76563,-27.98438 z M 107.95313,-207.125 c 0,31.46094 4.92968,61.71875 14.79687,90.78125 9.86328,29.054688 24.125,52.90625 42.78125,71.5625 18.66406,18.65625 41.05469,27.984375 67.17187,27.984375 30.39454,0 54.92188,-13.457031 73.57813,-40.375 18.65625,-26.925781 27.98437,-62.515625 27.98437,-106.765625 0,-35.1875 -5.33593,-67.03906 -16,-95.5625 -10.65625,-28.51953 -25.58593,-51.03906 -44.78125,-67.5625 -19.1875,-16.53125 -41.04296,-24.79687 -65.5625,-24.79687 -30.38671,0 -54.64843,13.0625 -72.78125,39.1875 -18.12499,26.11718 -27.18749,61.29687 -27.18749,105.54687 z m 0,0"
           id="path32" />
      </g>
    </g>
  </g>
  <g
     fill="#f9f7f1"
     fill-opacity="1"
     id="g38"
     transform="translate(-2.890625,-6.178959)">
    <g
       transform="translate(4928.4536,832.5629)"
       id="g37">
      <g
         id="g36">
        <path
           d="m 363.85937,-573.375 v 467.01562 c 0,25.593755 2.79688,42.39063 8.39063,50.39063 5.60156,7.992188 14.26953,11.984375 26,11.984375 5.32031,0 13.31641,-1.863281 23.98437,-5.59375 l 5.59375,12.796875 -129.54687,46.375 V -43.1875 c -18.125,18.667969 -35.98438,32.402344 -53.57813,41.203125 -17.59375,8.789063 -37.05468,13.1875 -58.375,13.1875 -28.79296,0 -55.44921,-8.265625 -79.96874,-24.796875 C 81.835938,-30.125 62.242188,-52.515625 47.578125,-80.765625 32.921875,-109.02344 25.59375,-139.41406 25.59375,-171.9375 c 0,-36.78125 8.660156,-71.16406 25.984375,-103.15625 17.320313,-31.98828 40.378906,-57.44141 69.171875,-76.35937 28.78906,-18.92579 59.71094,-28.39063 92.76562,-28.39063 15.45704,0 29.84766,2.13281 43.17188,6.39063 13.33203,4.26171 27.19531,11.46093 41.59375,21.59375 v -114.35938 c 0,-33.58203 -11.46484,-50.375 -34.39063,-50.375 -3.73046,0 -7.19531,0.40234 -10.39062,1.20313 -3.19922,0.79296 -7.19922,2.25781 -12,4.39062 l -6.39063,-13.59375 115.15625,-48.78125 z M 97.5625,-200.71875 c 0,30.91797 5.72656,59.03906 17.1875,84.35937 11.46875,25.324224 26.92969,45.449224 46.39062,60.375005 19.45704,14.929687 40.91407,22.390625 64.375,22.390625 28.78125,0 53.03516,-12.257812 72.76563,-36.78125 v -180.73437 c 0,-27.1875 -5.60156,-48.64063 -16.79688,-64.35938 -11.1875,-15.72656 -23.98046,-26.65625 -38.375,-32.78125 -14.39843,-6.13281 -27.46093,-9.20312 -39.1875,-9.20312 -18.65625,0 -36.11718,6.93359 -52.375,20.79687 -16.26171,13.85547 -29.32421,32.77734 -39.18749,56.76563 -9.86719,23.99218 -14.79688,50.38281 -14.79688,79.17187 z m 0,0"
           id="path35" />
      </g>
    </g>
  </g>
  <g
     clip-path="url(#93a7060faf)"
     id="g40"
     transform="translate(-2.890625,-6.178959)">
    <g
       clip-path="url(#1e950aa0f0)"
       id="g39">
      <path
         fill="#ba2124"
         d="M 8665.1563,43.121094 H 11500.234 V 1275.3477 H 8665.1563 Z m 0,0"
         fill-opacity="1"
         fill-rule="nonzero"
         id="path38" />
    </g>
  </g>
  <g
     fill="#f9f7f1"
     fill-opacity="1"
     id="g43"
     transform="translate(-2.890625,-6.178959)">
    <g
       transform="translate(9112.39,832.5629)"
       id="g42">
      <g
         id="g41">
        <path
           d="m 201.51562,-561.375 c 18.125,0 33.84766,1.73438 47.17188,5.20313 13.33203,3.46093 26.92969,8.12109 40.79687,13.98437 6.92579,2.66797 13.72266,5.07031 20.39063,7.20313 6.66406,2.125 12.66406,3.1875 18,3.1875 12.78906,0 22.92187,-9.85938 30.39062,-29.57813 h 15.1875 v 182.32813 h -15.1875 c -2.66796,-28.25782 -11.07031,-53.98438 -25.20312,-77.17188 -14.125,-23.19531 -31.71875,-41.45703 -52.78125,-54.78125 -21.05469,-13.33203 -43.57422,-20 -67.5625,-20 -26.125,0 -48.52344,7.86719 -67.1875,23.59375 -18.65625,15.73047 -27.98437,34.79297 -27.98437,57.1875 0,26.11719 12.79687,48.77344 38.39062,67.96875 18.125,13.32422 43.44531,29.32031 75.96875,47.98438 28.78906,17.59375 52.78125,32.78906 71.96875,45.57812 19.19531,12.79297 37.05469,26.65234 53.57812,41.57813 14.92579,14.39843 26.78516,30.92968 35.57813,49.59375 8.80078,18.65625 13.20312,37.85156 13.20312,57.57812 0,27.1875 -7.46484,52.511719 -22.39062,75.96875 -14.92969,23.460938 -35.32031,41.984375 -61.17188,55.578125 C 296.81641,5.203125 268.42578,12 237.5,12 c -19.71875,0 -37.17969,-1.734375 -52.375,-5.203125 -15.1875,-3.46875 -31.04688,-8.132813 -47.57813,-14 -18.12499,-6.394531 -31.71874,-9.59375 -40.781245,-9.59375 C 82.367188,-16.796875 71.4375,-7.195312 63.96875,12 H 49.578125 V -172.73437 H 63.96875 c 9.0625,47.44921 27.054688,85.039058 53.98438,112.76562 26.92578,27.71875 61.71093,41.578125 104.35937,41.578125 30.38281,0 55.44141,-8.257813 75.17187,-24.78125 19.72657,-16.53125 29.59375,-37.328125 29.59375,-62.390625 0,-12.78906 -2.40234,-24.51562 -7.20312,-35.17187 -4.80469,-10.66407 -12.79688,-22.12891 -23.98438,-34.39063 -10.13671,-10.66406 -24.53125,-22.25781 -43.1875,-34.78125 -18.65625,-12.53125 -43.44921,-28.12891 -74.375,-46.79687 -26.125,-15.98829 -46.12109,-28.64454 -59.98437,-37.96875 -13.85547,-9.33204 -24.246094,-17.46875 -31.171875,-24.40625 C 59.972656,-346.79687 46.375,-380.11328 46.375,-419.03125 c 0,-26.65625 6.796875,-50.78125 20.390625,-72.375 13.601563,-21.59375 32.128906,-38.64844 55.578125,-51.17187 23.45703,-12.53125 49.84766,-18.79688 79.17187,-18.79688 z m 0,0"
           id="path40" />
      </g>
    </g>
  </g>
  <g
     fill="#f9f7f1"
     fill-opacity="1"
     id="g46"
     transform="translate(-2.890625,-6.178959)">
    <g
       transform="translate(9553.8177,832.5629)"
       id="g45">
      <g
         id="g44">
        <path
           d="m 132.75,-488.60937 h 12.79687 v 117.54687 h 83.96875 v 24.79688 h -83.96875 v 257.499995 c 0,13.867187 3.99219,26.261719 11.98438,37.1875 8,10.929687 19.19531,16.390625 33.59375,16.390625 9.59375,0 18.11719,-2.265625 25.57812,-6.796875 7.46875,-4.53125 15.46875,-12.394531 24,-23.59375 h 16 c -13.86718,25.59375 -28.79687,44.792969 -44.79687,57.59375 -15.99219,12.789063 -34.64844,19.1875 -55.96875,19.1875 -23.46094,0 -41.98437,-8.664063 -55.57812,-25.984375 C 86.765625,-32.113281 79.96875,-55.707031 79.96875,-85.5625 V -346.26562 H 23.1875 v -16 c 27.1875,-11.1875 50.109375,-27.57813 68.765625,-49.17188 18.664065,-21.59375 32.265625,-47.31641 40.796875,-77.17187 z m 0,0"
           id="path43" />
      </g>
    </g>
  </g>
  <g
     fill="#f9f7f1"
     fill-opacity="1"
     id="g49"
     transform="translate(-2.890625,-6.178959)">
    <g
       transform="translate(9820.1138,832.5629)"
       id="g48">
      <g
         id="g47">
        <path
           d="m 227.90625,-379.84375 c 31.45703,0 60.91016,8.39844 88.35937,25.1875 27.45704,16.79297 49.31641,39.18359 65.57813,67.17188 16.25781,27.99218 24.39062,57.98046 24.39062,89.96875 0,37.3125 -8.79687,71.96484 -26.39062,103.95312 -17.58594,31.992188 -41.17188,57.449219 -70.76563,76.375 -29.58593,18.925781 -61.17187,28.390625 -94.76562,28.390625 -31.99219,0 -61.71484,-8.398437 -89.17187,-25.1875 C 97.691406,-30.785156 75.96875,-53.445312 59.96875,-81.96875 43.976562,-110.48828 35.984375,-141.53906 35.984375,-175.125 c 0,-36.25781 8.796875,-70.11328 26.390625,-101.5625 17.59375,-31.45703 41.17969,-56.51562 70.76562,-75.17187 29.59375,-18.65625 61.17969,-27.98438 94.76563,-27.98438 z M 107.95313,-207.125 c 0,31.46094 4.92968,61.71875 14.79687,90.78125 9.86328,29.054688 24.125,52.90625 42.78125,71.5625 18.66406,18.65625 41.05469,27.984375 67.17187,27.984375 30.39454,0 54.92188,-13.457031 73.57813,-40.375 18.65625,-26.925781 27.98437,-62.515625 27.98437,-106.765625 0,-35.1875 -5.33593,-67.03906 -16,-95.5625 -10.65625,-28.51953 -25.58593,-51.03906 -44.78125,-67.5625 -19.1875,-16.53125 -41.04296,-24.79687 -65.5625,-24.79687 -30.38671,0 -54.64843,13.0625 -72.78125,39.1875 -18.12499,26.11718 -27.18749,61.29687 -27.18749,105.54687 z m 0,0"
           id="path46" />
      </g>
    </g>
  </g>
  <g
     fill="#f9f7f1"
     fill-opacity="1"
     id="g52"
     transform="translate(-2.890625,-6.178959)">
    <g
       transform="translate(10261.542,832.5629)"
       id="g51">
      <g
         id="g50">
        <path
           d="m 143.14062,-301.48437 c 27.72657,-29.85157 50.38282,-50.375 67.96875,-61.5625 17.59375,-11.19532 37.05469,-16.79688 58.39063,-16.79688 23.45703,0 42.37891,6.26563 56.76562,18.79688 14.39454,12.52343 24.78907,27.84375 31.1875,45.96875 6.40625,18.125 9.60938,35.98437 9.60938,53.57812 v 176.734375 c 0,27.1875 4.25781,45.449219 12.78125,54.78125 8.53125,9.324219 23.19141,14.523437 43.98437,15.59375 V 0 h -187.125 v -14.390625 c 17.0625,0 30.125,-1.863281 39.1875,-5.59375 9.0625,-3.738281 15.59375,-10.535156 19.59375,-20.390625 4,-9.863281 6,-24.660156 6,-44.390625 V -264.70312 c 0,-17.05079 -5.60156,-32.64063 -16.79687,-46.76563 -11.19922,-14.13281 -26.65625,-21.20312 -46.375,-21.20312 -16.53125,0 -32.26172,4.40234 -47.1875,13.20312 -14.92969,8.79297 -30.92188,22.25 -47.98438,40.375 v 194.328125 c 0,27.71875 4.53125,46.246094 13.59375,55.578125 9.0625,9.335938 24.78907,14.265625 47.1875,14.796875 V 0 H 19.984375 v -14.390625 c 16.53125,-1.601563 28.789063,-4.535156 36.78125,-8.796875 8,-4.269531 13.460937,-10.9375 16.390625,-20 2.9375,-9.0625 4.40625,-22.125 4.40625,-39.1875 v -199.10937 c 0,-12.25782 -2.667969,-22.92188 -8,-31.98438 -5.324219,-9.07031 -13.851562,-13.60937 -25.578125,-13.60937 -5.335937,0 -10.265625,0.9375 -14.796875,2.8125 -4.53125,1.86718 -7.601562,3.0625 -9.203125,3.59375 l -5.59375,-15.20313 115.156245,-43.96875 h 13.59375 z m 0,0"
           id="path49" />
      </g>
    </g>
  </g>
  <g
     fill="#f9f7f1"
     fill-opacity="1"
     id="g55"
     transform="translate(-2.890625,-6.178959)">
    <g
       transform="translate(10702.969,832.5629)"
       id="g54">
      <g
         id="g53">
        <path
           d="m 187.92187,-379.84375 c 41.58204,0 75.30079,13.85938 101.15625,41.57813 25.86329,27.71875 38.79688,63.70312 38.79688,107.95312 H 76.765625 v 10.40625 c 0,28.25 5.597656,55.30859 16.796875,81.17188 11.19531,25.85546 26.92578,46.777339 47.1875,62.76562 20.25781,15.992188 43.17969,23.984375 68.76562,23.984375 50.64454,0 86.09766,-28.253906 106.35938,-84.765625 l 12,6.40625 c -8.53125,43.710938 -26.125,78.230469 -52.78125,103.5625 -26.65625,25.324219 -58.64844,37.984375 -95.96875,37.984375 -27.71875,0 -53.44531,-7.199219 -77.17187,-21.59375 C 78.234375,-24.785156 59.039062,-46.378906 44.375,-75.171875 29.71875,-103.96094 22.390625,-138.87891 22.390625,-179.92187 c 0,-39.45704 6.925781,-74.37891 20.78125,-104.76563 13.863281,-30.38281 33.320313,-53.83594 58.375005,-70.35937 25.0625,-16.53125 53.85156,-24.79688 86.37499,-24.79688 z m -22.39062,27.98438 c -22.38672,0 -41.71094,8.79687 -57.96875,26.39062 -16.261719,17.59375 -25.992188,41.05469 -29.1875,70.375 H 245.5 c -1.0625,-28.78906 -8.39063,-52.11328 -21.98438,-69.96875 -13.59375,-17.86328 -32.92187,-26.79687 -57.98437,-26.79687 z m 0,0"
           id="path52" />
      </g>
    </g>
  </g>
  <g
     clip-path="url(#c6dd59feb6)"
     id="g57"
     transform="translate(-2.890625,-6.178959)">
    <g
       clip-path="url(#8fdb1a8813)"
       id="g56">
      <path
         fill="#4682b4"
         d="M 5770.7617,43.121094 H 8620.2813 V 1275.3477 H 5770.7617 Z m 0,0"
         fill-opacity="1"
         fill-rule="nonzero"
         id="path55" />
    </g>
  </g>
  <g
     fill="#f9f7f1"
     fill-opacity="1"
     id="g60"
     transform="translate(-2.890625,-6.178959)">
    <g
       transform="translate(6183.6263,832.5629)"
       id="g59">
      <g
         id="g58">
        <path
           d="m 397.4375,-129.54687 192.73437,-419.84375 h 167.125 v 14.40625 h -5.59375 c -25.58593,0 -44.51171,4.53125 -56.78125,13.59375 -12.26171,9.0625 -18.39062,26.38671 -18.39062,51.96875 v 390.249995 c 0,23.460937 5.86328,40.121094 17.59375,49.984375 11.72656,9.867188 31.45703,14.796875 59.1875,14.796875 h 3.98437 V 0 H 509.40625 v -14.390625 h 7.1875 c 25.0625,0 43.58594,-4.929687 55.57812,-14.796875 12,-9.863281 18,-27.054688 18,-51.578125 V -460.625 H 588.5625 L 377.45312,0 H 363.0625 l -211.125,-460.625 h -1.59375 v 380.65625 c 0,25.59375 5.86328,42.792969 17.59375,51.59375 11.72656,8.792969 31.45312,13.453125 59.17187,13.984375 V 0 H 34.390625 V -14.390625 H 39.1875 c 25.582031,0 44.503906,-4.664063 56.765625,-14 12.269535,-9.332031 18.406255,-26.789063 18.406255,-52.375 V -455.82812 c 0,-25.05079 -6.40235,-43.84375 -19.20313,-56.375 -12.792969,-12.53125 -33.046875,-20.125 -60.765625,-22.78125 v -14.40625 H 202.32812 Z m 0,0"
           id="path57" />
      </g>
    </g>
  </g>
  <g
     fill="#f9f7f1"
     fill-opacity="1"
     id="g63"
     transform="translate(-2.890625,-6.178959)">
    <g
       transform="translate(6975.3174,832.5629)"
       id="g62">
      <g
         id="g61">
        <path
           d="m 187.92187,-379.84375 c 41.58204,0 75.30079,13.85938 101.15625,41.57813 25.86329,27.71875 38.79688,63.70312 38.79688,107.95312 H 76.765625 v 10.40625 c 0,28.25 5.597656,55.30859 16.796875,81.17188 11.19531,25.85546 26.92578,46.777339 47.1875,62.76562 20.25781,15.992188 43.17969,23.984375 68.76562,23.984375 50.64454,0 86.09766,-28.253906 106.35938,-84.765625 l 12,6.40625 c -8.53125,43.710938 -26.125,78.230469 -52.78125,103.5625 -26.65625,25.324219 -58.64844,37.984375 -95.96875,37.984375 -27.71875,0 -53.44531,-7.199219 -77.17187,-21.59375 C 78.234375,-24.785156 59.039062,-46.378906 44.375,-75.171875 29.71875,-103.96094 22.390625,-138.87891 22.390625,-179.92187 c 0,-39.45704 6.925781,-74.37891 20.78125,-104.76563 13.863281,-30.38281 33.320313,-53.83594 58.375005,-70.35937 25.0625,-16.53125 53.85156,-24.79688 86.37499,-24.79688 z m -22.39062,27.98438 c -22.38672,0 -41.71094,8.79687 -57.96875,26.39062 -16.261719,17.59375 -25.992188,41.05469 -29.1875,70.375 H 245.5 c -1.0625,-28.78906 -8.39063,-52.11328 -21.98438,-69.96875 -13.59375,-17.86328 -32.92187,-26.79687 -57.98437,-26.79687 z m 0,0"
           id="path60" />
      </g>
    </g>
  </g>
  <g
     fill="#f9f7f1"
     fill-opacity="1"
     id="g66"
     transform="translate(-2.890625,-6.178959)">
    <g
       transform="translate(7325.5807,832.5629)"
       id="g65">
      <g
         id="g64">
        <path
           d="m 132.75,-488.60937 h 12.79687 v 117.54687 h 83.96875 v 24.79688 h -83.96875 v 257.499995 c 0,13.867187 3.99219,26.261719 11.98438,37.1875 8,10.929687 19.19531,16.390625 33.59375,16.390625 9.59375,0 18.11719,-2.265625 25.57812,-6.796875 7.46875,-4.53125 15.46875,-12.394531 24,-23.59375 h 16 c -13.86718,25.59375 -28.79687,44.792969 -44.79687,57.59375 -15.99219,12.789063 -34.64844,19.1875 -55.96875,19.1875 -23.46094,0 -41.98437,-8.664063 -55.57812,-25.984375 C 86.765625,-32.113281 79.96875,-55.707031 79.96875,-85.5625 V -346.26562 H 23.1875 v -16 c 27.1875,-11.1875 50.109375,-27.57813 68.765625,-49.17188 18.664065,-21.59375 32.265625,-47.31641 40.796875,-77.17187 z m 0,0"
           id="path63" />
      </g>
    </g>
  </g>
  <g
     fill="#f9f7f1"
     fill-opacity="1"
     id="g69"
     transform="translate(-2.890625,-6.178959)">
    <g
       transform="translate(7591.8768,832.5629)"
       id="g68">
      <g
         id="g67">
        <path
           d="m 191.125,-379.84375 c 79.96875,0 119.95312,31.98438 119.95312,95.95313 v 211.92187 c 0,14.398438 2.12891,23.859375 6.39063,28.390625 4.26953,4.53125 9.86719,6.796875 16.79687,6.796875 8,0 15.46094,-2.265625 22.39063,-6.796875 6.9375,-4.53125 17.06641,-13.195313 30.39062,-26 v 20 c -20.26171,22.929687 -36.92187,38.792969 -49.98437,47.59375 -13.0625,8.789063 -26.52344,13.1875 -40.375,13.1875 -15.46094,0 -27.85547,-5.464844 -37.1875,-16.390625 -9.33594,-10.9375 -14,-27.066406 -14,-48.390625 -23.46094,22.398437 -45.18359,38.792969 -65.17188,49.1875 -19.99218,10.394531 -41.71484,15.59375 -65.17187,15.59375 -23.460938,0 -43.1875,-8.796875 -59.1875,-26.390625 -15.992188,-17.59375 -23.984375,-38.921875 -23.984375,-63.984375 0,-42.644535 22.65625,-75.695315 67.96875,-99.156245 C 143.14062,-201.25391 191.65625,-222.3125 245.5,-241.5 v -22.39062 c 0,-21.33204 -1.46875,-38.39454 -4.40625,-51.1875 -2.92969,-12.78907 -9.58984,-23.05079 -19.98438,-30.78125 -10.39843,-7.72657 -26.25781,-11.59375 -47.57812,-11.59375 -20.79297,0 -36.25781,5.0625 -46.39062,15.1875 -10.125,10.125 -15.1875,22.65234 -15.1875,37.57812 l 0.79687,20.79688 c 0,9.0625 -2.93359,16.52734 -8.79687,22.39062 -5.867192,5.86719 -13.32813,8.79688 -22.39063,8.79688 -10.125,0 -18.386719,-2.92969 -24.78125,-8.79688 -6.398438,-5.86328 -9.59375,-14.125 -9.59375,-24.78125 0,-26.65625 12.523438,-48.91016 37.578125,-66.76562 25.062505,-17.86329 60.515625,-26.79688 106.359375,-26.79688 z M 99.953125,-99.953125 c 0,18.125 5.726565,33.585937 17.187505,46.375 11.46874,12.792969 25.73437,19.1875 42.79687,19.1875 27.1875,0 55.70703,-13.328125 85.5625,-39.984375 v -145.53125 c -37.3125,15.46094 -66.10156,28.91797 -86.35938,40.375 -20.26171,11.46094 -35.19531,23.32422 -44.79687,35.59375 -9.59375,12.26172 -14.390625,26.92187 -14.390625,43.984375 z m 0,0"
           id="path66" />
      </g>
    </g>
  </g>
  <g
     fill="#f9f7f1"
     fill-opacity="1"
     id="g72"
     transform="translate(-2.890625,-6.178959)">
    <g
       transform="translate(7991.7206,832.5629)"
       id="g71">
      <g
         id="g70">
        <path
           d="m 144.75,-573.375 v 489.40625 c 0,26.65625 3.86328,44.917969 11.59375,54.78125 7.72656,9.867188 21.72266,14.796875 41.98437,14.796875 V 0 H 18.390625 v -14.390625 c 14.925781,0 26.65625,-1.597656 35.1875,-4.796875 8.53125,-3.195312 14.925781,-9.859375 19.1875,-19.984375 4.269531,-10.132813 6.40625,-25.066406 6.40625,-44.796875 v -378.25 c 0,-35.71875 -12.53125,-53.57812 -37.59375,-53.57812 -6.929687,0 -13.058594,1.33593 -18.390625,4 L 18.390625,-525.39062 130.34375,-573.375 Z m 0,0"
           id="path69" />
      </g>
    </g>
  </g>
  <g
     clip-path="url(#f0675d5a22)"
     id="g74"
     transform="translate(-2.890625,-6.178959)">
    <g
       clip-path="url(#39774f4ae9)"
       id="g73">
      <path
         fill="#fdd000"
         d="M 11545.422,43.121094 H 14380.5 V 1275.3477 h -2835.078 z m 0,0"
         fill-opacity="1"
         fill-rule="nonzero"
         id="path72" />
    </g>
  </g>
  <g
     fill="#3d3d3d"
     fill-opacity="1"
     id="g77"
     transform="translate(-2.890625,-6.178959)">
    <g
       transform="translate(12084.225,832.5629)"
       id="g76">
      <g
         id="g75">
        <path
           d="m 350.26562,-561.375 c 28.78907,0 53.97657,2.66797 75.5625,8 21.59375,5.32422 43.32032,12.25 65.1875,20.78125 15.45704,5.86719 24.78516,8.79688 27.98438,8.79688 6.39453,0 11.98828,-3.19532 16.78125,-9.59375 4.80078,-6.39454 7.73828,-15.72266 8.8125,-27.98438 h 15.1875 l 14.39062,175.125 h -14.39062 c -7.46875,-30.38281 -21.86719,-56.50391 -43.1875,-78.35937 -21.32422,-21.86329 -46.11719,-38.39454 -74.375,-49.59375 C 413.96875,-525.39844 385.17969,-531 355.85937,-531 c -39.98046,0 -76.76562,10 -110.35937,30 -33.58594,19.99219 -60.50781,49.3125 -80.76563,87.96875 -20.26171,38.64844 -30.39062,84.89063 -30.39062,138.73438 0,49.58593 10.52344,93.83593 31.57812,132.75 21.0625,38.91796 49.58594,69.17187 85.57813,90.76562 35.98828,21.59375 75.03906,32.390625 117.15625,32.390625 22.39453,0 43.1875,-3.0625 62.375,-9.1875 19.1875,-6.132813 39.44531,-16.398437 60.78125,-30.796875 v -158.34375 c 0,-23.45703 -6.13672,-39.84766 -18.40625,-49.17187 -12.26172,-9.33204 -31.71875,-14.26563 -58.375,-14.79688 v -14.39062 h 235.92187 v 14.39062 c -19.73046,1.59375 -34.52734,4.52734 -44.39062,8.79688 -9.86719,4.26171 -17.0625,11.72656 -21.59375,22.39062 -4.53125,10.65625 -6.79688,26.65234 -6.79688,47.98438 v 155.937495 c -38.91796,21.324219 -73.57421,36.25 -103.96875,44.78125 C 443.81641,7.734375 406.50391,12 362.26562,12 292.95312,12 233.50391,-1.328125 183.92187,-27.984375 134.34766,-54.640625 97.03125,-88.625 71.96875,-129.9375 46.914062,-171.25781 34.390625,-213.78125 34.390625,-257.5 c 0,-55.44531 13.992187,-106.35937 41.984375,-152.73437 27.98828,-46.38282 66.10156,-83.17188 114.34375,-110.35938 48.25,-27.1875 101.42969,-40.78125 159.54687,-40.78125 z m 0,0"
           id="path74" />
      </g>
    </g>
  </g>
  <g
     fill="#3d3d3d"
     fill-opacity="1"
     id="g80"
     transform="translate(-2.890625,-6.178959)">
    <g
       transform="translate(12742.368,832.5629)"
       id="g79">
      <g
         id="g78">
        <path
           d="m 227.90625,-379.84375 c 31.45703,0 60.91016,8.39844 88.35937,25.1875 27.45704,16.79297 49.31641,39.18359 65.57813,67.17188 16.25781,27.99218 24.39062,57.98046 24.39062,89.96875 0,37.3125 -8.79687,71.96484 -26.39062,103.95312 -17.58594,31.992188 -41.17188,57.449219 -70.76563,76.375 -29.58593,18.925781 -61.17187,28.390625 -94.76562,28.390625 -31.99219,0 -61.71484,-8.398437 -89.17187,-25.1875 C 97.691406,-30.785156 75.96875,-53.445312 59.96875,-81.96875 43.976562,-110.48828 35.984375,-141.53906 35.984375,-175.125 c 0,-36.25781 8.796875,-70.11328 26.390625,-101.5625 17.59375,-31.45703 41.17969,-56.51562 70.76562,-75.17187 29.59375,-18.65625 61.17969,-27.98438 94.76563,-27.98438 z M 107.95313,-207.125 c 0,31.46094 4.92968,61.71875 14.79687,90.78125 9.86328,29.054688 24.125,52.90625 42.78125,71.5625 18.66406,18.65625 41.05469,27.984375 67.17187,27.984375 30.39454,0 54.92188,-13.457031 73.57813,-40.375 18.65625,-26.925781 27.98437,-62.515625 27.98437,-106.765625 0,-35.1875 -5.33593,-67.03906 -16,-95.5625 -10.65625,-28.51953 -25.58593,-51.03906 -44.78125,-67.5625 -19.1875,-16.53125 -41.04296,-24.79687 -65.5625,-24.79687 -30.38671,0 -54.64843,13.0625 -72.78125,39.1875 -18.12499,26.11718 -27.18749,61.29687 -27.18749,105.54687 z m 0,0"
           id="path77" />
      </g>
    </g>
  </g>
  <g
     fill="#3d3d3d"
     fill-opacity="1"
     id="g83"
     transform="translate(-2.890625,-6.178959)">
    <g
       transform="translate(13183.796,832.5629)"
       id="g82">
      <g
         id="g81">
        <path
           d="m 144.75,-573.375 v 489.40625 c 0,26.65625 3.86328,44.917969 11.59375,54.78125 7.72656,9.867188 21.72266,14.796875 41.98437,14.796875 V 0 H 18.390625 v -14.390625 c 14.925781,0 26.65625,-1.597656 35.1875,-4.796875 8.53125,-3.195312 14.925781,-9.859375 19.1875,-19.984375 4.269531,-10.132813 6.40625,-25.066406 6.40625,-44.796875 v -378.25 c 0,-35.71875 -12.53125,-53.57812 -37.59375,-53.57812 -6.929687,0 -13.058594,1.33593 -18.390625,4 L 18.390625,-525.39062 130.34375,-573.375 Z m 0,0"
           id="path80" />
      </g>
    </g>
  </g>
  <g
     fill="#3d3d3d"
     fill-opacity="1"
     id="g86"
     transform="translate(-2.890625,-6.178959)">
    <g
       transform="translate(13400.511,832.5629)"
       id="g85">
      <g
         id="g84">
        <path
           d="m 363.85937,-573.375 v 467.01562 c 0,25.593755 2.79688,42.39063 8.39063,50.39063 5.60156,7.992188 14.26953,11.984375 26,11.984375 5.32031,0 13.31641,-1.863281 23.98437,-5.59375 l 5.59375,12.796875 -129.54687,46.375 V -43.1875 c -18.125,18.667969 -35.98438,32.402344 -53.57813,41.203125 -17.59375,8.789063 -37.05468,13.1875 -58.375,13.1875 -28.79296,0 -55.44921,-8.265625 -79.96874,-24.796875 C 81.835938,-30.125 62.242188,-52.515625 47.578125,-80.765625 32.921875,-109.02344 25.59375,-139.41406 25.59375,-171.9375 c 0,-36.78125 8.660156,-71.16406 25.984375,-103.15625 17.320313,-31.98828 40.378906,-57.44141 69.171875,-76.35937 28.78906,-18.92579 59.71094,-28.39063 92.76562,-28.39063 15.45704,0 29.84766,2.13281 43.17188,6.39063 13.33203,4.26171 27.19531,11.46093 41.59375,21.59375 v -114.35938 c 0,-33.58203 -11.46484,-50.375 -34.39063,-50.375 -3.73046,0 -7.19531,0.40234 -10.39062,1.20313 -3.19922,0.79296 -7.19922,2.25781 -12,4.39062 l -6.39063,-13.59375 115.15625,-48.78125 z M 97.5625,-200.71875 c 0,30.91797 5.72656,59.03906 17.1875,84.35937 11.46875,25.324224 26.92969,45.449224 46.39062,60.375005 19.45704,14.929687 40.91407,22.390625 64.375,22.390625 28.78125,0 53.03516,-12.257812 72.76563,-36.78125 v -180.73437 c 0,-27.1875 -5.60156,-48.64063 -16.79688,-64.35938 -11.1875,-15.72656 -23.98046,-26.65625 -38.375,-32.78125 -14.39843,-6.13281 -27.46093,-9.20312 -39.1875,-9.20312 -18.65625,0 -36.11718,6.93359 -52.375,20.79687 -16.26171,13.85547 -29.32421,32.77734 -39.18749,56.76563 -9.86719,23.99218 -14.79688,50.38281 -14.79688,79.17187 z m 0,0"
           id="path83" />
      </g>
    </g>
  </g>
  <g
     fill="#000000"
     fill-opacity="1"
     id="g89"
     transform="translate(-2.890625,-6.178959)">
    <g
       transform="translate(9366.3751,10.303959)"
       id="g88">
      <g
         id="g87">
        <path
           d="m 2.03125,-4.125 c 0.457031,0 0.828125,0.152344 1.109375,0.453125 C 3.421875,-3.367188 3.5625,-2.976562 3.5625,-2.5 H 0.828125 v 0.109375 c 0,0.3125 0.0625,0.609375 0.1875,0.890625 0.125,0.28125 0.296875,0.511719 0.515625,0.6875 0.21875,0.167969 0.460938,0.25 0.734375,0.25 0.550781,0 0.9375,-0.304688 1.15625,-0.921875 L 3.5625,-1.40625 C 3.46875,-0.9375 3.273438,-0.5625 2.984375,-0.28125 2.691406,-0.0078125 2.34375,0.125 1.9375,0.125 1.632812,0.125 1.351562,0.046875 1.09375,-0.109375 0.84375,-0.265625 0.640625,-0.5 0.484375,-0.8125 0.328125,-1.125 0.25,-1.503906 0.25,-1.953125 c 0,-0.425781 0.070312,-0.800781 0.21875,-1.125 0.144531,-0.332031 0.351562,-0.585937 0.625,-0.765625 C 1.375,-4.03125 1.6875,-4.125 2.03125,-4.125 Z m -0.234375,0.3125 c -0.242187,0 -0.449219,0.09375 -0.625,0.28125 -0.179687,0.1875 -0.289063,0.445312 -0.328125,0.765625 h 1.8125 c -0.011719,-0.3125 -0.089844,-0.5625 -0.234375,-0.75 C 2.273438,-3.710938 2.066406,-3.8125 1.796875,-3.8125 Z m 0,0"
           id="path86" />
      </g>
    </g>
  </g>
</svg>
