<svg xmlns="http://www.w3.org/2000/svg" xmlns:xlink="http://www.w3.org/1999/xlink" width="7540" zoomAndPan="magnify" viewBox="0 0 5655 538.499984" height="718" preserveAspectRatio="xMidYMid meet" version="1.0"><defs><g/><clipPath id="15f3a5b455"><path d="M 2.621094 0 L 1122.757812 0 L 1122.757812 538 L 2.621094 538 Z M 2.621094 0 " clip-rule="nonzero"/></clipPath><clipPath id="6a730cfb84"><path d="M 1026.40625 0 L 98.800781 0 L 2.621094 96.179688 L 2.621094 441.824219 L 98.800781 538 L 1026.40625 538 L 1122.585938 441.824219 L 1122.585938 96.179688 Z M 1026.40625 0 " clip-rule="nonzero"/></clipPath><clipPath id="f0ecb3763b"><path d="M 1138.691406 0 L 2253 0 L 2253 538 L 1138.691406 538 Z M 1138.691406 0 " clip-rule="nonzero"/></clipPath><clipPath id="4578c0c9f8"><path d="M 2157.308594 0 L 1234.371094 0 L 1138.691406 95.679688 L 1138.691406 442.324219 L 1234.371094 538 L 2157.308594 538 L 2252.988281 442.324219 L 2252.988281 95.679688 Z M 2157.308594 0 " clip-rule="nonzero"/></clipPath><clipPath id="06b63a46d9"><path d="M 3406.441406 0 L 4521 0 L 4521 538 L 3406.441406 538 Z M 3406.441406 0 " clip-rule="nonzero"/></clipPath><clipPath id="7b87aa065a"><path d="M 4424.902344 0 L 3502.121094 0 L 3406.441406 95.679688 L 3406.441406 442.324219 L 3502.121094 538 L 4424.902344 538 L 4520.582031 442.324219 L 4520.582031 95.679688 Z M 4424.902344 0 " clip-rule="nonzero"/></clipPath><clipPath id="4d479e4770"><path d="M 2269.09375 0 L 3389.230469 0 L 3389.230469 538 L 2269.09375 538 Z M 2269.09375 0 " clip-rule="nonzero"/></clipPath><clipPath id="b77ba2e877"><path d="M 3293.035156 0 L 2365.273438 0 L 2269.09375 96.179688 L 2269.09375 441.824219 L 2365.273438 538 L 3293.035156 538 L 3389.214844 441.824219 L 3389.214844 96.179688 Z M 3293.035156 0 " clip-rule="nonzero"/></clipPath><clipPath id="3f4415a990"><path d="M 4538.238281 0 L 5652.375 0 L 5652.375 538 L 4538.238281 538 Z M 4538.238281 0 " clip-rule="nonzero"/></clipPath><clipPath id="c685b93025"><path d="M 5556.699219 0 L 4633.914062 0 L 4538.238281 95.679688 L 4538.238281 442.324219 L 4633.914062 538 L 5556.699219 538 L 5652.375 442.324219 L 5652.375 95.679688 Z M 5556.699219 0 " clip-rule="nonzero"/></clipPath></defs><g clip-path="url(#15f3a5b455)"><g clip-path="url(#6a730cfb84)"><path fill="#09ac06" d="M 2.621094 0 L 1122.757812 0 L 1122.757812 538 L 2.621094 538 Z M 2.621094 0 " fill-opacity="1" fill-rule="nonzero"/></g></g><g fill="#f9f7f1" fill-opacity="1"><g transform="translate(214.465347, 333.440375)"><g><path d="M 189.71875 -161.546875 L 184.03125 -161.546875 C 182.625 -173.140625 178.375 -181.734375 171.28125 -187.328125 C 164.195312 -192.921875 153.457031 -195.71875 139.0625 -195.71875 L 74.03125 -195.71875 L 74.03125 -114.5 L 124.984375 -114.5 C 135.773438 -114.5 143.316406 -116.445312 147.609375 -120.34375 C 151.910156 -124.238281 154.0625 -130.378906 154.0625 -138.765625 L 154.0625 -143.5625 L 159.453125 -143.5625 L 159.453125 -73.4375 L 154.0625 -73.4375 L 154.0625 -77.03125 C 154.0625 -85.820312 151.960938 -92.265625 147.765625 -96.359375 C 143.566406 -100.453125 136.972656 -102.5 127.984375 -102.5 L 74.03125 -102.5 L 74.03125 -29.96875 C 74.03125 -20.375 76.425781 -13.878906 81.21875 -10.484375 C 86.019531 -7.085938 93.515625 -5.390625 103.703125 -5.390625 L 103.703125 0 L 12.890625 0 L 12.890625 -5.390625 L 14.6875 -5.390625 C 23.675781 -5.390625 30.414062 -7.238281 34.90625 -10.9375 C 39.40625 -14.632812 41.65625 -21.078125 41.65625 -30.265625 L 41.65625 -177.140625 C 41.65625 -185.523438 39.359375 -191.515625 34.765625 -195.109375 C 30.171875 -198.710938 22.878906 -200.515625 12.890625 -200.515625 L 12.890625 -205.90625 L 187.625 -205.90625 Z M 189.71875 -161.546875 "/></g></g></g><g fill="#f9f7f1" fill-opacity="1"><g transform="translate(414.379382, 333.440375)"><g><path d="M 85.421875 -142.359375 C 97.210938 -142.359375 108.25 -139.210938 118.53125 -132.921875 C 128.820312 -126.628906 137.015625 -118.238281 143.109375 -107.75 C 149.203125 -97.257812 152.25 -86.019531 152.25 -74.03125 C 152.25 -60.039062 148.953125 -47.050781 142.359375 -35.0625 C 135.765625 -23.070312 126.921875 -13.53125 115.828125 -6.4375 C 104.742188 0.65625 92.910156 4.203125 80.328125 4.203125 C 68.335938 4.203125 57.195312 1.054688 46.90625 -5.234375 C 36.613281 -11.535156 28.46875 -20.03125 22.46875 -30.71875 C 16.476562 -41.40625 13.484375 -53.046875 13.484375 -65.640625 C 13.484375 -79.222656 16.78125 -91.910156 23.375 -103.703125 C 29.96875 -115.492188 38.804688 -124.882812 49.890625 -131.875 C 60.984375 -138.863281 72.828125 -142.359375 85.421875 -142.359375 Z M 40.46875 -77.625 C 40.46875 -65.832031 42.3125 -54.492188 46 -43.609375 C 49.695312 -32.722656 55.039062 -23.78125 62.03125 -16.78125 C 69.03125 -9.789062 77.425781 -6.296875 87.21875 -6.296875 C 98.601562 -6.296875 107.789062 -11.335938 114.78125 -21.421875 C 121.78125 -31.515625 125.28125 -44.851562 125.28125 -61.4375 C 125.28125 -74.625 123.28125 -86.5625 119.28125 -97.25 C 115.289062 -107.945312 109.695312 -116.390625 102.5 -122.578125 C 95.3125 -128.773438 87.117188 -131.875 77.921875 -131.875 C 66.535156 -131.875 57.445312 -126.976562 50.65625 -117.1875 C 43.863281 -107.394531 40.46875 -94.207031 40.46875 -77.625 Z M 40.46875 -77.625 "/></g></g></g><g fill="#f9f7f1" fill-opacity="1"><g transform="translate(579.825468, 333.440375)"><g><path d="M 85.421875 -142.359375 C 97.210938 -142.359375 108.25 -139.210938 118.53125 -132.921875 C 128.820312 -126.628906 137.015625 -118.238281 143.109375 -107.75 C 149.203125 -97.257812 152.25 -86.019531 152.25 -74.03125 C 152.25 -60.039062 148.953125 -47.050781 142.359375 -35.0625 C 135.765625 -23.070312 126.921875 -13.53125 115.828125 -6.4375 C 104.742188 0.65625 92.910156 4.203125 80.328125 4.203125 C 68.335938 4.203125 57.195312 1.054688 46.90625 -5.234375 C 36.613281 -11.535156 28.46875 -20.03125 22.46875 -30.71875 C 16.476562 -41.40625 13.484375 -53.046875 13.484375 -65.640625 C 13.484375 -79.222656 16.78125 -91.910156 23.375 -103.703125 C 29.96875 -115.492188 38.804688 -124.882812 49.890625 -131.875 C 60.984375 -138.863281 72.828125 -142.359375 85.421875 -142.359375 Z M 40.46875 -77.625 C 40.46875 -65.832031 42.3125 -54.492188 46 -43.609375 C 49.695312 -32.722656 55.039062 -23.78125 62.03125 -16.78125 C 69.03125 -9.789062 77.425781 -6.296875 87.21875 -6.296875 C 98.601562 -6.296875 107.789062 -11.335938 114.78125 -21.421875 C 121.78125 -31.515625 125.28125 -44.851562 125.28125 -61.4375 C 125.28125 -74.625 123.28125 -86.5625 119.28125 -97.25 C 115.289062 -107.945312 109.695312 -116.390625 102.5 -122.578125 C 95.3125 -128.773438 87.117188 -131.875 77.921875 -131.875 C 66.535156 -131.875 57.445312 -126.976562 50.65625 -117.1875 C 43.863281 -107.394531 40.46875 -94.207031 40.46875 -77.625 Z M 40.46875 -77.625 "/></g></g></g><g fill="#f9f7f1" fill-opacity="1"><g transform="translate(745.271553, 333.440375)"><g><path d="M 136.375 -214.890625 L 136.375 -39.859375 C 136.375 -30.265625 137.421875 -23.96875 139.515625 -20.96875 C 141.617188 -17.976562 144.867188 -16.484375 149.265625 -16.484375 C 151.253906 -16.484375 154.25 -17.179688 158.25 -18.578125 L 160.34375 -13.78125 L 111.796875 3.59375 L 111.796875 -16.1875 C 105.003906 -9.1875 98.3125 -4.035156 91.71875 -0.734375 C 85.125 2.554688 77.828125 4.203125 69.828125 4.203125 C 59.046875 4.203125 49.054688 1.101562 39.859375 -5.09375 C 30.671875 -11.289062 23.328125 -19.679688 17.828125 -30.265625 C 12.335938 -40.859375 9.59375 -52.25 9.59375 -64.4375 C 9.59375 -78.226562 12.835938 -91.117188 19.328125 -103.109375 C 25.828125 -115.097656 34.46875 -124.632812 45.25 -131.71875 C 56.039062 -138.8125 67.632812 -142.359375 80.03125 -142.359375 C 85.820312 -142.359375 91.210938 -141.5625 96.203125 -139.96875 C 101.203125 -138.375 106.398438 -135.675781 111.796875 -131.875 L 111.796875 -174.734375 C 111.796875 -187.328125 107.5 -193.625 98.90625 -193.625 C 97.507812 -193.625 96.210938 -193.472656 95.015625 -193.171875 C 93.816406 -192.867188 92.316406 -192.316406 90.515625 -191.515625 L 88.125 -196.609375 L 131.28125 -214.890625 Z M 36.5625 -75.234375 C 36.5625 -63.640625 38.707031 -53.097656 43 -43.609375 C 47.300781 -34.117188 53.097656 -26.578125 60.390625 -20.984375 C 67.679688 -15.390625 75.722656 -12.59375 84.515625 -12.59375 C 95.304688 -12.59375 104.398438 -17.1875 111.796875 -26.375 L 111.796875 -94.109375 C 111.796875 -104.296875 109.695312 -112.335938 105.5 -118.234375 C 101.300781 -124.128906 96.503906 -128.222656 91.109375 -130.515625 C 85.710938 -132.816406 80.816406 -133.96875 76.421875 -133.96875 C 69.429688 -133.96875 62.890625 -131.367188 56.796875 -126.171875 C 50.703125 -120.984375 45.804688 -113.894531 42.109375 -104.90625 C 38.410156 -95.914062 36.5625 -86.023438 36.5625 -75.234375 Z M 36.5625 -75.234375 "/></g></g></g><g clip-path="url(#f0ecb3763b)"><g clip-path="url(#4578c0c9f8)"><path fill="#9e7049" d="M 1138.691406 0 L 2252.519531 0 L 2252.519531 538 L 1138.691406 538 Z M 1138.691406 0 " fill-opacity="1" fill-rule="nonzero"/></g></g><g fill="#f9f7f1" fill-opacity="1"><g transform="translate(1299.289144, 333.440375)"><g><path d="M 80.921875 -200.515625 C 68.734375 -200.109375 62.640625 -195.710938 62.640625 -187.328125 C 62.640625 -184.523438 63.140625 -181.523438 64.140625 -178.328125 C 65.140625 -175.128906 67.4375 -168.535156 71.03125 -158.546875 L 108.5 -54.25 L 109.09375 -54.25 L 142.0625 -145.96875 L 130.375 -176.53125 C 127.976562 -182.726562 125.832031 -187.375 123.9375 -190.46875 C 122.039062 -193.5625 119.492188 -195.90625 116.296875 -197.5 C 113.097656 -199.101562 108.597656 -200.109375 102.796875 -200.515625 L 102.796875 -205.90625 L 184.625 -205.90625 L 184.625 -200.515625 C 178.425781 -199.910156 173.476562 -198.554688 169.78125 -196.453125 C 166.09375 -194.359375 164.25 -190.816406 164.25 -185.828125 C 164.25 -179.628906 166.046875 -172.132812 169.640625 -163.34375 L 211.59375 -54.25 L 251.171875 -165.75 C 253.367188 -171.738281 254.765625 -175.984375 255.359375 -178.484375 C 255.960938 -180.984375 256.265625 -183.726562 256.265625 -186.71875 C 256.265625 -195.71875 249.070312 -200.316406 234.6875 -200.515625 L 234.6875 -205.90625 L 294.328125 -205.90625 L 294.328125 -200.515625 C 287.535156 -200.316406 282.039062 -197.519531 277.84375 -192.125 C 273.644531 -186.726562 268.945312 -176.632812 263.75 -161.84375 L 205 4.203125 L 199.3125 4.203125 L 149.265625 -127.375 L 101.3125 4.203125 L 96.515625 4.203125 L 31.46875 -172.34375 C 28.269531 -180.925781 25.421875 -187.113281 22.921875 -190.90625 C 20.429688 -194.707031 17.785156 -197.15625 14.984375 -198.25 C 12.191406 -199.351562 7.894531 -200.109375 2.09375 -200.515625 L 2.09375 -205.90625 L 80.921875 -205.90625 Z M 80.921875 -200.515625 "/></g></g></g><g fill="#f9f7f1" fill-opacity="1"><g transform="translate(1596.013111, 333.440375)"><g><path d="M 85.421875 -142.359375 C 97.210938 -142.359375 108.25 -139.210938 118.53125 -132.921875 C 128.820312 -126.628906 137.015625 -118.238281 143.109375 -107.75 C 149.203125 -97.257812 152.25 -86.019531 152.25 -74.03125 C 152.25 -60.039062 148.953125 -47.050781 142.359375 -35.0625 C 135.765625 -23.070312 126.921875 -13.53125 115.828125 -6.4375 C 104.742188 0.65625 92.910156 4.203125 80.328125 4.203125 C 68.335938 4.203125 57.195312 1.054688 46.90625 -5.234375 C 36.613281 -11.535156 28.46875 -20.03125 22.46875 -30.71875 C 16.476562 -41.40625 13.484375 -53.046875 13.484375 -65.640625 C 13.484375 -79.222656 16.78125 -91.910156 23.375 -103.703125 C 29.96875 -115.492188 38.804688 -124.882812 49.890625 -131.875 C 60.984375 -138.863281 72.828125 -142.359375 85.421875 -142.359375 Z M 40.46875 -77.625 C 40.46875 -65.832031 42.3125 -54.492188 46 -43.609375 C 49.695312 -32.722656 55.039062 -23.78125 62.03125 -16.78125 C 69.03125 -9.789062 77.425781 -6.296875 87.21875 -6.296875 C 98.601562 -6.296875 107.789062 -11.335938 114.78125 -21.421875 C 121.78125 -31.515625 125.28125 -44.851562 125.28125 -61.4375 C 125.28125 -74.625 123.28125 -86.5625 119.28125 -97.25 C 115.289062 -107.945312 109.695312 -116.390625 102.5 -122.578125 C 95.3125 -128.773438 87.117188 -131.875 77.921875 -131.875 C 66.535156 -131.875 57.445312 -126.976562 50.65625 -117.1875 C 43.863281 -107.394531 40.46875 -94.207031 40.46875 -77.625 Z M 40.46875 -77.625 "/></g></g></g><g fill="#f9f7f1" fill-opacity="1"><g transform="translate(1761.459197, 333.440375)"><g><path d="M 85.421875 -142.359375 C 97.210938 -142.359375 108.25 -139.210938 118.53125 -132.921875 C 128.820312 -126.628906 137.015625 -118.238281 143.109375 -107.75 C 149.203125 -97.257812 152.25 -86.019531 152.25 -74.03125 C 152.25 -60.039062 148.953125 -47.050781 142.359375 -35.0625 C 135.765625 -23.070312 126.921875 -13.53125 115.828125 -6.4375 C 104.742188 0.65625 92.910156 4.203125 80.328125 4.203125 C 68.335938 4.203125 57.195312 1.054688 46.90625 -5.234375 C 36.613281 -11.535156 28.46875 -20.03125 22.46875 -30.71875 C 16.476562 -41.40625 13.484375 -53.046875 13.484375 -65.640625 C 13.484375 -79.222656 16.78125 -91.910156 23.375 -103.703125 C 29.96875 -115.492188 38.804688 -124.882812 49.890625 -131.875 C 60.984375 -138.863281 72.828125 -142.359375 85.421875 -142.359375 Z M 40.46875 -77.625 C 40.46875 -65.832031 42.3125 -54.492188 46 -43.609375 C 49.695312 -32.722656 55.039062 -23.78125 62.03125 -16.78125 C 69.03125 -9.789062 77.425781 -6.296875 87.21875 -6.296875 C 98.601562 -6.296875 107.789062 -11.335938 114.78125 -21.421875 C 121.78125 -31.515625 125.28125 -44.851562 125.28125 -61.4375 C 125.28125 -74.625 123.28125 -86.5625 119.28125 -97.25 C 115.289062 -107.945312 109.695312 -116.390625 102.5 -122.578125 C 95.3125 -128.773438 87.117188 -131.875 77.921875 -131.875 C 66.535156 -131.875 57.445312 -126.976562 50.65625 -117.1875 C 43.863281 -107.394531 40.46875 -94.207031 40.46875 -77.625 Z M 40.46875 -77.625 "/></g></g></g><g fill="#f9f7f1" fill-opacity="1"><g transform="translate(1926.905282, 333.440375)"><g><path d="M 136.375 -214.890625 L 136.375 -39.859375 C 136.375 -30.265625 137.421875 -23.96875 139.515625 -20.96875 C 141.617188 -17.976562 144.867188 -16.484375 149.265625 -16.484375 C 151.253906 -16.484375 154.25 -17.179688 158.25 -18.578125 L 160.34375 -13.78125 L 111.796875 3.59375 L 111.796875 -16.1875 C 105.003906 -9.1875 98.3125 -4.035156 91.71875 -0.734375 C 85.125 2.554688 77.828125 4.203125 69.828125 4.203125 C 59.046875 4.203125 49.054688 1.101562 39.859375 -5.09375 C 30.671875 -11.289062 23.328125 -19.679688 17.828125 -30.265625 C 12.335938 -40.859375 9.59375 -52.25 9.59375 -64.4375 C 9.59375 -78.226562 12.835938 -91.117188 19.328125 -103.109375 C 25.828125 -115.097656 34.46875 -124.632812 45.25 -131.71875 C 56.039062 -138.8125 67.632812 -142.359375 80.03125 -142.359375 C 85.820312 -142.359375 91.210938 -141.5625 96.203125 -139.96875 C 101.203125 -138.375 106.398438 -135.675781 111.796875 -131.875 L 111.796875 -174.734375 C 111.796875 -187.328125 107.5 -193.625 98.90625 -193.625 C 97.507812 -193.625 96.210938 -193.472656 95.015625 -193.171875 C 93.816406 -192.867188 92.316406 -192.316406 90.515625 -191.515625 L 88.125 -196.609375 L 131.28125 -214.890625 Z M 36.5625 -75.234375 C 36.5625 -63.640625 38.707031 -53.097656 43 -43.609375 C 47.300781 -34.117188 53.097656 -26.578125 60.390625 -20.984375 C 67.679688 -15.390625 75.722656 -12.59375 84.515625 -12.59375 C 95.304688 -12.59375 104.398438 -17.1875 111.796875 -26.375 L 111.796875 -94.109375 C 111.796875 -104.296875 109.695312 -112.335938 105.5 -118.234375 C 101.300781 -124.128906 96.503906 -128.222656 91.109375 -130.515625 C 85.710938 -132.816406 80.816406 -133.96875 76.421875 -133.96875 C 69.429688 -133.96875 62.890625 -131.367188 56.796875 -126.171875 C 50.703125 -120.984375 45.804688 -113.894531 42.109375 -104.90625 C 38.410156 -95.914062 36.5625 -86.023438 36.5625 -75.234375 Z M 36.5625 -75.234375 "/></g></g></g><g clip-path="url(#06b63a46d9)"><g clip-path="url(#7b87aa065a)"><path fill="#ba2124" d="M 3406.441406 0 L 4520.269531 0 L 4520.269531 538 L 3406.441406 538 Z M 3406.441406 0 " fill-opacity="1" fill-rule="nonzero"/></g></g><g fill="#f9f7f1" fill-opacity="1"><g transform="translate(3599.773554, 333.440375)"><g><path d="M 75.53125 -210.40625 C 82.320312 -210.40625 88.210938 -209.753906 93.203125 -208.453125 C 98.203125 -207.148438 103.300781 -205.398438 108.5 -203.203125 C 111.09375 -202.203125 113.640625 -201.300781 116.140625 -200.5 C 118.640625 -199.707031 120.890625 -199.3125 122.890625 -199.3125 C 127.679688 -199.3125 131.476562 -203.007812 134.28125 -210.40625 L 139.96875 -210.40625 L 139.96875 -142.0625 L 134.28125 -142.0625 C 133.28125 -152.65625 130.128906 -162.296875 124.828125 -170.984375 C 119.535156 -179.679688 112.941406 -186.523438 105.046875 -191.515625 C 97.160156 -196.515625 88.71875 -199.015625 79.71875 -199.015625 C 69.925781 -199.015625 61.535156 -196.066406 54.546875 -190.171875 C 47.554688 -184.273438 44.0625 -177.128906 44.0625 -168.734375 C 44.0625 -158.953125 48.851562 -150.460938 58.4375 -143.265625 C 65.238281 -138.265625 74.734375 -132.269531 86.921875 -125.28125 C 97.710938 -118.6875 106.703125 -112.988281 113.890625 -108.1875 C 121.085938 -103.394531 127.78125 -98.203125 133.96875 -92.609375 C 139.5625 -87.210938 144.003906 -81.019531 147.296875 -74.03125 C 150.597656 -67.039062 152.25 -59.847656 152.25 -52.453125 C 152.25 -42.265625 149.453125 -32.773438 143.859375 -23.984375 C 138.265625 -15.191406 130.625 -8.242188 120.9375 -3.140625 C 111.25 1.953125 100.609375 4.5 89.015625 4.5 C 81.617188 4.5 75.070312 3.847656 69.375 2.546875 C 63.6875 1.242188 57.742188 -0.503906 51.546875 -2.703125 C 44.753906 -5.097656 39.660156 -6.296875 36.265625 -6.296875 C 30.867188 -6.296875 26.773438 -2.695312 23.984375 4.5 L 18.578125 4.5 L 18.578125 -64.734375 L 23.984375 -64.734375 C 27.378906 -46.953125 34.117188 -32.863281 44.203125 -22.46875 C 54.296875 -12.082031 67.335938 -6.890625 83.328125 -6.890625 C 94.710938 -6.890625 104.097656 -9.984375 111.484375 -16.171875 C 118.878906 -22.367188 122.578125 -30.164062 122.578125 -39.5625 C 122.578125 -44.351562 121.675781 -48.75 119.875 -52.75 C 118.082031 -56.75 115.085938 -61.046875 110.890625 -65.640625 C 107.097656 -69.628906 101.703125 -73.972656 94.703125 -78.671875 C 87.710938 -83.367188 78.425781 -89.210938 66.84375 -96.203125 C 57.050781 -102.203125 49.554688 -106.945312 44.359375 -110.4375 C 39.160156 -113.9375 35.265625 -116.988281 32.671875 -119.59375 C 22.484375 -129.976562 17.390625 -142.460938 17.390625 -157.046875 C 17.390625 -167.035156 19.9375 -176.078125 25.03125 -184.171875 C 30.125 -192.265625 37.066406 -198.660156 45.859375 -203.359375 C 54.648438 -208.054688 64.539062 -210.40625 75.53125 -210.40625 Z M 75.53125 -210.40625 "/></g></g></g><g fill="#f9f7f1" fill-opacity="1"><g transform="translate(3765.219654, 333.440375)"><g><path d="M 49.75 -183.125 L 54.546875 -183.125 L 54.546875 -139.0625 L 86.015625 -139.0625 L 86.015625 -129.78125 L 54.546875 -129.78125 L 54.546875 -33.265625 C 54.546875 -28.066406 56.046875 -23.421875 59.046875 -19.328125 C 62.046875 -15.234375 66.238281 -13.1875 71.625 -13.1875 C 75.226562 -13.1875 78.425781 -14.035156 81.21875 -15.734375 C 84.019531 -17.429688 87.019531 -20.378906 90.21875 -24.578125 L 96.203125 -24.578125 C 91.015625 -14.984375 85.421875 -7.785156 79.421875 -2.984375 C 73.429688 1.804688 66.4375 4.203125 58.4375 4.203125 C 49.644531 4.203125 42.703125 0.957031 37.609375 -5.53125 C 32.515625 -12.03125 29.96875 -20.875 29.96875 -32.0625 L 29.96875 -129.78125 L 8.6875 -129.78125 L 8.6875 -135.765625 C 18.882812 -139.960938 27.476562 -146.109375 34.46875 -154.203125 C 41.457031 -162.296875 46.550781 -171.9375 49.75 -183.125 Z M 49.75 -183.125 "/></g></g></g><g fill="#f9f7f1" fill-opacity="1"><g transform="translate(3865.026813, 333.440375)"><g><path d="M 85.421875 -142.359375 C 97.210938 -142.359375 108.25 -139.210938 118.53125 -132.921875 C 128.820312 -126.628906 137.015625 -118.238281 143.109375 -107.75 C 149.203125 -97.257812 152.25 -86.019531 152.25 -74.03125 C 152.25 -60.039062 148.953125 -47.050781 142.359375 -35.0625 C 135.765625 -23.070312 126.921875 -13.53125 115.828125 -6.4375 C 104.742188 0.65625 92.910156 4.203125 80.328125 4.203125 C 68.335938 4.203125 57.195312 1.054688 46.90625 -5.234375 C 36.613281 -11.535156 28.46875 -20.03125 22.46875 -30.71875 C 16.476562 -41.40625 13.484375 -53.046875 13.484375 -65.640625 C 13.484375 -79.222656 16.78125 -91.910156 23.375 -103.703125 C 29.96875 -115.492188 38.804688 -124.882812 49.890625 -131.875 C 60.984375 -138.863281 72.828125 -142.359375 85.421875 -142.359375 Z M 40.46875 -77.625 C 40.46875 -65.832031 42.3125 -54.492188 46 -43.609375 C 49.695312 -32.722656 55.039062 -23.78125 62.03125 -16.78125 C 69.03125 -9.789062 77.425781 -6.296875 87.21875 -6.296875 C 98.601562 -6.296875 107.789062 -11.335938 114.78125 -21.421875 C 121.78125 -31.515625 125.28125 -44.851562 125.28125 -61.4375 C 125.28125 -74.625 123.28125 -86.5625 119.28125 -97.25 C 115.289062 -107.945312 109.695312 -116.390625 102.5 -122.578125 C 95.3125 -128.773438 87.117188 -131.875 77.921875 -131.875 C 66.535156 -131.875 57.445312 -126.976562 50.65625 -117.1875 C 43.863281 -107.394531 40.46875 -94.207031 40.46875 -77.625 Z M 40.46875 -77.625 "/></g></g></g><g fill="#f9f7f1" fill-opacity="1"><g transform="translate(4030.472921, 333.440375)"><g><path d="M 53.65625 -113 C 64.039062 -124.1875 72.53125 -131.875 79.125 -136.0625 C 85.71875 -140.257812 93.007812 -142.359375 101 -142.359375 C 109.789062 -142.359375 116.882812 -140.007812 122.28125 -135.3125 C 127.675781 -130.625 131.570312 -124.882812 133.96875 -118.09375 C 136.375 -111.300781 137.578125 -104.609375 137.578125 -98.015625 L 137.578125 -31.765625 C 137.578125 -21.578125 139.171875 -14.734375 142.359375 -11.234375 C 145.554688 -7.742188 151.050781 -5.796875 158.84375 -5.390625 L 158.84375 0 L 88.71875 0 L 88.71875 -5.390625 C 95.113281 -5.390625 100.007812 -6.085938 103.40625 -7.484375 C 106.800781 -8.890625 109.25 -11.441406 110.75 -15.140625 C 112.25 -18.835938 113 -24.378906 113 -31.765625 L 113 -99.203125 C 113 -105.597656 110.898438 -111.441406 106.703125 -116.734375 C 102.503906 -122.035156 96.707031 -124.6875 89.3125 -124.6875 C 83.125 -124.6875 77.226562 -123.035156 71.625 -119.734375 C 66.03125 -116.441406 60.039062 -111.398438 53.65625 -104.609375 L 53.65625 -31.765625 C 53.65625 -21.378906 55.351562 -14.4375 58.75 -10.9375 C 62.144531 -7.4375 68.035156 -5.585938 76.421875 -5.390625 L 76.421875 0 L 7.5 0 L 7.5 -5.390625 C 13.6875 -5.992188 18.28125 -7.09375 21.28125 -8.6875 C 24.28125 -10.289062 26.328125 -12.789062 27.421875 -16.1875 C 28.523438 -19.582031 29.078125 -24.476562 29.078125 -30.875 L 29.078125 -105.5 C 29.078125 -110.09375 28.078125 -114.085938 26.078125 -117.484375 C 24.078125 -120.878906 20.878906 -122.578125 16.484375 -122.578125 C 14.484375 -122.578125 12.632812 -122.226562 10.9375 -121.53125 C 9.238281 -120.832031 8.09375 -120.382812 7.5 -120.1875 L 5.390625 -125.875 L 48.546875 -142.359375 L 53.65625 -142.359375 Z M 53.65625 -113 "/></g></g></g><g fill="#f9f7f1" fill-opacity="1"><g transform="translate(4195.919007, 333.440375)"><g><path d="M 70.4375 -142.359375 C 86.019531 -142.359375 98.65625 -137.164062 108.34375 -126.78125 C 118.039062 -116.394531 122.890625 -102.90625 122.890625 -86.3125 L 28.765625 -86.3125 L 28.765625 -82.421875 C 28.765625 -71.828125 30.863281 -61.6875 35.0625 -52 C 39.257812 -42.3125 45.15625 -34.46875 52.75 -28.46875 C 60.34375 -22.476562 68.9375 -19.484375 78.53125 -19.484375 C 97.507812 -19.484375 110.796875 -30.070312 118.390625 -51.25 L 122.890625 -48.859375 C 119.691406 -32.472656 113.097656 -19.53125 103.109375 -10.03125 C 93.117188 -0.539062 81.128906 4.203125 67.140625 4.203125 C 56.742188 4.203125 47.097656 1.503906 38.203125 -3.890625 C 29.316406 -9.285156 22.125 -17.378906 16.625 -28.171875 C 11.132812 -38.960938 8.390625 -52.050781 8.390625 -67.4375 C 8.390625 -82.21875 10.988281 -95.300781 16.1875 -106.6875 C 21.382812 -118.082031 28.675781 -126.875 38.0625 -133.0625 C 47.457031 -139.257812 58.25 -142.359375 70.4375 -142.359375 Z M 62.046875 -131.875 C 53.648438 -131.875 46.40625 -128.578125 40.3125 -121.984375 C 34.21875 -115.390625 30.570312 -106.597656 29.375 -95.609375 L 92.015625 -95.609375 C 91.617188 -106.398438 88.867188 -115.140625 83.765625 -121.828125 C 78.671875 -128.523438 71.429688 -131.875 62.046875 -131.875 Z M 62.046875 -131.875 "/></g></g></g><g clip-path="url(#4d479e4770)"><g clip-path="url(#b77ba2e877)"><path fill="#4682b4" d="M 2269.09375 0 L 3389.230469 0 L 3389.230469 538 L 2269.09375 538 Z M 2269.09375 0 " fill-opacity="1" fill-rule="nonzero"/></g></g><g fill="#f9f7f1" fill-opacity="1"><g transform="translate(2449.688983, 333.440375)"><g><path d="M 148.953125 -48.546875 L 221.1875 -205.90625 L 283.828125 -205.90625 L 283.828125 -200.515625 L 281.734375 -200.515625 C 272.140625 -200.515625 265.046875 -198.816406 260.453125 -195.421875 C 255.859375 -192.023438 253.5625 -185.53125 253.5625 -175.9375 L 253.5625 -29.671875 C 253.5625 -20.878906 255.757812 -14.632812 260.15625 -10.9375 C 264.550781 -7.238281 271.941406 -5.390625 282.328125 -5.390625 L 283.828125 -5.390625 L 283.828125 0 L 190.921875 0 L 190.921875 -5.390625 L 193.625 -5.390625 C 203.007812 -5.390625 209.945312 -7.238281 214.4375 -10.9375 C 218.9375 -14.632812 221.1875 -21.078125 221.1875 -30.265625 L 221.1875 -172.640625 L 220.59375 -172.640625 L 141.46875 0 L 136.078125 0 L 56.953125 -172.640625 L 56.34375 -172.640625 L 56.34375 -29.96875 C 56.34375 -20.375 58.539062 -13.925781 62.9375 -10.625 C 67.332031 -7.332031 74.726562 -5.585938 85.125 -5.390625 L 85.125 0 L 12.890625 0 L 12.890625 -5.390625 L 14.6875 -5.390625 C 24.28125 -5.390625 31.375 -7.140625 35.96875 -10.640625 C 40.5625 -14.140625 42.859375 -20.679688 42.859375 -30.265625 L 42.859375 -170.84375 C 42.859375 -180.226562 40.457031 -187.269531 35.65625 -191.96875 C 30.863281 -196.664062 23.273438 -199.515625 12.890625 -200.515625 L 12.890625 -205.90625 L 75.828125 -205.90625 Z M 148.953125 -48.546875 "/></g></g></g><g fill="#f9f7f1" fill-opacity="1"><g transform="translate(2746.41295, 333.440375)"><g><path d="M 70.4375 -142.359375 C 86.019531 -142.359375 98.65625 -137.164062 108.34375 -126.78125 C 118.039062 -116.394531 122.890625 -102.90625 122.890625 -86.3125 L 28.765625 -86.3125 L 28.765625 -82.421875 C 28.765625 -71.828125 30.863281 -61.6875 35.0625 -52 C 39.257812 -42.3125 45.15625 -34.46875 52.75 -28.46875 C 60.34375 -22.476562 68.9375 -19.484375 78.53125 -19.484375 C 97.507812 -19.484375 110.796875 -30.070312 118.390625 -51.25 L 122.890625 -48.859375 C 119.691406 -32.472656 113.097656 -19.53125 103.109375 -10.03125 C 93.117188 -0.539062 81.128906 4.203125 67.140625 4.203125 C 56.742188 4.203125 47.097656 1.503906 38.203125 -3.890625 C 29.316406 -9.285156 22.125 -17.378906 16.625 -28.171875 C 11.132812 -38.960938 8.390625 -52.050781 8.390625 -67.4375 C 8.390625 -82.21875 10.988281 -95.300781 16.1875 -106.6875 C 21.382812 -118.082031 28.675781 -126.875 38.0625 -133.0625 C 47.457031 -139.257812 58.25 -142.359375 70.4375 -142.359375 Z M 62.046875 -131.875 C 53.648438 -131.875 46.40625 -128.578125 40.3125 -121.984375 C 34.21875 -115.390625 30.570312 -106.597656 29.375 -95.609375 L 92.015625 -95.609375 C 91.617188 -106.398438 88.867188 -115.140625 83.765625 -121.828125 C 78.671875 -128.523438 71.429688 -131.875 62.046875 -131.875 Z M 62.046875 -131.875 "/></g></g></g><g fill="#f9f7f1" fill-opacity="1"><g transform="translate(2877.690831, 333.440375)"><g><path d="M 49.75 -183.125 L 54.546875 -183.125 L 54.546875 -139.0625 L 86.015625 -139.0625 L 86.015625 -129.78125 L 54.546875 -129.78125 L 54.546875 -33.265625 C 54.546875 -28.066406 56.046875 -23.421875 59.046875 -19.328125 C 62.046875 -15.234375 66.238281 -13.1875 71.625 -13.1875 C 75.226562 -13.1875 78.425781 -14.035156 81.21875 -15.734375 C 84.019531 -17.429688 87.019531 -20.378906 90.21875 -24.578125 L 96.203125 -24.578125 C 91.015625 -14.984375 85.421875 -7.785156 79.421875 -2.984375 C 73.429688 1.804688 66.4375 4.203125 58.4375 4.203125 C 49.644531 4.203125 42.703125 0.957031 37.609375 -5.53125 C 32.515625 -12.03125 29.96875 -20.875 29.96875 -32.0625 L 29.96875 -129.78125 L 8.6875 -129.78125 L 8.6875 -135.765625 C 18.882812 -139.960938 27.476562 -146.109375 34.46875 -154.203125 C 41.457031 -162.296875 46.550781 -171.9375 49.75 -183.125 Z M 49.75 -183.125 "/></g></g></g><g fill="#f9f7f1" fill-opacity="1"><g transform="translate(2977.497978, 333.440375)"><g><path d="M 71.625 -142.359375 C 101.601562 -142.359375 116.59375 -130.375 116.59375 -106.40625 L 116.59375 -26.96875 C 116.59375 -21.570312 117.390625 -18.023438 118.984375 -16.328125 C 120.585938 -14.628906 122.6875 -13.78125 125.28125 -13.78125 C 128.28125 -13.78125 131.078125 -14.628906 133.671875 -16.328125 C 136.273438 -18.023438 140.070312 -21.273438 145.0625 -26.078125 L 145.0625 -18.578125 C 137.46875 -9.984375 131.222656 -4.035156 126.328125 -0.734375 C 121.429688 2.554688 116.390625 4.203125 111.203125 4.203125 C 105.398438 4.203125 100.75 2.15625 97.25 -1.9375 C 93.757812 -6.039062 92.015625 -12.085938 92.015625 -20.078125 C 83.222656 -11.691406 75.078125 -5.546875 67.578125 -1.640625 C 60.085938 2.253906 51.945312 4.203125 43.15625 4.203125 C 34.363281 4.203125 26.96875 0.90625 20.96875 -5.6875 C 14.976562 -12.28125 11.984375 -20.273438 11.984375 -29.671875 C 11.984375 -45.660156 20.476562 -58.050781 37.46875 -66.84375 C 53.644531 -75.425781 71.828125 -83.316406 92.015625 -90.515625 L 92.015625 -98.90625 C 92.015625 -106.894531 91.460938 -113.285156 90.359375 -118.078125 C 89.265625 -122.878906 86.769531 -126.726562 82.875 -129.625 C 78.976562 -132.519531 73.03125 -133.96875 65.03125 -133.96875 C 57.238281 -133.96875 51.441406 -132.066406 47.640625 -128.265625 C 43.847656 -124.472656 41.953125 -119.78125 41.953125 -114.1875 L 42.265625 -106.40625 C 42.265625 -103.007812 41.164062 -100.210938 38.96875 -98.015625 C 36.769531 -95.816406 33.972656 -94.71875 30.578125 -94.71875 C 26.773438 -94.71875 23.675781 -95.816406 21.28125 -98.015625 C 18.882812 -100.210938 17.6875 -103.304688 17.6875 -107.296875 C 17.6875 -117.285156 22.378906 -125.625 31.765625 -132.3125 C 41.160156 -139.007812 54.445312 -142.359375 71.625 -142.359375 Z M 37.46875 -37.46875 C 37.46875 -30.675781 39.613281 -24.878906 43.90625 -20.078125 C 48.207031 -15.285156 53.550781 -12.890625 59.9375 -12.890625 C 70.132812 -12.890625 80.828125 -17.882812 92.015625 -27.875 L 92.015625 -82.421875 C 78.023438 -76.628906 67.234375 -71.582031 59.640625 -67.28125 C 52.046875 -62.988281 46.453125 -58.546875 42.859375 -53.953125 C 39.265625 -49.359375 37.46875 -43.863281 37.46875 -37.46875 Z M 37.46875 -37.46875 "/></g></g></g><g fill="#f9f7f1" fill-opacity="1"><g transform="translate(3127.358544, 333.440375)"><g><path d="M 54.25 -214.890625 L 54.25 -31.46875 C 54.25 -21.476562 55.695312 -14.632812 58.59375 -10.9375 C 61.488281 -7.238281 66.734375 -5.390625 74.328125 -5.390625 L 74.328125 0 L 6.890625 0 L 6.890625 -5.390625 C 12.484375 -5.390625 16.878906 -5.988281 20.078125 -7.1875 C 23.273438 -8.382812 25.671875 -10.878906 27.265625 -14.671875 C 28.867188 -18.472656 29.671875 -24.070312 29.671875 -31.46875 L 29.671875 -173.234375 C 29.671875 -186.617188 24.972656 -193.3125 15.578125 -193.3125 C 12.984375 -193.3125 10.6875 -192.8125 8.6875 -191.8125 L 6.890625 -196.921875 L 48.859375 -214.890625 Z M 54.25 -214.890625 "/></g></g></g><g clip-path="url(#3f4415a990)"><g clip-path="url(#c685b93025)"><path fill="#fdd000" d="M 4538.238281 0 L 5652.066406 0 L 5652.066406 538 L 4538.238281 538 Z M 4538.238281 0 " fill-opacity="1" fill-rule="nonzero"/></g></g><g fill="#3d3d3d" fill-opacity="1"><g transform="translate(4765.89615, 333.440375)"><g><path d="M 131.28125 -210.40625 C 142.070312 -210.40625 151.507812 -209.40625 159.59375 -207.40625 C 167.6875 -205.40625 175.832031 -202.804688 184.03125 -199.609375 C 189.820312 -197.410156 193.316406 -196.3125 194.515625 -196.3125 C 196.910156 -196.3125 199.007812 -197.507812 200.8125 -199.90625 C 202.613281 -202.3125 203.710938 -205.8125 204.109375 -210.40625 L 209.796875 -210.40625 L 215.203125 -144.765625 L 209.796875 -144.765625 C 207.003906 -156.148438 201.609375 -165.9375 193.609375 -174.125 C 185.617188 -182.320312 176.328125 -188.519531 165.734375 -192.71875 C 155.148438 -196.914062 144.363281 -199.015625 133.375 -199.015625 C 118.382812 -199.015625 104.59375 -195.265625 92 -187.765625 C 79.414062 -180.273438 69.328125 -169.285156 61.734375 -154.796875 C 54.148438 -140.316406 50.359375 -122.984375 50.359375 -102.796875 C 50.359375 -84.222656 54.300781 -67.640625 62.1875 -53.046875 C 70.082031 -38.460938 80.773438 -27.125 94.265625 -19.03125 C 107.753906 -10.9375 122.390625 -6.890625 138.171875 -6.890625 C 146.566406 -6.890625 154.359375 -8.035156 161.546875 -10.328125 C 168.742188 -12.628906 176.335938 -16.476562 184.328125 -21.875 L 184.328125 -81.21875 C 184.328125 -90.007812 182.03125 -96.15625 177.4375 -99.65625 C 172.84375 -103.15625 165.546875 -105.003906 155.546875 -105.203125 L 155.546875 -110.59375 L 243.96875 -110.59375 L 243.96875 -105.203125 C 236.570312 -104.597656 231.023438 -103.492188 227.328125 -101.890625 C 223.640625 -100.296875 220.945312 -97.5 219.25 -93.5 C 217.550781 -89.507812 216.703125 -83.519531 216.703125 -75.53125 L 216.703125 -17.078125 C 202.109375 -9.085938 189.117188 -3.492188 177.734375 -0.296875 C 166.347656 2.898438 152.359375 4.5 135.765625 4.5 C 109.796875 4.5 87.519531 -0.492188 68.9375 -10.484375 C 50.351562 -20.472656 36.363281 -33.210938 26.96875 -48.703125 C 17.582031 -64.191406 12.890625 -80.128906 12.890625 -96.515625 C 12.890625 -117.296875 18.132812 -136.375 28.625 -153.75 C 39.113281 -171.132812 53.398438 -184.921875 71.484375 -195.109375 C 89.566406 -205.304688 109.5 -210.40625 131.28125 -210.40625 Z M 131.28125 -210.40625 "/></g></g></g><g fill="#3d3d3d" fill-opacity="1"><g transform="translate(5012.566648, 333.440375)"><g><path d="M 85.421875 -142.359375 C 97.210938 -142.359375 108.25 -139.210938 118.53125 -132.921875 C 128.820312 -126.628906 137.015625 -118.238281 143.109375 -107.75 C 149.203125 -97.257812 152.25 -86.019531 152.25 -74.03125 C 152.25 -60.039062 148.953125 -47.050781 142.359375 -35.0625 C 135.765625 -23.070312 126.921875 -13.53125 115.828125 -6.4375 C 104.742188 0.65625 92.910156 4.203125 80.328125 4.203125 C 68.335938 4.203125 57.195312 1.054688 46.90625 -5.234375 C 36.613281 -11.535156 28.46875 -20.03125 22.46875 -30.71875 C 16.476562 -41.40625 13.484375 -53.046875 13.484375 -65.640625 C 13.484375 -79.222656 16.78125 -91.910156 23.375 -103.703125 C 29.96875 -115.492188 38.804688 -124.882812 49.890625 -131.875 C 60.984375 -138.863281 72.828125 -142.359375 85.421875 -142.359375 Z M 40.46875 -77.625 C 40.46875 -65.832031 42.3125 -54.492188 46 -43.609375 C 49.695312 -32.722656 55.039062 -23.78125 62.03125 -16.78125 C 69.03125 -9.789062 77.425781 -6.296875 87.21875 -6.296875 C 98.601562 -6.296875 107.789062 -11.335938 114.78125 -21.421875 C 121.78125 -31.515625 125.28125 -44.851562 125.28125 -61.4375 C 125.28125 -74.625 123.28125 -86.5625 119.28125 -97.25 C 115.289062 -107.945312 109.695312 -116.390625 102.5 -122.578125 C 95.3125 -128.773438 87.117188 -131.875 77.921875 -131.875 C 66.535156 -131.875 57.445312 -126.976562 50.65625 -117.1875 C 43.863281 -107.394531 40.46875 -94.207031 40.46875 -77.625 Z M 40.46875 -77.625 "/></g></g></g><g fill="#3d3d3d" fill-opacity="1"><g transform="translate(5178.012734, 333.440375)"><g><path d="M 54.25 -214.890625 L 54.25 -31.46875 C 54.25 -21.476562 55.695312 -14.632812 58.59375 -10.9375 C 61.488281 -7.238281 66.734375 -5.390625 74.328125 -5.390625 L 74.328125 0 L 6.890625 0 L 6.890625 -5.390625 C 12.484375 -5.390625 16.878906 -5.988281 20.078125 -7.1875 C 23.273438 -8.382812 25.671875 -10.878906 27.265625 -14.671875 C 28.867188 -18.472656 29.671875 -24.070312 29.671875 -31.46875 L 29.671875 -173.234375 C 29.671875 -186.617188 24.972656 -193.3125 15.578125 -193.3125 C 12.984375 -193.3125 10.6875 -192.8125 8.6875 -191.8125 L 6.890625 -196.921875 L 48.859375 -214.890625 Z M 54.25 -214.890625 "/></g></g></g><g fill="#3d3d3d" fill-opacity="1"><g transform="translate(5259.237146, 333.440375)"><g><path d="M 136.375 -214.890625 L 136.375 -39.859375 C 136.375 -30.265625 137.421875 -23.96875 139.515625 -20.96875 C 141.617188 -17.976562 144.867188 -16.484375 149.265625 -16.484375 C 151.253906 -16.484375 154.25 -17.179688 158.25 -18.578125 L 160.34375 -13.78125 L 111.796875 3.59375 L 111.796875 -16.1875 C 105.003906 -9.1875 98.3125 -4.035156 91.71875 -0.734375 C 85.125 2.554688 77.828125 4.203125 69.828125 4.203125 C 59.046875 4.203125 49.054688 1.101562 39.859375 -5.09375 C 30.671875 -11.289062 23.328125 -19.679688 17.828125 -30.265625 C 12.335938 -40.859375 9.59375 -52.25 9.59375 -64.4375 C 9.59375 -78.226562 12.835938 -91.117188 19.328125 -103.109375 C 25.828125 -115.097656 34.46875 -124.632812 45.25 -131.71875 C 56.039062 -138.8125 67.632812 -142.359375 80.03125 -142.359375 C 85.820312 -142.359375 91.210938 -141.5625 96.203125 -139.96875 C 101.203125 -138.375 106.398438 -135.675781 111.796875 -131.875 L 111.796875 -174.734375 C 111.796875 -187.328125 107.5 -193.625 98.90625 -193.625 C 97.507812 -193.625 96.210938 -193.472656 95.015625 -193.171875 C 93.816406 -192.867188 92.316406 -192.316406 90.515625 -191.515625 L 88.125 -196.609375 L 131.28125 -214.890625 Z M 36.5625 -75.234375 C 36.5625 -63.640625 38.707031 -53.097656 43 -43.609375 C 47.300781 -34.117188 53.097656 -26.578125 60.390625 -20.984375 C 67.679688 -15.390625 75.722656 -12.59375 84.515625 -12.59375 C 95.304688 -12.59375 104.398438 -17.1875 111.796875 -26.375 L 111.796875 -94.109375 C 111.796875 -104.296875 109.695312 -112.335938 105.5 -118.234375 C 101.300781 -124.128906 96.503906 -128.222656 91.109375 -130.515625 C 85.710938 -132.816406 80.816406 -133.96875 76.421875 -133.96875 C 69.429688 -133.96875 62.890625 -131.367188 56.796875 -126.171875 C 50.703125 -120.984375 45.804688 -113.894531 42.109375 -104.90625 C 38.410156 -95.914062 36.5625 -86.023438 36.5625 -75.234375 Z M 36.5625 -75.234375 "/></g></g></g></svg>